<?xml version="1.0" encoding="UTF-8" standalone="no"?>
<!DOCTYPE svg PUBLIC "-//W3C//DTD SVG 1.1//EN"
 "http://www.w3.org/Graphics/SVG/1.1/DTD/svg11.dtd">
<!-- Generated by graphviz version 2.40.1 (20161225.0304)
 -->
<!-- Title: %3 Pages: 1 -->
<svg width="275pt" height="174pt"
 viewBox="0.00 0.00 275.00 174.00" xmlns="http://www.w3.org/2000/svg" xmlns:xlink="http://www.w3.org/1999/xlink">
<g id="graph0" class="graph" transform="scale(1 1) rotate(0) translate(4 170)">
<title>%3</title>
<polygon fill="#ffffff" stroke="transparent" points="-4,4 -4,-170 271,-170 271,4 -4,4"/>
<g id="clust1" class="cluster">
<title>cluster_0</title>
<polygon fill="none" stroke="#000000" points="8,-8 8,-158 150,-158 150,-8 8,-8"/>
<text text-anchor="middle" x="79" y="-142.8" font-family="Times,serif" font-size="14.00" fill="#000000">Subgraph A</text>
</g>
<g id="clust2" class="cluster">
<title>cluster_1</title>
<polygon fill="none" stroke="#000000" points="158,-8 158,-83 259,-83 259,-8 158,-8"/>
<text text-anchor="middle" x="208.5" y="-67.8" font-family="Times,serif" font-size="14.00" fill="#000000">Subgraph B</text>
</g>
<!-- a -->
<g id="node1" class="node">
<title>a</title>
<ellipse fill="#d3d3d3" stroke="#000000" cx="115" cy="-109" rx="27" ry="18"/>
<text text-anchor="middle" x="115" y="-105.3" font-family="Times,serif" font-size="14.00" fill="#000000">a</text>
</g>
<!-- c -->
<g id="node2" class="node">
<title>c</title>
<ellipse fill="#d3d3d3" stroke="#000000" cx="79" cy="-34" rx="27" ry="18"/>
<text text-anchor="middle" x="79" y="-30.3" font-family="Times,serif" font-size="14.00" fill="#000000">c</text>
</g>
<!-- a&#45;&gt;c -->
<g id="edge1" class="edge">
<title>a&#45;&gt;c</title>
<path fill="none" stroke="#000000" d="M106.6504,-91.605C102.1976,-82.3283 96.6262,-70.7212 91.6535,-60.3614"/>
<polygon fill="#000000" stroke="#000000" points="94.787,-58.8013 87.3043,-51.3007 88.4764,-61.8305 94.787,-58.8013"/>
</g>
<!-- f -->
<g id="node4" class="node">
<title>f</title>
<ellipse fill="none" stroke="#000000" cx="193" cy="-34" rx="27" ry="18"/>
<text text-anchor="middle" x="193" y="-30.3" font-family="Times,serif" font-size="14.00" fill="#000000">f</text>
</g>
<!-- a&#45;&gt;f -->
<g id="edge3" class="edge">
<title>a&#45;&gt;f</title>
<path fill="none" stroke="#000000" d="M149.9983,-86.2912C150.0775,-86.2245 150.157,-86.1576 150.2366,-86.0903"/>
<polygon fill="#000000" stroke="#000000" points="152.872,-88.4295 158.002,-79.1594 148.2108,-83.2071 152.872,-88.4295"/>
</g>
<!-- b -->
<g id="node3" class="node">
<title>b</title>
<ellipse fill="#d3d3d3" stroke="#000000" cx="43" cy="-109" rx="27" ry="18"/>
<text text-anchor="middle" x="43" y="-105.3" font-family="Times,serif" font-size="14.00" fill="#000000">b</text>
</g>
<!-- b&#45;&gt;c -->
<g id="edge2" class="edge">
<title>b&#45;&gt;c</title>
<path fill="none" stroke="#000000" d="M51.3496,-91.605C55.8024,-82.3283 61.3738,-70.7212 66.3465,-60.3614"/>
<polygon fill="#000000" stroke="#000000" points="69.5236,-61.8305 70.6957,-51.3007 63.213,-58.8013 69.5236,-61.8305"/>
</g>
</g>
</svg>
