<?xml version="1.0" encoding="UTF-8" standalone="no"?>
<!DOCTYPE svg PUBLIC "-//W3C//DTD SVG 1.1//EN"
 "http://www.w3.org/Graphics/SVG/1.1/DTD/svg11.dtd">
<!-- Generated by graphviz version 2.40.1 (20161225.0304)
 -->
<!-- Title: G Pages: 1 -->
<svg width="62pt" height="240pt"
 viewBox="0.00 0.00 62.00 240.00" xmlns="http://www.w3.org/2000/svg" xmlns:xlink="http://www.w3.org/1999/xlink">
<g id="graph0" class="graph" transform="scale(1 1) rotate(0) translate(4 236)">
<title>G</title>
<polygon fill="#ffffff" stroke="transparent" points="-4,4 -4,-236 58,-236 58,4 -4,4"/>
<!-- a -->
<g id="node1" class="node">
<title>a</title>
<polygon fill="#c0c0c0" stroke="transparent" points="21,-129.5 21,-150.5 34,-150.5 34,-129.5 21,-129.5"/>
<polygon fill="none" stroke="#000000" points="21,-129.5 21,-150.5 34,-150.5 34,-129.5 21,-129.5"/>
<text text-anchor="start" x="24" y="-136.3" font-family="Times,serif" font-size="14.00" fill="#000000">1</text>
<polygon fill="none" stroke="#000000" points="21,-108.5 21,-129.5 34,-129.5 34,-108.5 21,-108.5"/>
<text text-anchor="start" x="24" y="-115.3" font-family="Times,serif" font-size="14.00" fill="#000000">2</text>
<polygon fill="none" stroke="#000000" points="21,-87.5 21,-108.5 34,-108.5 34,-87.5 21,-87.5"/>
<text text-anchor="start" x="24" y="-94.3" font-family="Times,serif" font-size="14.00" fill="#000000">3</text>
<polygon fill="none" stroke="#000000" points="21,-66.5 21,-87.5 34,-87.5 34,-66.5 21,-66.5"/>
<text text-anchor="start" x="24" y="-73.3" font-family="Times,serif" font-size="14.00" fill="#000000">4</text>
<polygon fill="none" stroke="#000000" points="21,-45.5 21,-66.5 34,-66.5 34,-45.5 21,-45.5"/>
<text text-anchor="start" x="24" y="-52.3" font-family="Times,serif" font-size="14.00" fill="#000000">5</text>
<polygon fill="none" stroke="#000000" points="21,-24.5 21,-45.5 34,-45.5 34,-24.5 21,-24.5"/>
<text text-anchor="start" x="24" y="-31.3" font-family="Times,serif" font-size="14.00" fill="#000000">6</text>
<polygon fill="none" stroke="#000000" points="21,-3.5 21,-24.5 34,-24.5 34,-3.5 21,-3.5"/>
<text text-anchor="start" x="24" y="-10.3" font-family="Times,serif" font-size="14.00" fill="#000000">7</text>
</g>
<!-- a&#45;&gt;a -->
<g id="edge1" class="edge">
<title>a:1&#45;&gt;a:6</title>
<path fill="none" stroke="#000000" stroke-dasharray="5,2" d="M31.6457,-160.4978C36.7669,-195.8584 35.5517,-232 28,-232 20.0405,-232 19.1203,-117.8082 25.2393,-55.7805"/>
<polygon fill="#000000" stroke="#000000" points="35.092,-159.8847 30.0332,-150.5757 28.1827,-161.0077 35.092,-159.8847"/>
<polygon fill="#000000" stroke="#000000" points="28.7478,-55.8963 26.3719,-45.5713 21.7905,-55.1244 28.7478,-55.8963"/>
</g>
</g>
</svg>
