<?xml version="1.0" encoding="UTF-8" standalone="no"?>
<!DOCTYPE svg PUBLIC "-//W3C//DTD SVG 1.1//EN"
 "http://www.w3.org/Graphics/SVG/1.1/DTD/svg11.dtd">
<!-- Generated by graphviz version 2.40.1 (20161225.0304)
 -->
<!-- Title: g Pages: 1 -->
<svg width="2071pt" height="92pt"
 viewBox="0.00 0.00 2070.50 92.00" xmlns="http://www.w3.org/2000/svg" xmlns:xlink="http://www.w3.org/1999/xlink">
<g id="graph0" class="graph" transform="scale(1 1) rotate(0) translate(4 88)">
<title>g</title>
<polygon fill="#ffffff" stroke="transparent" points="-4,4 -4,-88 2066.5,-88 2066.5,4 -4,4"/>
<!-- node0 -->
<g id="node1" class="node">
<title>node0</title>
<polygon fill="none" stroke="#000000" points="897,-60.5 897,-83.5 1240,-83.5 1240,-60.5 897,-60.5"/>
<text text-anchor="middle" x="907" y="-68.3" font-family="Times,serif" font-size="14.00" fill="#000000"> </text>
<polyline fill="none" stroke="#000000" points="917,-60.5 917,-83.5 "/>
<text text-anchor="middle" x="928.5" y="-68.3" font-family="Times,serif" font-size="14.00" fill="#000000">8</text>
<polyline fill="none" stroke="#000000" points="940,-60.5 940,-83.5 "/>
<text text-anchor="middle" x="950" y="-68.3" font-family="Times,serif" font-size="14.00" fill="#000000"> </text>
<polyline fill="none" stroke="#000000" points="960,-60.5 960,-83.5 "/>
<text text-anchor="middle" x="975" y="-68.3" font-family="Times,serif" font-size="14.00" fill="#000000">19</text>
<polyline fill="none" stroke="#000000" points="990,-60.5 990,-83.5 "/>
<text text-anchor="middle" x="1000" y="-68.3" font-family="Times,serif" font-size="14.00" fill="#000000"> </text>
<polyline fill="none" stroke="#000000" points="1010,-60.5 1010,-83.5 "/>
<text text-anchor="middle" x="1025" y="-68.3" font-family="Times,serif" font-size="14.00" fill="#000000">28</text>
<polyline fill="none" stroke="#000000" points="1040,-60.5 1040,-83.5 "/>
<text text-anchor="middle" x="1050" y="-68.3" font-family="Times,serif" font-size="14.00" fill="#000000"> </text>
<polyline fill="none" stroke="#000000" points="1060,-60.5 1060,-83.5 "/>
<text text-anchor="middle" x="1075" y="-68.3" font-family="Times,serif" font-size="14.00" fill="#000000">34</text>
<polyline fill="none" stroke="#000000" points="1090,-60.5 1090,-83.5 "/>
<text text-anchor="middle" x="1100" y="-68.3" font-family="Times,serif" font-size="14.00" fill="#000000"> </text>
<polyline fill="none" stroke="#000000" points="1110,-60.5 1110,-83.5 "/>
<text text-anchor="middle" x="1125" y="-68.3" font-family="Times,serif" font-size="14.00" fill="#000000">41</text>
<polyline fill="none" stroke="#000000" points="1140,-60.5 1140,-83.5 "/>
<text text-anchor="middle" x="1150" y="-68.3" font-family="Times,serif" font-size="14.00" fill="#000000"> </text>
<polyline fill="none" stroke="#000000" points="1160,-60.5 1160,-83.5 "/>
<text text-anchor="middle" x="1170" y="-68.3" font-family="Times,serif" font-size="14.00" fill="#000000"> </text>
<polyline fill="none" stroke="#000000" points="1180,-60.5 1180,-83.5 "/>
<text text-anchor="middle" x="1190" y="-68.3" font-family="Times,serif" font-size="14.00" fill="#000000"> </text>
<polyline fill="none" stroke="#000000" points="1200,-60.5 1200,-83.5 "/>
<text text-anchor="middle" x="1210" y="-68.3" font-family="Times,serif" font-size="14.00" fill="#000000"> </text>
<polyline fill="none" stroke="#000000" points="1220,-60.5 1220,-83.5 "/>
<text text-anchor="middle" x="1230" y="-68.3" font-family="Times,serif" font-size="14.00" fill="#000000"> </text>
</g>
<!-- node1 -->
<g id="node2" class="node">
<title>node1</title>
<polygon fill="none" stroke="#000000" points="0,-.5 0,-23.5 309,-23.5 309,-.5 0,-.5"/>
<text text-anchor="middle" x="10" y="-8.3" font-family="Times,serif" font-size="14.00" fill="#000000"> </text>
<polyline fill="none" stroke="#000000" points="20,-.5 20,-23.5 "/>
<text text-anchor="middle" x="31.5" y="-8.3" font-family="Times,serif" font-size="14.00" fill="#000000">2</text>
<polyline fill="none" stroke="#000000" points="43,-.5 43,-23.5 "/>
<text text-anchor="middle" x="53" y="-8.3" font-family="Times,serif" font-size="14.00" fill="#000000"> </text>
<polyline fill="none" stroke="#000000" points="63,-.5 63,-23.5 "/>
<text text-anchor="middle" x="74.5" y="-8.3" font-family="Times,serif" font-size="14.00" fill="#000000">4</text>
<polyline fill="none" stroke="#000000" points="86,-.5 86,-23.5 "/>
<text text-anchor="middle" x="96" y="-8.3" font-family="Times,serif" font-size="14.00" fill="#000000"> </text>
<polyline fill="none" stroke="#000000" points="106,-.5 106,-23.5 "/>
<text text-anchor="middle" x="117.5" y="-8.3" font-family="Times,serif" font-size="14.00" fill="#000000">7</text>
<polyline fill="none" stroke="#000000" points="129,-.5 129,-23.5 "/>
<text text-anchor="middle" x="139" y="-8.3" font-family="Times,serif" font-size="14.00" fill="#000000"> </text>
<polyline fill="none" stroke="#000000" points="149,-.5 149,-23.5 "/>
<text text-anchor="middle" x="159" y="-8.3" font-family="Times,serif" font-size="14.00" fill="#000000"> </text>
<polyline fill="none" stroke="#000000" points="169,-.5 169,-23.5 "/>
<text text-anchor="middle" x="179" y="-8.3" font-family="Times,serif" font-size="14.00" fill="#000000"> </text>
<polyline fill="none" stroke="#000000" points="189,-.5 189,-23.5 "/>
<text text-anchor="middle" x="199" y="-8.3" font-family="Times,serif" font-size="14.00" fill="#000000"> </text>
<polyline fill="none" stroke="#000000" points="209,-.5 209,-23.5 "/>
<text text-anchor="middle" x="219" y="-8.3" font-family="Times,serif" font-size="14.00" fill="#000000"> </text>
<polyline fill="none" stroke="#000000" points="229,-.5 229,-23.5 "/>
<text text-anchor="middle" x="239" y="-8.3" font-family="Times,serif" font-size="14.00" fill="#000000"> </text>
<polyline fill="none" stroke="#000000" points="249,-.5 249,-23.5 "/>
<text text-anchor="middle" x="259" y="-8.3" font-family="Times,serif" font-size="14.00" fill="#000000"> </text>
<polyline fill="none" stroke="#000000" points="269,-.5 269,-23.5 "/>
<text text-anchor="middle" x="279" y="-8.3" font-family="Times,serif" font-size="14.00" fill="#000000"> </text>
<polyline fill="none" stroke="#000000" points="289,-.5 289,-23.5 "/>
<text text-anchor="middle" x="299" y="-8.3" font-family="Times,serif" font-size="14.00" fill="#000000"> </text>
</g>
<!-- node0&#45;&gt;node1 -->
<g id="edge1" class="edge">
<title>node0:f0&#45;&gt;node1</title>
<path fill="none" stroke="#000000" d="M896.5,-72C664.1143,-72 392.1175,-42.3996 250.7988,-24.7804"/>
<polygon fill="#000000" stroke="#000000" points="251.2098,-21.3046 240.852,-23.5331 250.3388,-28.2502 251.2098,-21.3046"/>
</g>
<!-- node2 -->
<g id="node3" class="node">
<title>node2</title>
<polygon fill="none" stroke="#000000" points="327,-.5 327,-23.5 660,-23.5 660,-.5 327,-.5"/>
<text text-anchor="middle" x="337" y="-8.3" font-family="Times,serif" font-size="14.00" fill="#000000"> </text>
<polyline fill="none" stroke="#000000" points="347,-.5 347,-23.5 "/>
<text text-anchor="middle" x="358.5" y="-8.3" font-family="Times,serif" font-size="14.00" fill="#000000">9</text>
<polyline fill="none" stroke="#000000" points="370,-.5 370,-23.5 "/>
<text text-anchor="middle" x="380" y="-8.3" font-family="Times,serif" font-size="14.00" fill="#000000"> </text>
<polyline fill="none" stroke="#000000" points="390,-.5 390,-23.5 "/>
<text text-anchor="middle" x="405" y="-8.3" font-family="Times,serif" font-size="14.00" fill="#000000">11</text>
<polyline fill="none" stroke="#000000" points="420,-.5 420,-23.5 "/>
<text text-anchor="middle" x="430" y="-8.3" font-family="Times,serif" font-size="14.00" fill="#000000"> </text>
<polyline fill="none" stroke="#000000" points="440,-.5 440,-23.5 "/>
<text text-anchor="middle" x="455" y="-8.3" font-family="Times,serif" font-size="14.00" fill="#000000">14</text>
<polyline fill="none" stroke="#000000" points="470,-.5 470,-23.5 "/>
<text text-anchor="middle" x="480" y="-8.3" font-family="Times,serif" font-size="14.00" fill="#000000"> </text>
<polyline fill="none" stroke="#000000" points="490,-.5 490,-23.5 "/>
<text text-anchor="middle" x="505" y="-8.3" font-family="Times,serif" font-size="14.00" fill="#000000">15</text>
<polyline fill="none" stroke="#000000" points="520,-.5 520,-23.5 "/>
<text text-anchor="middle" x="530" y="-8.3" font-family="Times,serif" font-size="14.00" fill="#000000"> </text>
<polyline fill="none" stroke="#000000" points="540,-.5 540,-23.5 "/>
<text text-anchor="middle" x="550" y="-8.3" font-family="Times,serif" font-size="14.00" fill="#000000"> </text>
<polyline fill="none" stroke="#000000" points="560,-.5 560,-23.5 "/>
<text text-anchor="middle" x="570" y="-8.3" font-family="Times,serif" font-size="14.00" fill="#000000"> </text>
<polyline fill="none" stroke="#000000" points="580,-.5 580,-23.5 "/>
<text text-anchor="middle" x="590" y="-8.3" font-family="Times,serif" font-size="14.00" fill="#000000"> </text>
<polyline fill="none" stroke="#000000" points="600,-.5 600,-23.5 "/>
<text text-anchor="middle" x="610" y="-8.3" font-family="Times,serif" font-size="14.00" fill="#000000"> </text>
<polyline fill="none" stroke="#000000" points="620,-.5 620,-23.5 "/>
<text text-anchor="middle" x="630" y="-8.3" font-family="Times,serif" font-size="14.00" fill="#000000"> </text>
<polyline fill="none" stroke="#000000" points="640,-.5 640,-23.5 "/>
<text text-anchor="middle" x="650" y="-8.3" font-family="Times,serif" font-size="14.00" fill="#000000"> </text>
</g>
<!-- node0&#45;&gt;node2 -->
<g id="edge2" class="edge">
<title>node0:f1&#45;&gt;node2</title>
<path fill="none" stroke="#000000" d="M949.5,-60C949.5,-52.169 777.1183,-35.8222 644.3297,-24.3917"/>
<polygon fill="#000000" stroke="#000000" points="644.2985,-20.8762 634.0359,-23.5086 643.7001,-27.8506 644.2985,-20.8762"/>
</g>
<!-- node3 -->
<g id="node4" class="node">
<title>node3</title>
<polygon fill="none" stroke="#000000" points="678.5,-.5 678.5,-23.5 1018.5,-23.5 1018.5,-.5 678.5,-.5"/>
<text text-anchor="middle" x="688.5" y="-8.3" font-family="Times,serif" font-size="14.00" fill="#000000"> </text>
<polyline fill="none" stroke="#000000" points="698.5,-.5 698.5,-23.5 "/>
<text text-anchor="middle" x="713.5" y="-8.3" font-family="Times,serif" font-size="14.00" fill="#000000">20</text>
<polyline fill="none" stroke="#000000" points="728.5,-.5 728.5,-23.5 "/>
<text text-anchor="middle" x="738.5" y="-8.3" font-family="Times,serif" font-size="14.00" fill="#000000"> </text>
<polyline fill="none" stroke="#000000" points="748.5,-.5 748.5,-23.5 "/>
<text text-anchor="middle" x="763.5" y="-8.3" font-family="Times,serif" font-size="14.00" fill="#000000">24</text>
<polyline fill="none" stroke="#000000" points="778.5,-.5 778.5,-23.5 "/>
<text text-anchor="middle" x="788.5" y="-8.3" font-family="Times,serif" font-size="14.00" fill="#000000"> </text>
<polyline fill="none" stroke="#000000" points="798.5,-.5 798.5,-23.5 "/>
<text text-anchor="middle" x="813.5" y="-8.3" font-family="Times,serif" font-size="14.00" fill="#000000">25</text>
<polyline fill="none" stroke="#000000" points="828.5,-.5 828.5,-23.5 "/>
<text text-anchor="middle" x="838.5" y="-8.3" font-family="Times,serif" font-size="14.00" fill="#000000"> </text>
<polyline fill="none" stroke="#000000" points="848.5,-.5 848.5,-23.5 "/>
<text text-anchor="middle" x="863.5" y="-8.3" font-family="Times,serif" font-size="14.00" fill="#000000">26</text>
<polyline fill="none" stroke="#000000" points="878.5,-.5 878.5,-23.5 "/>
<text text-anchor="middle" x="888.5" y="-8.3" font-family="Times,serif" font-size="14.00" fill="#000000"> </text>
<polyline fill="none" stroke="#000000" points="898.5,-.5 898.5,-23.5 "/>
<text text-anchor="middle" x="908.5" y="-8.3" font-family="Times,serif" font-size="14.00" fill="#000000"> </text>
<polyline fill="none" stroke="#000000" points="918.5,-.5 918.5,-23.5 "/>
<text text-anchor="middle" x="928.5" y="-8.3" font-family="Times,serif" font-size="14.00" fill="#000000"> </text>
<polyline fill="none" stroke="#000000" points="938.5,-.5 938.5,-23.5 "/>
<text text-anchor="middle" x="948.5" y="-8.3" font-family="Times,serif" font-size="14.00" fill="#000000"> </text>
<polyline fill="none" stroke="#000000" points="958.5,-.5 958.5,-23.5 "/>
<text text-anchor="middle" x="968.5" y="-8.3" font-family="Times,serif" font-size="14.00" fill="#000000"> </text>
<polyline fill="none" stroke="#000000" points="978.5,-.5 978.5,-23.5 "/>
<text text-anchor="middle" x="988.5" y="-8.3" font-family="Times,serif" font-size="14.00" fill="#000000"> </text>
<polyline fill="none" stroke="#000000" points="998.5,-.5 998.5,-23.5 "/>
<text text-anchor="middle" x="1008.5" y="-8.3" font-family="Times,serif" font-size="14.00" fill="#000000"> </text>
</g>
<!-- node0&#45;&gt;node3 -->
<g id="edge3" class="edge">
<title>node0:f2&#45;&gt;node3</title>
<path fill="none" stroke="#000000" d="M999.5,-60C999.5,-44.4774 970.1524,-33.3122 937.3334,-25.6794"/>
<polygon fill="#000000" stroke="#000000" points="938.0568,-22.2549 927.5379,-23.5215 936.5508,-29.091 938.0568,-22.2549"/>
</g>
<!-- node4 -->
<g id="node5" class="node">
<title>node4</title>
<polygon fill="none" stroke="#000000" points="1036.5,-.5 1036.5,-23.5 1366.5,-23.5 1366.5,-.5 1036.5,-.5"/>
<text text-anchor="middle" x="1046.5" y="-8.3" font-family="Times,serif" font-size="14.00" fill="#000000"> </text>
<polyline fill="none" stroke="#000000" points="1056.5,-.5 1056.5,-23.5 "/>
<text text-anchor="middle" x="1071.5" y="-8.3" font-family="Times,serif" font-size="14.00" fill="#000000">29</text>
<polyline fill="none" stroke="#000000" points="1086.5,-.5 1086.5,-23.5 "/>
<text text-anchor="middle" x="1096.5" y="-8.3" font-family="Times,serif" font-size="14.00" fill="#000000"> </text>
<polyline fill="none" stroke="#000000" points="1106.5,-.5 1106.5,-23.5 "/>
<text text-anchor="middle" x="1121.5" y="-8.3" font-family="Times,serif" font-size="14.00" fill="#000000">30</text>
<polyline fill="none" stroke="#000000" points="1136.5,-.5 1136.5,-23.5 "/>
<text text-anchor="middle" x="1146.5" y="-8.3" font-family="Times,serif" font-size="14.00" fill="#000000"> </text>
<polyline fill="none" stroke="#000000" points="1156.5,-.5 1156.5,-23.5 "/>
<text text-anchor="middle" x="1171.5" y="-8.3" font-family="Times,serif" font-size="14.00" fill="#000000">33</text>
<polyline fill="none" stroke="#000000" points="1186.5,-.5 1186.5,-23.5 "/>
<text text-anchor="middle" x="1196.5" y="-8.3" font-family="Times,serif" font-size="14.00" fill="#000000"> </text>
<polyline fill="none" stroke="#000000" points="1206.5,-.5 1206.5,-23.5 "/>
<text text-anchor="middle" x="1216.5" y="-8.3" font-family="Times,serif" font-size="14.00" fill="#000000"> </text>
<polyline fill="none" stroke="#000000" points="1226.5,-.5 1226.5,-23.5 "/>
<text text-anchor="middle" x="1236.5" y="-8.3" font-family="Times,serif" font-size="14.00" fill="#000000"> </text>
<polyline fill="none" stroke="#000000" points="1246.5,-.5 1246.5,-23.5 "/>
<text text-anchor="middle" x="1256.5" y="-8.3" font-family="Times,serif" font-size="14.00" fill="#000000"> </text>
<polyline fill="none" stroke="#000000" points="1266.5,-.5 1266.5,-23.5 "/>
<text text-anchor="middle" x="1276.5" y="-8.3" font-family="Times,serif" font-size="14.00" fill="#000000"> </text>
<polyline fill="none" stroke="#000000" points="1286.5,-.5 1286.5,-23.5 "/>
<text text-anchor="middle" x="1296.5" y="-8.3" font-family="Times,serif" font-size="14.00" fill="#000000"> </text>
<polyline fill="none" stroke="#000000" points="1306.5,-.5 1306.5,-23.5 "/>
<text text-anchor="middle" x="1316.5" y="-8.3" font-family="Times,serif" font-size="14.00" fill="#000000"> </text>
<polyline fill="none" stroke="#000000" points="1326.5,-.5 1326.5,-23.5 "/>
<text text-anchor="middle" x="1336.5" y="-8.3" font-family="Times,serif" font-size="14.00" fill="#000000"> </text>
<polyline fill="none" stroke="#000000" points="1346.5,-.5 1346.5,-23.5 "/>
<text text-anchor="middle" x="1356.5" y="-8.3" font-family="Times,serif" font-size="14.00" fill="#000000"> </text>
</g>
<!-- node0&#45;&gt;node4 -->
<g id="edge4" class="edge">
<title>node0:f3&#45;&gt;node4</title>
<path fill="none" stroke="#000000" d="M1049.5,-60C1049.5,-44.4469 1078.8042,-33.298 1111.6788,-25.6841"/>
<polygon fill="#000000" stroke="#000000" points="1112.4756,-29.0926 1121.4938,-23.5319 1110.9762,-22.2551 1112.4756,-29.0926"/>
</g>
<!-- node5 -->
<g id="node6" class="node">
<title>node5</title>
<polygon fill="none" stroke="#000000" points="1384.5,-.5 1384.5,-23.5 1714.5,-23.5 1714.5,-.5 1384.5,-.5"/>
<text text-anchor="middle" x="1394.5" y="-8.3" font-family="Times,serif" font-size="14.00" fill="#000000"> </text>
<polyline fill="none" stroke="#000000" points="1404.5,-.5 1404.5,-23.5 "/>
<text text-anchor="middle" x="1419.5" y="-8.3" font-family="Times,serif" font-size="14.00" fill="#000000">36</text>
<polyline fill="none" stroke="#000000" points="1434.5,-.5 1434.5,-23.5 "/>
<text text-anchor="middle" x="1444.5" y="-8.3" font-family="Times,serif" font-size="14.00" fill="#000000"> </text>
<polyline fill="none" stroke="#000000" points="1454.5,-.5 1454.5,-23.5 "/>
<text text-anchor="middle" x="1469.5" y="-8.3" font-family="Times,serif" font-size="14.00" fill="#000000">37</text>
<polyline fill="none" stroke="#000000" points="1484.5,-.5 1484.5,-23.5 "/>
<text text-anchor="middle" x="1494.5" y="-8.3" font-family="Times,serif" font-size="14.00" fill="#000000"> </text>
<polyline fill="none" stroke="#000000" points="1504.5,-.5 1504.5,-23.5 "/>
<text text-anchor="middle" x="1519.5" y="-8.3" font-family="Times,serif" font-size="14.00" fill="#000000">38</text>
<polyline fill="none" stroke="#000000" points="1534.5,-.5 1534.5,-23.5 "/>
<text text-anchor="middle" x="1544.5" y="-8.3" font-family="Times,serif" font-size="14.00" fill="#000000"> </text>
<polyline fill="none" stroke="#000000" points="1554.5,-.5 1554.5,-23.5 "/>
<text text-anchor="middle" x="1564.5" y="-8.3" font-family="Times,serif" font-size="14.00" fill="#000000"> </text>
<polyline fill="none" stroke="#000000" points="1574.5,-.5 1574.5,-23.5 "/>
<text text-anchor="middle" x="1584.5" y="-8.3" font-family="Times,serif" font-size="14.00" fill="#000000"> </text>
<polyline fill="none" stroke="#000000" points="1594.5,-.5 1594.5,-23.5 "/>
<text text-anchor="middle" x="1604.5" y="-8.3" font-family="Times,serif" font-size="14.00" fill="#000000"> </text>
<polyline fill="none" stroke="#000000" points="1614.5,-.5 1614.5,-23.5 "/>
<text text-anchor="middle" x="1624.5" y="-8.3" font-family="Times,serif" font-size="14.00" fill="#000000"> </text>
<polyline fill="none" stroke="#000000" points="1634.5,-.5 1634.5,-23.5 "/>
<text text-anchor="middle" x="1644.5" y="-8.3" font-family="Times,serif" font-size="14.00" fill="#000000"> </text>
<polyline fill="none" stroke="#000000" points="1654.5,-.5 1654.5,-23.5 "/>
<text text-anchor="middle" x="1664.5" y="-8.3" font-family="Times,serif" font-size="14.00" fill="#000000"> </text>
<polyline fill="none" stroke="#000000" points="1674.5,-.5 1674.5,-23.5 "/>
<text text-anchor="middle" x="1684.5" y="-8.3" font-family="Times,serif" font-size="14.00" fill="#000000"> </text>
<polyline fill="none" stroke="#000000" points="1694.5,-.5 1694.5,-23.5 "/>
<text text-anchor="middle" x="1704.5" y="-8.3" font-family="Times,serif" font-size="14.00" fill="#000000"> </text>
</g>
<!-- node0&#45;&gt;node5 -->
<g id="edge5" class="edge">
<title>node0:f4&#45;&gt;node5</title>
<path fill="none" stroke="#000000" d="M1100.5,-60C1100.5,-52.2759 1270.7614,-35.8631 1401.5925,-24.3914"/>
<polygon fill="#000000" stroke="#000000" points="1402.0765,-27.8625 1411.7338,-23.5051 1401.467,-20.8891 1402.0765,-27.8625"/>
</g>
<!-- node6 -->
<g id="node7" class="node">
<title>node6</title>
<polygon fill="none" stroke="#000000" points="1732.5,-.5 1732.5,-23.5 2062.5,-23.5 2062.5,-.5 1732.5,-.5"/>
<text text-anchor="middle" x="1742.5" y="-8.3" font-family="Times,serif" font-size="14.00" fill="#000000"> </text>
<polyline fill="none" stroke="#000000" points="1752.5,-.5 1752.5,-23.5 "/>
<text text-anchor="middle" x="1767.5" y="-8.3" font-family="Times,serif" font-size="14.00" fill="#000000">43</text>
<polyline fill="none" stroke="#000000" points="1782.5,-.5 1782.5,-23.5 "/>
<text text-anchor="middle" x="1792.5" y="-8.3" font-family="Times,serif" font-size="14.00" fill="#000000"> </text>
<polyline fill="none" stroke="#000000" points="1802.5,-.5 1802.5,-23.5 "/>
<text text-anchor="middle" x="1817.5" y="-8.3" font-family="Times,serif" font-size="14.00" fill="#000000">47</text>
<polyline fill="none" stroke="#000000" points="1832.5,-.5 1832.5,-23.5 "/>
<text text-anchor="middle" x="1842.5" y="-8.3" font-family="Times,serif" font-size="14.00" fill="#000000"> </text>
<polyline fill="none" stroke="#000000" points="1852.5,-.5 1852.5,-23.5 "/>
<text text-anchor="middle" x="1867.5" y="-8.3" font-family="Times,serif" font-size="14.00" fill="#000000">48</text>
<polyline fill="none" stroke="#000000" points="1882.5,-.5 1882.5,-23.5 "/>
<text text-anchor="middle" x="1892.5" y="-8.3" font-family="Times,serif" font-size="14.00" fill="#000000"> </text>
<polyline fill="none" stroke="#000000" points="1902.5,-.5 1902.5,-23.5 "/>
<text text-anchor="middle" x="1912.5" y="-8.3" font-family="Times,serif" font-size="14.00" fill="#000000"> </text>
<polyline fill="none" stroke="#000000" points="1922.5,-.5 1922.5,-23.5 "/>
<text text-anchor="middle" x="1932.5" y="-8.3" font-family="Times,serif" font-size="14.00" fill="#000000"> </text>
<polyline fill="none" stroke="#000000" points="1942.5,-.5 1942.5,-23.5 "/>
<text text-anchor="middle" x="1952.5" y="-8.3" font-family="Times,serif" font-size="14.00" fill="#000000"> </text>
<polyline fill="none" stroke="#000000" points="1962.5,-.5 1962.5,-23.5 "/>
<text text-anchor="middle" x="1972.5" y="-8.3" font-family="Times,serif" font-size="14.00" fill="#000000"> </text>
<polyline fill="none" stroke="#000000" points="1982.5,-.5 1982.5,-23.5 "/>
<text text-anchor="middle" x="1992.5" y="-8.3" font-family="Times,serif" font-size="14.00" fill="#000000"> </text>
<polyline fill="none" stroke="#000000" points="2002.5,-.5 2002.5,-23.5 "/>
<text text-anchor="middle" x="2012.5" y="-8.3" font-family="Times,serif" font-size="14.00" fill="#000000"> </text>
<polyline fill="none" stroke="#000000" points="2022.5,-.5 2022.5,-23.5 "/>
<text text-anchor="middle" x="2032.5" y="-8.3" font-family="Times,serif" font-size="14.00" fill="#000000"> </text>
<polyline fill="none" stroke="#000000" points="2042.5,-.5 2042.5,-23.5 "/>
<text text-anchor="middle" x="2052.5" y="-8.3" font-family="Times,serif" font-size="14.00" fill="#000000"> </text>
</g>
<!-- node0&#45;&gt;node6 -->
<g id="edge6" class="edge">
<title>node0:f5&#45;&gt;node6</title>
<path fill="none" stroke="#000000" d="M1150.5,-60C1150.5,-29.7548 1637.1028,-26.3851 1722.0154,-23.8393"/>
<polygon fill="#000000" stroke="#000000" points="1722.3355,-27.3292 1732.185,-23.4255 1722.0509,-20.335 1722.3355,-27.3292"/>
</g>
</g>
</svg>
