<?xml version="1.0" encoding="UTF-8" standalone="no"?>
<!DOCTYPE svg PUBLIC "-//W3C//DTD SVG 1.1//EN"
 "http://www.w3.org/Graphics/SVG/1.1/DTD/svg11.dtd">
<!-- Generated by graphviz version 2.40.1 (20161225.0304)
 -->
<!-- Title: g Pages: 1 -->
<svg width="1198pt" height="152pt"
 viewBox="0.00 0.00 1197.50 152.00" xmlns="http://www.w3.org/2000/svg" xmlns:xlink="http://www.w3.org/1999/xlink">
<g id="graph0" class="graph" transform="scale(1 1) rotate(0) translate(4 148)">
<title>g</title>
<polygon fill="#ffffff" stroke="transparent" points="-4,4 -4,-148 1193.5,-148 1193.5,4 -4,4"/>
<!-- node0 -->
<g id="node1" class="node">
<title>node0</title>
<polygon fill="none" stroke="#000000" points="651.5,-120.5 651.5,-143.5 811.5,-143.5 811.5,-120.5 651.5,-120.5"/>
<text text-anchor="middle" x="661.5" y="-128.3" font-family="Times,serif" font-size="14.00" fill="#000000"> </text>
<polyline fill="none" stroke="#000000" points="671.5,-120.5 671.5,-143.5 "/>
<text text-anchor="middle" x="686.5" y="-128.3" font-family="Times,serif" font-size="14.00" fill="#000000">11</text>
<polyline fill="none" stroke="#000000" points="701.5,-120.5 701.5,-143.5 "/>
<text text-anchor="middle" x="711.5" y="-128.3" font-family="Times,serif" font-size="14.00" fill="#000000"> </text>
<polyline fill="none" stroke="#000000" points="721.5,-120.5 721.5,-143.5 "/>
<text text-anchor="middle" x="736.5" y="-128.3" font-family="Times,serif" font-size="14.00" fill="#000000">16</text>
<polyline fill="none" stroke="#000000" points="751.5,-120.5 751.5,-143.5 "/>
<text text-anchor="middle" x="761.5" y="-128.3" font-family="Times,serif" font-size="14.00" fill="#000000"> </text>
<polyline fill="none" stroke="#000000" points="771.5,-120.5 771.5,-143.5 "/>
<text text-anchor="middle" x="781.5" y="-128.3" font-family="Times,serif" font-size="14.00" fill="#000000"> </text>
<polyline fill="none" stroke="#000000" points="791.5,-120.5 791.5,-143.5 "/>
<text text-anchor="middle" x="801.5" y="-128.3" font-family="Times,serif" font-size="14.00" fill="#000000"> </text>
</g>
<!-- node1 -->
<g id="node2" class="node">
<title>node1</title>
<polygon fill="none" stroke="#000000" points="250.5,-60.5 250.5,-83.5 396.5,-83.5 396.5,-60.5 250.5,-60.5"/>
<text text-anchor="middle" x="260.5" y="-68.3" font-family="Times,serif" font-size="14.00" fill="#000000"> </text>
<polyline fill="none" stroke="#000000" points="270.5,-60.5 270.5,-83.5 "/>
<text text-anchor="middle" x="282" y="-68.3" font-family="Times,serif" font-size="14.00" fill="#000000">4</text>
<polyline fill="none" stroke="#000000" points="293.5,-60.5 293.5,-83.5 "/>
<text text-anchor="middle" x="303.5" y="-68.3" font-family="Times,serif" font-size="14.00" fill="#000000"> </text>
<polyline fill="none" stroke="#000000" points="313.5,-60.5 313.5,-83.5 "/>
<text text-anchor="middle" x="325" y="-68.3" font-family="Times,serif" font-size="14.00" fill="#000000">7</text>
<polyline fill="none" stroke="#000000" points="336.5,-60.5 336.5,-83.5 "/>
<text text-anchor="middle" x="346.5" y="-68.3" font-family="Times,serif" font-size="14.00" fill="#000000"> </text>
<polyline fill="none" stroke="#000000" points="356.5,-60.5 356.5,-83.5 "/>
<text text-anchor="middle" x="366.5" y="-68.3" font-family="Times,serif" font-size="14.00" fill="#000000"> </text>
<polyline fill="none" stroke="#000000" points="376.5,-60.5 376.5,-83.5 "/>
<text text-anchor="middle" x="386.5" y="-68.3" font-family="Times,serif" font-size="14.00" fill="#000000"> </text>
</g>
<!-- node0&#45;&gt;node1 -->
<g id="edge1" class="edge">
<title>node0:f0&#45;&gt;node1</title>
<path fill="none" stroke="#000000" d="M651.5,-132C550.3926,-132 434.5735,-104.072 371.1789,-86.3238"/>
<polygon fill="#000000" stroke="#000000" points="372.0404,-82.9302 361.4649,-83.5686 370.1303,-89.6646 372.0404,-82.9302"/>
</g>
<!-- node5 -->
<g id="node6" class="node">
<title>node5</title>
<polygon fill="none" stroke="#000000" points="636.5,-60.5 636.5,-83.5 786.5,-83.5 786.5,-60.5 636.5,-60.5"/>
<text text-anchor="middle" x="646.5" y="-68.3" font-family="Times,serif" font-size="14.00" fill="#000000"> </text>
<polyline fill="none" stroke="#000000" points="656.5,-60.5 656.5,-83.5 "/>
<text text-anchor="middle" x="671.5" y="-68.3" font-family="Times,serif" font-size="14.00" fill="#000000">14</text>
<polyline fill="none" stroke="#000000" points="686.5,-60.5 686.5,-83.5 "/>
<text text-anchor="middle" x="696.5" y="-68.3" font-family="Times,serif" font-size="14.00" fill="#000000"> </text>
<polyline fill="none" stroke="#000000" points="706.5,-60.5 706.5,-83.5 "/>
<text text-anchor="middle" x="716.5" y="-68.3" font-family="Times,serif" font-size="14.00" fill="#000000"> </text>
<polyline fill="none" stroke="#000000" points="726.5,-60.5 726.5,-83.5 "/>
<text text-anchor="middle" x="736.5" y="-68.3" font-family="Times,serif" font-size="14.00" fill="#000000"> </text>
<polyline fill="none" stroke="#000000" points="746.5,-60.5 746.5,-83.5 "/>
<text text-anchor="middle" x="756.5" y="-68.3" font-family="Times,serif" font-size="14.00" fill="#000000"> </text>
<polyline fill="none" stroke="#000000" points="766.5,-60.5 766.5,-83.5 "/>
<text text-anchor="middle" x="776.5" y="-68.3" font-family="Times,serif" font-size="14.00" fill="#000000"> </text>
</g>
<!-- node0&#45;&gt;node5 -->
<g id="edge5" class="edge">
<title>node0:f1&#45;&gt;node5</title>
<path fill="none" stroke="#000000" d="M711.5,-120C711.5,-111.5208 711.5,-102.1991 711.5,-94.0441"/>
<polygon fill="#000000" stroke="#000000" points="715.0001,-93.8355 711.5,-83.8356 708.0001,-93.8356 715.0001,-93.8355"/>
</g>
<!-- node8 -->
<g id="node9" class="node">
<title>node8</title>
<polygon fill="none" stroke="#000000" points="921.5,-60.5 921.5,-83.5 1071.5,-83.5 1071.5,-60.5 921.5,-60.5"/>
<text text-anchor="middle" x="931.5" y="-68.3" font-family="Times,serif" font-size="14.00" fill="#000000"> </text>
<polyline fill="none" stroke="#000000" points="941.5,-60.5 941.5,-83.5 "/>
<text text-anchor="middle" x="956.5" y="-68.3" font-family="Times,serif" font-size="14.00" fill="#000000">19</text>
<polyline fill="none" stroke="#000000" points="971.5,-60.5 971.5,-83.5 "/>
<text text-anchor="middle" x="981.5" y="-68.3" font-family="Times,serif" font-size="14.00" fill="#000000"> </text>
<polyline fill="none" stroke="#000000" points="991.5,-60.5 991.5,-83.5 "/>
<text text-anchor="middle" x="1001.5" y="-68.3" font-family="Times,serif" font-size="14.00" fill="#000000"> </text>
<polyline fill="none" stroke="#000000" points="1011.5,-60.5 1011.5,-83.5 "/>
<text text-anchor="middle" x="1021.5" y="-68.3" font-family="Times,serif" font-size="14.00" fill="#000000"> </text>
<polyline fill="none" stroke="#000000" points="1031.5,-60.5 1031.5,-83.5 "/>
<text text-anchor="middle" x="1041.5" y="-68.3" font-family="Times,serif" font-size="14.00" fill="#000000"> </text>
<polyline fill="none" stroke="#000000" points="1051.5,-60.5 1051.5,-83.5 "/>
<text text-anchor="middle" x="1061.5" y="-68.3" font-family="Times,serif" font-size="14.00" fill="#000000"> </text>
</g>
<!-- node0&#45;&gt;node8 -->
<g id="edge8" class="edge">
<title>node0:f2&#45;&gt;node8</title>
<path fill="none" stroke="#000000" d="M761.5,-120C761.5,-104.2064 844.0329,-90.2744 911.2767,-81.5443"/>
<polygon fill="#000000" stroke="#000000" points="912.0212,-84.9778 921.4984,-80.2414 911.1361,-78.0339 912.0212,-84.9778"/>
</g>
<!-- node2 -->
<g id="node3" class="node">
<title>node2</title>
<polygon fill="none" stroke="#000000" points="0,-.5 0,-23.5 149,-23.5 149,-.5 0,-.5"/>
<text text-anchor="middle" x="10" y="-8.3" font-family="Times,serif" font-size="14.00" fill="#000000"> </text>
<polyline fill="none" stroke="#000000" points="20,-.5 20,-23.5 "/>
<text text-anchor="middle" x="31.5" y="-8.3" font-family="Times,serif" font-size="14.00" fill="#000000">1</text>
<polyline fill="none" stroke="#000000" points="43,-.5 43,-23.5 "/>
<text text-anchor="middle" x="53" y="-8.3" font-family="Times,serif" font-size="14.00" fill="#000000"> </text>
<polyline fill="none" stroke="#000000" points="63,-.5 63,-23.5 "/>
<text text-anchor="middle" x="74.5" y="-8.3" font-family="Times,serif" font-size="14.00" fill="#000000">2</text>
<polyline fill="none" stroke="#000000" points="86,-.5 86,-23.5 "/>
<text text-anchor="middle" x="96" y="-8.3" font-family="Times,serif" font-size="14.00" fill="#000000"> </text>
<polyline fill="none" stroke="#000000" points="106,-.5 106,-23.5 "/>
<text text-anchor="middle" x="117.5" y="-8.3" font-family="Times,serif" font-size="14.00" fill="#000000">3</text>
<polyline fill="none" stroke="#000000" points="129,-.5 129,-23.5 "/>
<text text-anchor="middle" x="139" y="-8.3" font-family="Times,serif" font-size="14.00" fill="#000000"> </text>
</g>
<!-- node1&#45;&gt;node2 -->
<g id="edge2" class="edge">
<title>node1:f0&#45;&gt;node2</title>
<path fill="none" stroke="#000000" d="M250.5,-72C196.2052,-72 137.2857,-46.1024 103.2532,-28.3358"/>
<polygon fill="#000000" stroke="#000000" points="104.8076,-25.198 94.3388,-23.5686 101.5065,-31.3708 104.8076,-25.198"/>
</g>
<!-- node3 -->
<g id="node4" class="node">
<title>node3</title>
<polygon fill="none" stroke="#000000" points="167.5,-.5 167.5,-23.5 313.5,-23.5 313.5,-.5 167.5,-.5"/>
<text text-anchor="middle" x="177.5" y="-8.3" font-family="Times,serif" font-size="14.00" fill="#000000"> </text>
<polyline fill="none" stroke="#000000" points="187.5,-.5 187.5,-23.5 "/>
<text text-anchor="middle" x="199" y="-8.3" font-family="Times,serif" font-size="14.00" fill="#000000">5</text>
<polyline fill="none" stroke="#000000" points="210.5,-.5 210.5,-23.5 "/>
<text text-anchor="middle" x="220.5" y="-8.3" font-family="Times,serif" font-size="14.00" fill="#000000"> </text>
<polyline fill="none" stroke="#000000" points="230.5,-.5 230.5,-23.5 "/>
<text text-anchor="middle" x="242" y="-8.3" font-family="Times,serif" font-size="14.00" fill="#000000">6</text>
<polyline fill="none" stroke="#000000" points="253.5,-.5 253.5,-23.5 "/>
<text text-anchor="middle" x="263.5" y="-8.3" font-family="Times,serif" font-size="14.00" fill="#000000"> </text>
<polyline fill="none" stroke="#000000" points="273.5,-.5 273.5,-23.5 "/>
<text text-anchor="middle" x="283.5" y="-8.3" font-family="Times,serif" font-size="14.00" fill="#000000"> </text>
<polyline fill="none" stroke="#000000" points="293.5,-.5 293.5,-23.5 "/>
<text text-anchor="middle" x="303.5" y="-8.3" font-family="Times,serif" font-size="14.00" fill="#000000"> </text>
</g>
<!-- node1&#45;&gt;node3 -->
<g id="edge3" class="edge">
<title>node1:f1&#45;&gt;node3</title>
<path fill="none" stroke="#000000" d="M303.5,-60C303.5,-46.2797 293.929,-35.9627 282.2479,-28.4804"/>
<polygon fill="#000000" stroke="#000000" points="283.9044,-25.3963 273.4761,-23.525 280.4613,-31.4911 283.9044,-25.3963"/>
</g>
<!-- node4 -->
<g id="node5" class="node">
<title>node4</title>
<polygon fill="none" stroke="#000000" points="331.5,-.5 331.5,-23.5 487.5,-23.5 487.5,-.5 331.5,-.5"/>
<text text-anchor="middle" x="341.5" y="-8.3" font-family="Times,serif" font-size="14.00" fill="#000000"> </text>
<polyline fill="none" stroke="#000000" points="351.5,-.5 351.5,-23.5 "/>
<text text-anchor="middle" x="363" y="-8.3" font-family="Times,serif" font-size="14.00" fill="#000000">8</text>
<polyline fill="none" stroke="#000000" points="374.5,-.5 374.5,-23.5 "/>
<text text-anchor="middle" x="384.5" y="-8.3" font-family="Times,serif" font-size="14.00" fill="#000000"> </text>
<polyline fill="none" stroke="#000000" points="394.5,-.5 394.5,-23.5 "/>
<text text-anchor="middle" x="406" y="-8.3" font-family="Times,serif" font-size="14.00" fill="#000000">9</text>
<polyline fill="none" stroke="#000000" points="417.5,-.5 417.5,-23.5 "/>
<text text-anchor="middle" x="427.5" y="-8.3" font-family="Times,serif" font-size="14.00" fill="#000000"> </text>
<polyline fill="none" stroke="#000000" points="437.5,-.5 437.5,-23.5 "/>
<text text-anchor="middle" x="452.5" y="-8.3" font-family="Times,serif" font-size="14.00" fill="#000000">10</text>
<polyline fill="none" stroke="#000000" points="467.5,-.5 467.5,-23.5 "/>
<text text-anchor="middle" x="477.5" y="-8.3" font-family="Times,serif" font-size="14.00" fill="#000000"> </text>
</g>
<!-- node1&#45;&gt;node4 -->
<g id="edge4" class="edge">
<title>node1:f2&#45;&gt;node4</title>
<path fill="none" stroke="#000000" d="M346.5,-60C346.5,-46.2797 356.071,-35.9627 367.7521,-28.4804"/>
<polygon fill="#000000" stroke="#000000" points="369.5387,-31.4911 376.5239,-23.525 366.0956,-25.3963 369.5387,-31.4911"/>
</g>
<!-- node6 -->
<g id="node7" class="node">
<title>node6</title>
<polygon fill="none" stroke="#000000" points="505.5,-.5 505.5,-23.5 665.5,-23.5 665.5,-.5 505.5,-.5"/>
<text text-anchor="middle" x="515.5" y="-8.3" font-family="Times,serif" font-size="14.00" fill="#000000"> </text>
<polyline fill="none" stroke="#000000" points="525.5,-.5 525.5,-23.5 "/>
<text text-anchor="middle" x="540.5" y="-8.3" font-family="Times,serif" font-size="14.00" fill="#000000">12</text>
<polyline fill="none" stroke="#000000" points="555.5,-.5 555.5,-23.5 "/>
<text text-anchor="middle" x="565.5" y="-8.3" font-family="Times,serif" font-size="14.00" fill="#000000"> </text>
<polyline fill="none" stroke="#000000" points="575.5,-.5 575.5,-23.5 "/>
<text text-anchor="middle" x="590.5" y="-8.3" font-family="Times,serif" font-size="14.00" fill="#000000">13</text>
<polyline fill="none" stroke="#000000" points="605.5,-.5 605.5,-23.5 "/>
<text text-anchor="middle" x="615.5" y="-8.3" font-family="Times,serif" font-size="14.00" fill="#000000"> </text>
<polyline fill="none" stroke="#000000" points="625.5,-.5 625.5,-23.5 "/>
<text text-anchor="middle" x="635.5" y="-8.3" font-family="Times,serif" font-size="14.00" fill="#000000"> </text>
<polyline fill="none" stroke="#000000" points="645.5,-.5 645.5,-23.5 "/>
<text text-anchor="middle" x="655.5" y="-8.3" font-family="Times,serif" font-size="14.00" fill="#000000"> </text>
</g>
<!-- node5&#45;&gt;node6 -->
<g id="edge6" class="edge">
<title>node5:f0&#45;&gt;node6</title>
<path fill="none" stroke="#000000" d="M646.5,-60C646.5,-46.5768 637.2647,-36.3324 625.981,-28.8253"/>
<polygon fill="#000000" stroke="#000000" points="627.4705,-25.6417 617.0721,-23.6108 623.9345,-31.6829 627.4705,-25.6417"/>
</g>
<!-- node7 -->
<g id="node8" class="node">
<title>node7</title>
<polygon fill="none" stroke="#000000" points="683.5,-.5 683.5,-23.5 833.5,-23.5 833.5,-.5 683.5,-.5"/>
<text text-anchor="middle" x="693.5" y="-8.3" font-family="Times,serif" font-size="14.00" fill="#000000"> </text>
<polyline fill="none" stroke="#000000" points="703.5,-.5 703.5,-23.5 "/>
<text text-anchor="middle" x="718.5" y="-8.3" font-family="Times,serif" font-size="14.00" fill="#000000">15</text>
<polyline fill="none" stroke="#000000" points="733.5,-.5 733.5,-23.5 "/>
<text text-anchor="middle" x="743.5" y="-8.3" font-family="Times,serif" font-size="14.00" fill="#000000"> </text>
<polyline fill="none" stroke="#000000" points="753.5,-.5 753.5,-23.5 "/>
<text text-anchor="middle" x="763.5" y="-8.3" font-family="Times,serif" font-size="14.00" fill="#000000"> </text>
<polyline fill="none" stroke="#000000" points="773.5,-.5 773.5,-23.5 "/>
<text text-anchor="middle" x="783.5" y="-8.3" font-family="Times,serif" font-size="14.00" fill="#000000"> </text>
<polyline fill="none" stroke="#000000" points="793.5,-.5 793.5,-23.5 "/>
<text text-anchor="middle" x="803.5" y="-8.3" font-family="Times,serif" font-size="14.00" fill="#000000"> </text>
<polyline fill="none" stroke="#000000" points="813.5,-.5 813.5,-23.5 "/>
<text text-anchor="middle" x="823.5" y="-8.3" font-family="Times,serif" font-size="14.00" fill="#000000"> </text>
</g>
<!-- node5&#45;&gt;node7 -->
<g id="edge7" class="edge">
<title>node5:f1&#45;&gt;node7</title>
<path fill="none" stroke="#000000" d="M696.5,-60C696.5,-46.5489 705.7371,-36.3304 717.0805,-28.853"/>
<polygon fill="#000000" stroke="#000000" points="719.1471,-31.7009 726.0473,-23.6612 715.6395,-25.6431 719.1471,-31.7009"/>
</g>
<!-- node9 -->
<g id="node10" class="node">
<title>node9</title>
<polygon fill="none" stroke="#000000" points="851.5,-.5 851.5,-23.5 1011.5,-23.5 1011.5,-.5 851.5,-.5"/>
<text text-anchor="middle" x="861.5" y="-8.3" font-family="Times,serif" font-size="14.00" fill="#000000"> </text>
<polyline fill="none" stroke="#000000" points="871.5,-.5 871.5,-23.5 "/>
<text text-anchor="middle" x="886.5" y="-8.3" font-family="Times,serif" font-size="14.00" fill="#000000">17</text>
<polyline fill="none" stroke="#000000" points="901.5,-.5 901.5,-23.5 "/>
<text text-anchor="middle" x="911.5" y="-8.3" font-family="Times,serif" font-size="14.00" fill="#000000"> </text>
<polyline fill="none" stroke="#000000" points="921.5,-.5 921.5,-23.5 "/>
<text text-anchor="middle" x="936.5" y="-8.3" font-family="Times,serif" font-size="14.00" fill="#000000">18</text>
<polyline fill="none" stroke="#000000" points="951.5,-.5 951.5,-23.5 "/>
<text text-anchor="middle" x="961.5" y="-8.3" font-family="Times,serif" font-size="14.00" fill="#000000"> </text>
<polyline fill="none" stroke="#000000" points="971.5,-.5 971.5,-23.5 "/>
<text text-anchor="middle" x="981.5" y="-8.3" font-family="Times,serif" font-size="14.00" fill="#000000"> </text>
<polyline fill="none" stroke="#000000" points="991.5,-.5 991.5,-23.5 "/>
<text text-anchor="middle" x="1001.5" y="-8.3" font-family="Times,serif" font-size="14.00" fill="#000000"> </text>
</g>
<!-- node8&#45;&gt;node9 -->
<g id="edge9" class="edge">
<title>node8:f0&#45;&gt;node9</title>
<path fill="none" stroke="#000000" d="M931.5,-60C931.5,-51.5208 931.5,-42.1991 931.5,-34.0441"/>
<polygon fill="#000000" stroke="#000000" points="935.0001,-33.8355 931.5,-23.8356 928.0001,-33.8356 935.0001,-33.8355"/>
</g>
<!-- node10 -->
<g id="node11" class="node">
<title>node10</title>
<polygon fill="none" stroke="#000000" points="1029.5,-.5 1029.5,-23.5 1189.5,-23.5 1189.5,-.5 1029.5,-.5"/>
<text text-anchor="middle" x="1039.5" y="-8.3" font-family="Times,serif" font-size="14.00" fill="#000000"> </text>
<polyline fill="none" stroke="#000000" points="1049.5,-.5 1049.5,-23.5 "/>
<text text-anchor="middle" x="1064.5" y="-8.3" font-family="Times,serif" font-size="14.00" fill="#000000">20</text>
<polyline fill="none" stroke="#000000" points="1079.5,-.5 1079.5,-23.5 "/>
<text text-anchor="middle" x="1089.5" y="-8.3" font-family="Times,serif" font-size="14.00" fill="#000000"> </text>
<polyline fill="none" stroke="#000000" points="1099.5,-.5 1099.5,-23.5 "/>
<text text-anchor="middle" x="1114.5" y="-8.3" font-family="Times,serif" font-size="14.00" fill="#000000">21</text>
<polyline fill="none" stroke="#000000" points="1129.5,-.5 1129.5,-23.5 "/>
<text text-anchor="middle" x="1139.5" y="-8.3" font-family="Times,serif" font-size="14.00" fill="#000000"> </text>
<polyline fill="none" stroke="#000000" points="1149.5,-.5 1149.5,-23.5 "/>
<text text-anchor="middle" x="1159.5" y="-8.3" font-family="Times,serif" font-size="14.00" fill="#000000"> </text>
<polyline fill="none" stroke="#000000" points="1169.5,-.5 1169.5,-23.5 "/>
<text text-anchor="middle" x="1179.5" y="-8.3" font-family="Times,serif" font-size="14.00" fill="#000000"> </text>
</g>
<!-- node8&#45;&gt;node10 -->
<g id="edge10" class="edge">
<title>node8:f1&#45;&gt;node10</title>
<path fill="none" stroke="#000000" d="M981.5,-60C981.5,-45.7051 1009.8424,-34.2349 1039.8537,-26.0964"/>
<polygon fill="#000000" stroke="#000000" points="1040.8164,-29.4627 1049.6225,-23.5717 1039.0648,-22.6853 1040.8164,-29.4627"/>
</g>
</g>
</svg>
