<?xml version="1.0" encoding="UTF-8" standalone="no"?>
<!DOCTYPE svg PUBLIC "-//W3C//DTD SVG 1.1//EN"
 "http://www.w3.org/Graphics/SVG/1.1/DTD/svg11.dtd">
<!-- Generated by graphviz version 2.40.1 (20161225.0304)
 -->
<!-- Title: g Pages: 1 -->
<svg width="306pt" height="155pt"
 viewBox="0.00 0.00 305.50 155.00" xmlns="http://www.w3.org/2000/svg" xmlns:xlink="http://www.w3.org/1999/xlink">
<g id="graph0" class="graph" transform="scale(1 1) rotate(0) translate(4 151)">
<title>g</title>
<polygon fill="#ffffff" stroke="transparent" points="-4,4 -4,-151 301.5,-151 301.5,4 -4,4"/>
<!-- node0 -->
<g id="node1" class="node">
<title>node0</title>
<polygon fill="none" stroke="#000000" points="121,-123.5 121,-146.5 184,-146.5 184,-123.5 121,-123.5"/>
<text text-anchor="middle" x="131" y="-131.3" font-family="Times,serif" font-size="14.00" fill="#000000"> </text>
<polyline fill="none" stroke="#000000" points="141,-123.5 141,-146.5 "/>
<text text-anchor="middle" x="152.5" y="-131.3" font-family="Times,serif" font-size="14.00" fill="#000000">4</text>
<polyline fill="none" stroke="#000000" points="164,-123.5 164,-146.5 "/>
<text text-anchor="middle" x="174" y="-131.3" font-family="Times,serif" font-size="14.00" fill="#000000"> </text>
</g>
<!-- node1 -->
<g id="node2" class="node">
<title>node1</title>
<polygon fill="none" stroke="#000000" points="59,-63.5 59,-86.5 122,-86.5 122,-63.5 59,-63.5"/>
<text text-anchor="middle" x="69" y="-71.3" font-family="Times,serif" font-size="14.00" fill="#000000"> </text>
<polyline fill="none" stroke="#000000" points="79,-63.5 79,-86.5 "/>
<text text-anchor="middle" x="90.5" y="-71.3" font-family="Times,serif" font-size="14.00" fill="#000000">2</text>
<polyline fill="none" stroke="#000000" points="102,-63.5 102,-86.5 "/>
<text text-anchor="middle" x="112" y="-71.3" font-family="Times,serif" font-size="14.00" fill="#000000"> </text>
</g>
<!-- node0&#45;&gt;node1 -->
<g id="edge1" class="edge">
<title>node0:f0&#45;&gt;node1</title>
<path fill="none" stroke="#000000" d="M130.5,-123C130.5,-111.5389 123.6865,-101.362 115.6836,-93.3616"/>
<polygon fill="#000000" stroke="#000000" points="117.9535,-90.6962 108.161,-86.6517 113.294,-95.9201 117.9535,-90.6962"/>
</g>
<!-- node2 -->
<g id="node3" class="node">
<title>node2</title>
<polygon fill="none" stroke="#000000" points="184,-63.5 184,-86.5 247,-86.5 247,-63.5 184,-63.5"/>
<text text-anchor="middle" x="194" y="-71.3" font-family="Times,serif" font-size="14.00" fill="#000000"> </text>
<polyline fill="none" stroke="#000000" points="204,-63.5 204,-86.5 "/>
<text text-anchor="middle" x="215.5" y="-71.3" font-family="Times,serif" font-size="14.00" fill="#000000">6</text>
<polyline fill="none" stroke="#000000" points="227,-63.5 227,-86.5 "/>
<text text-anchor="middle" x="237" y="-71.3" font-family="Times,serif" font-size="14.00" fill="#000000"> </text>
</g>
<!-- node0&#45;&gt;node2 -->
<g id="edge2" class="edge">
<title>node0:f1&#45;&gt;node2</title>
<path fill="none" stroke="#000000" d="M174.5,-123C174.5,-111.4206 181.4838,-101.2231 189.6868,-93.2392"/>
<polygon fill="#000000" stroke="#000000" points="192.1351,-95.7488 197.3975,-86.5532 187.5492,-90.4601 192.1351,-95.7488"/>
</g>
<!-- node3 -->
<g id="node4" class="node">
<title>node3</title>
<polygon fill="none" stroke="#000000" points="0,-2 0,-25 63,-25 63,-2 0,-2"/>
<text text-anchor="middle" x="10" y="-9.8" font-family="Times,serif" font-size="14.00" fill="#000000"> </text>
<polyline fill="none" stroke="#000000" points="20,-2 20,-25 "/>
<text text-anchor="middle" x="31.5" y="-9.8" font-family="Times,serif" font-size="14.00" fill="#000000">1</text>
<polyline fill="none" stroke="#000000" points="43,-2 43,-25 "/>
<text text-anchor="middle" x="53" y="-9.8" font-family="Times,serif" font-size="14.00" fill="#000000"> </text>
</g>
<!-- node1&#45;&gt;node3 -->
<g id="edge3" class="edge">
<title>node1:f0&#45;&gt;node3</title>
<path fill="none" stroke="#000000" d="M68.5,-63C68.5,-51.3354 61.8269,-40.6507 54.1485,-32.2174"/>
<polygon fill="#000000" stroke="#000000" points="56.5537,-29.6737 46.9769,-25.1419 51.6374,-34.6567 56.5537,-29.6737"/>
</g>
<!-- node4 -->
<g id="node5" class="node">
<title>node4</title>
<polygon fill="none" stroke="#000000" points="81,-2 81,-25 144,-25 144,-2 81,-2"/>
<text text-anchor="middle" x="91" y="-9.8" font-family="Times,serif" font-size="14.00" fill="#000000"> </text>
<polyline fill="none" stroke="#000000" points="101,-2 101,-25 "/>
<text text-anchor="middle" x="112.5" y="-9.8" font-family="Times,serif" font-size="14.00" fill="#000000">3</text>
<polyline fill="none" stroke="#000000" points="124,-2 124,-25 "/>
<text text-anchor="middle" x="134" y="-9.8" font-family="Times,serif" font-size="14.00" fill="#000000"> </text>
</g>
<!-- node1&#45;&gt;node4 -->
<g id="edge4" class="edge">
<title>node1:f1&#45;&gt;node4</title>
<path fill="none" stroke="#000000" d="M112.5,-63C112.5,-53.9363 112.5,-43.939 112.5,-35.3159"/>
<polygon fill="#000000" stroke="#000000" points="116.0001,-35.3017 112.5,-25.3018 109.0001,-35.3018 116.0001,-35.3017"/>
</g>
<!-- node5 -->
<g id="node6" class="node">
<title>node5</title>
<polygon fill="none" stroke="#000000" points="162,-2 162,-25 225,-25 225,-2 162,-2"/>
<text text-anchor="middle" x="172" y="-9.8" font-family="Times,serif" font-size="14.00" fill="#000000"> </text>
<polyline fill="none" stroke="#000000" points="182,-2 182,-25 "/>
<text text-anchor="middle" x="193.5" y="-9.8" font-family="Times,serif" font-size="14.00" fill="#000000">5</text>
<polyline fill="none" stroke="#000000" points="205,-2 205,-25 "/>
<text text-anchor="middle" x="215" y="-9.8" font-family="Times,serif" font-size="14.00" fill="#000000"> </text>
</g>
<!-- node2&#45;&gt;node5 -->
<g id="edge5" class="edge">
<title>node2:f0&#45;&gt;node5</title>
<path fill="none" stroke="#000000" d="M193.5,-63C193.5,-53.9363 193.5,-43.939 193.5,-35.3159"/>
<polygon fill="#000000" stroke="#000000" points="197.0001,-35.3017 193.5,-25.3018 190.0001,-35.3018 197.0001,-35.3017"/>
</g>
<!-- node6 -->
<g id="node7" class="node">
<title>node6</title>
<polygon fill="none" stroke="#000000" points="249.5,.5 249.5,-26.5 261.5,-26.5 261.5,.5 249.5,.5"/>
<polygon fill="#ffa500" stroke="transparent" points="261.5,.5 261.5,-26.5 280.5,-26.5 280.5,.5 261.5,.5"/>
<polygon fill="none" stroke="#000000" points="261.5,.5 261.5,-26.5 280.5,-26.5 280.5,.5 261.5,.5"/>
<text text-anchor="start" x="267.5" y="-9.3" font-family="Times,serif" font-size="14.00" fill="#000000">7</text>
<polygon fill="none" stroke="#000000" points="280.5,.5 280.5,-26.5 292.5,-26.5 292.5,.5 280.5,.5"/>
</g>
<!-- node2&#45;&gt;node6 -->
<g id="edge6" class="edge">
<title>node2:f1&#45;&gt;node6</title>
<path fill="none" stroke="#000000" d="M237.5,-63C237.5,-52.7281 242.4805,-42.9665 248.5717,-34.869"/>
<polygon fill="#000000" stroke="#000000" points="251.3732,-36.9766 255.1593,-27.0813 246.0288,-32.4558 251.3732,-36.9766"/>
</g>
</g>
</svg>
