<?xml version="1.0" encoding="UTF-8" standalone="no"?>
<!DOCTYPE svg PUBLIC "-//W3C//DTD SVG 1.1//EN"
 "http://www.w3.org/Graphics/SVG/1.1/DTD/svg11.dtd">
<!-- Generated by graphviz version 2.40.1 (20161225.0304)
 -->
<!-- Title: G Pages: 1 -->
<svg width="594pt" height="220pt"
 viewBox="0.00 0.00 594.00 220.00" xmlns="http://www.w3.org/2000/svg" xmlns:xlink="http://www.w3.org/1999/xlink">
<g id="graph0" class="graph" transform="scale(1 1) rotate(0) translate(4 216)">
<title>G</title>
<polygon fill="#ffffff" stroke="transparent" points="-4,4 -4,-216 590,-216 590,4 -4,4"/>
<g id="clust1" class="cluster">
<title>cluster_0</title>
<polygon fill="none" stroke="#000000" points="8,-8 8,-204 254,-204 254,-8 8,-8"/>
</g>
<g id="clust2" class="cluster">
<title>cluster_1</title>
<polygon fill="none" stroke="#000000" points="262,-8 262,-204 578,-204 578,-8 262,-8"/>
</g>
<!-- a1 -->
<g id="node1" class="node">
<title>a1</title>
<ellipse fill="none" stroke="#000000" cx="198" cy="-178" rx="27" ry="18"/>
<text text-anchor="middle" x="198" y="-174.3" font-family="Times,serif" font-size="14.00" fill="#000000">A</text>
</g>
<!-- b1 -->
<g id="node2" class="node">
<title>b1</title>
<ellipse fill="none" stroke="#000000" cx="74" cy="-106" rx="57.6901" ry="18"/>
<text text-anchor="middle" x="74" y="-102.3" font-family="Times,serif" font-size="14.00" fill="#000000">B height:h+2</text>
</g>
<!-- a1&#45;&gt;b1 -->
<g id="edge1" class="edge">
<title>a1&#45;&gt;b1</title>
<path fill="none" stroke="#000000" d="M177.5239,-166.1107C159.2655,-155.509 132.1153,-139.7444 110.1997,-127.0192"/>
<polygon fill="#000000" stroke="#000000" points="111.8817,-123.9486 101.4763,-121.954 108.3667,-130.0022 111.8817,-123.9486"/>
</g>
<!-- c1 -->
<g id="node3" class="node">
<title>c1</title>
<ellipse fill="none" stroke="#000000" cx="198" cy="-106" rx="48.1917" ry="18"/>
<text text-anchor="middle" x="198" y="-102.3" font-family="Times,serif" font-size="14.00" fill="#000000">C height:h</text>
</g>
<!-- a1&#45;&gt;c1 -->
<g id="edge2" class="edge">
<title>a1&#45;&gt;c1</title>
<path fill="none" stroke="#000000" d="M198,-159.8314C198,-152.131 198,-142.9743 198,-134.4166"/>
<polygon fill="#000000" stroke="#000000" points="201.5001,-134.4132 198,-124.4133 194.5001,-134.4133 201.5001,-134.4132"/>
</g>
<!-- d2 -->
<g id="node10" class="node">
<title>d2</title>
<ellipse fill="none" stroke="#000000" cx="328" cy="-106" rx="57.6901" ry="18"/>
<text text-anchor="middle" x="328" y="-102.3" font-family="Times,serif" font-size="14.00" fill="#000000">D height:h+1</text>
</g>
<!-- a1&#45;&gt;d2 -->
<g id="edge9" class="edge">
<title>a1&#45;&gt;d2</title>
<path fill="none" stroke="#000000" d="M254,-147.4131C256.0011,-146.1977 258.0022,-144.9823 260.0033,-143.7669"/>
<polygon fill="#000000" stroke="#000000" points="255.2743,-150.7344 262.0044,-142.5514 251.6403,-144.7515 255.2743,-150.7344"/>
</g>
<!-- d1 -->
<g id="node4" class="node">
<title>d1</title>
<ellipse fill="none" stroke="#000000" cx="74" cy="-34" rx="57.6901" ry="18"/>
<text text-anchor="middle" x="74" y="-30.3" font-family="Times,serif" font-size="14.00" fill="#000000">D height:h+1</text>
</g>
<!-- b1&#45;&gt;d1 -->
<g id="edge3" class="edge">
<title>b1&#45;&gt;d1</title>
<path fill="none" stroke="#000000" d="M74,-87.8314C74,-80.131 74,-70.9743 74,-62.4166"/>
<polygon fill="#000000" stroke="#000000" points="77.5001,-62.4132 74,-52.4133 70.5001,-62.4133 77.5001,-62.4132"/>
</g>
<!-- x1 -->
<g id="node5" class="node">
<title>x1</title>
<ellipse fill="#d3d3d3" stroke="#000000" cx="177" cy="-34" rx="27" ry="18"/>
<text text-anchor="middle" x="177" y="-30.3" font-family="Times,serif" font-size="14.00" fill="#000000">x</text>
</g>
<!-- b1&#45;&gt;x1 -->
<g id="edge4" class="edge">
<title>b1&#45;&gt;x1</title>
<path fill="none" stroke="#000000" d="M97.6303,-89.4817C113.1652,-78.6224 133.5418,-64.3786 149.7588,-53.0424"/>
<polygon fill="#000000" stroke="#000000" points="152.0923,-55.6816 158.2831,-47.0837 148.0818,-49.9444 152.0923,-55.6816"/>
</g>
<!-- a2 -->
<g id="node6" class="node">
<title>a2</title>
<ellipse fill="none" stroke="#000000" cx="487" cy="-106" rx="83.3857" ry="18"/>
<text text-anchor="middle" x="487" y="-102.3" font-family="Times,serif" font-size="14.00" fill="#000000">A height:{h+1,h+2}</text>
</g>
<!-- x2 -->
<g id="node8" class="node">
<title>x2</title>
<ellipse fill="#d3d3d3" stroke="#000000" cx="411" cy="-34" rx="27" ry="18"/>
<text text-anchor="middle" x="411" y="-30.3" font-family="Times,serif" font-size="14.00" fill="#000000">x</text>
</g>
<!-- a2&#45;&gt;x2 -->
<g id="edge5" class="edge">
<title>a2&#45;&gt;x2</title>
<path fill="none" stroke="#000000" d="M468.2135,-88.2022C458.0265,-78.5515 445.3397,-66.5323 434.5031,-56.2661"/>
<polygon fill="#000000" stroke="#000000" points="436.6683,-53.496 427.0016,-49.1594 431.854,-58.5777 436.6683,-53.496"/>
</g>
<!-- c2 -->
<g id="node9" class="node">
<title>c2</title>
<ellipse fill="none" stroke="#000000" cx="504" cy="-34" rx="48.1917" ry="18"/>
<text text-anchor="middle" x="504" y="-30.3" font-family="Times,serif" font-size="14.00" fill="#000000">C height:h</text>
</g>
<!-- a2&#45;&gt;c2 -->
<g id="edge6" class="edge">
<title>a2&#45;&gt;c2</title>
<path fill="none" stroke="#000000" d="M491.2898,-87.8314C493.108,-80.131 495.2699,-70.9743 497.2905,-62.4166"/>
<polygon fill="#000000" stroke="#000000" points="500.7608,-62.95 499.6524,-52.4133 493.9481,-61.3414 500.7608,-62.95"/>
</g>
<!-- b2 -->
<g id="node7" class="node">
<title>b2</title>
<ellipse fill="none" stroke="#000000" cx="407" cy="-178" rx="27" ry="18"/>
<text text-anchor="middle" x="407" y="-174.3" font-family="Times,serif" font-size="14.00" fill="#000000">B</text>
</g>
<!-- b2&#45;&gt;a2 -->
<g id="edge8" class="edge">
<title>b2&#45;&gt;a2</title>
<path fill="none" stroke="#000000" d="M423.1892,-163.4297C433.676,-153.9916 447.5957,-141.4638 459.7579,-130.5179"/>
<polygon fill="#000000" stroke="#000000" points="462.351,-132.8929 467.4426,-123.6017 457.6682,-127.6898 462.351,-132.8929"/>
</g>
<!-- b2&#45;&gt;d2 -->
<g id="edge7" class="edge">
<title>b2&#45;&gt;d2</title>
<path fill="none" stroke="#000000" d="M391.0132,-163.4297C380.5095,-153.8568 366.5183,-141.1053 354.388,-130.0498"/>
<polygon fill="#000000" stroke="#000000" points="356.4892,-127.2293 346.7407,-123.0801 351.774,-132.403 356.4892,-127.2293"/>
</g>
</g>
</svg>
