<?xml version="1.0" encoding="UTF-8" standalone="no"?>
<!DOCTYPE svg PUBLIC "-//W3C//DTD SVG 1.1//EN"
 "http://www.w3.org/Graphics/SVG/1.1/DTD/svg11.dtd">
<!-- Generated by graphviz version 2.40.1 (20161225.0304)
 -->
<!-- Title: G Pages: 1 -->
<svg width="524pt" height="292pt"
 viewBox="0.00 0.00 524.00 292.00" xmlns="http://www.w3.org/2000/svg" xmlns:xlink="http://www.w3.org/1999/xlink">
<g id="graph0" class="graph" transform="scale(1 1) rotate(0) translate(4 288)">
<title>G</title>
<polygon fill="#ffffff" stroke="transparent" points="-4,4 -4,-288 520,-288 520,4 -4,4"/>
<g id="clust1" class="cluster">
<title>cluster_0</title>
<polygon fill="none" stroke="#000000" points="8,-8 8,-276 254,-276 254,-8 8,-8"/>
</g>
<g id="clust2" class="cluster">
<title>cluster_1</title>
<polygon fill="none" stroke="#000000" points="262,-8 262,-276 508,-276 508,-8 262,-8"/>
</g>
<!-- a1 -->
<g id="node1" class="node">
<title>a1</title>
<ellipse fill="none" stroke="#000000" cx="198" cy="-250" rx="27" ry="18"/>
<text text-anchor="middle" x="198" y="-246.3" font-family="Times,serif" font-size="14.00" fill="#000000">A</text>
</g>
<!-- b1 -->
<g id="node2" class="node">
<title>b1</title>
<ellipse fill="none" stroke="#000000" cx="74" cy="-178" rx="57.6901" ry="18"/>
<text text-anchor="middle" x="74" y="-174.3" font-family="Times,serif" font-size="14.00" fill="#000000">B height:h+2</text>
</g>
<!-- a1&#45;&gt;b1 -->
<g id="edge1" class="edge">
<title>a1&#45;&gt;b1</title>
<path fill="none" stroke="#000000" d="M177.5239,-238.1107C159.2655,-227.509 132.1153,-211.7444 110.1997,-199.0192"/>
<polygon fill="#000000" stroke="#000000" points="111.8817,-195.9486 101.4763,-193.954 108.3667,-202.0022 111.8817,-195.9486"/>
</g>
<!-- c1 -->
<g id="node3" class="node">
<title>c1</title>
<ellipse fill="none" stroke="#000000" cx="198" cy="-178" rx="48.1917" ry="18"/>
<text text-anchor="middle" x="198" y="-174.3" font-family="Times,serif" font-size="14.00" fill="#000000">C height:h</text>
</g>
<!-- a1&#45;&gt;c1 -->
<g id="edge2" class="edge">
<title>a1&#45;&gt;c1</title>
<path fill="none" stroke="#000000" d="M198,-231.8314C198,-224.131 198,-214.9743 198,-206.4166"/>
<polygon fill="#000000" stroke="#000000" points="201.5001,-206.4132 198,-196.4133 194.5001,-206.4133 201.5001,-206.4132"/>
</g>
<!-- d2 -->
<g id="node10" class="node">
<title>d2</title>
<ellipse fill="none" stroke="#000000" cx="318" cy="-178" rx="48.1917" ry="18"/>
<text text-anchor="middle" x="318" y="-174.3" font-family="Times,serif" font-size="14.00" fill="#000000">D height:h</text>
</g>
<!-- a1&#45;&gt;d2 -->
<g id="edge13" class="edge">
<title>a1&#45;&gt;d2</title>
<path fill="none" stroke="#000000" d="M254,-216.9085C256.0011,-215.5807 258.0022,-214.2529 260.0033,-212.9251"/>
<polygon fill="#000000" stroke="#000000" points="255.607,-220.0428 262.0045,-211.5973 251.7367,-214.2099 255.607,-220.0428"/>
</g>
<!-- d1 -->
<g id="node4" class="node">
<title>d1</title>
<ellipse fill="none" stroke="#000000" cx="65" cy="-106" rx="48.1917" ry="18"/>
<text text-anchor="middle" x="65" y="-102.3" font-family="Times,serif" font-size="14.00" fill="#000000">D height:h</text>
</g>
<!-- b1&#45;&gt;d1 -->
<g id="edge3" class="edge">
<title>b1&#45;&gt;d1</title>
<path fill="none" stroke="#000000" d="M71.7289,-159.8314C70.7664,-152.131 69.6218,-142.9743 68.5521,-134.4166"/>
<polygon fill="#000000" stroke="#000000" points="72.0151,-133.9019 67.3017,-124.4133 65.0691,-134.7702 72.0151,-133.9019"/>
</g>
<!-- e1 -->
<g id="node5" class="node">
<title>e1</title>
<ellipse fill="#d3d3d3" stroke="#000000" cx="188" cy="-106" rx="57.3905" ry="18"/>
<text text-anchor="middle" x="188" y="-102.3" font-family="Times,serif" font-size="14.00" fill="#000000">E height:h+1</text>
</g>
<!-- b1&#45;&gt;e1 -->
<g id="edge4" class="edge">
<title>b1&#45;&gt;e1</title>
<path fill="none" stroke="#000000" d="M99.5838,-161.8418C115.46,-151.8147 136.065,-138.8011 153.3892,-127.8595"/>
<polygon fill="#000000" stroke="#000000" points="155.5212,-130.6526 162.1071,-122.3534 151.7832,-124.7341 155.5212,-130.6526"/>
</g>
<!-- e1_l -->
<g id="node6" class="node">
<title>e1_l</title>
<ellipse fill="none" stroke="#000000" cx="131" cy="-34" rx="27" ry="18"/>
<text text-anchor="middle" x="131" y="-30.3" font-family="Times,serif" font-size="14.00" fill="#000000">E_l</text>
</g>
<!-- e1&#45;&gt;e1_l -->
<g id="edge5" class="edge">
<title>e1&#45;&gt;e1_l</title>
<path fill="none" stroke="#000000" d="M173.9101,-88.2022C166.6985,-79.0928 157.8164,-67.8733 150.0076,-58.0096"/>
<polygon fill="#000000" stroke="#000000" points="152.7121,-55.787 143.7609,-50.119 147.2238,-60.1319 152.7121,-55.787"/>
</g>
<!-- e1_r -->
<g id="node7" class="node">
<title>e1_r</title>
<ellipse fill="none" stroke="#000000" cx="203" cy="-34" rx="27" ry="18"/>
<text text-anchor="middle" x="203" y="-30.3" font-family="Times,serif" font-size="14.00" fill="#000000">E_r</text>
</g>
<!-- e1&#45;&gt;e1_r -->
<g id="edge6" class="edge">
<title>e1&#45;&gt;e1_r</title>
<path fill="none" stroke="#000000" d="M191.7851,-87.8314C193.432,-79.9266 195.3985,-70.4872 197.2216,-61.7365"/>
<polygon fill="#000000" stroke="#000000" points="200.6548,-62.4171 199.268,-51.9134 193.802,-60.9894 200.6548,-62.4171"/>
</g>
<!-- a2 -->
<g id="node8" class="node">
<title>a2</title>
<ellipse fill="none" stroke="#000000" cx="442" cy="-178" rx="57.6901" ry="18"/>
<text text-anchor="middle" x="442" y="-174.3" font-family="Times,serif" font-size="14.00" fill="#000000">A height:h+2</text>
</g>
<!-- e2 -->
<g id="node11" class="node">
<title>e2</title>
<ellipse fill="#d3d3d3" stroke="#000000" cx="328" cy="-106" rx="57.3905" ry="18"/>
<text text-anchor="middle" x="328" y="-102.3" font-family="Times,serif" font-size="14.00" fill="#000000">E height:h+1</text>
</g>
<!-- a2&#45;&gt;e2 -->
<g id="edge9" class="edge">
<title>a2&#45;&gt;e2</title>
<path fill="none" stroke="#000000" d="M416.4162,-161.8418C400.54,-151.8147 379.935,-138.8011 362.6108,-127.8595"/>
<polygon fill="#000000" stroke="#000000" points="364.2168,-124.7341 353.8929,-122.3534 360.4788,-130.6526 364.2168,-124.7341"/>
</g>
<!-- c2 -->
<g id="node12" class="node">
<title>c2</title>
<ellipse fill="none" stroke="#000000" cx="451" cy="-106" rx="48.1917" ry="18"/>
<text text-anchor="middle" x="451" y="-102.3" font-family="Times,serif" font-size="14.00" fill="#000000">C height:h</text>
</g>
<!-- a2&#45;&gt;c2 -->
<g id="edge10" class="edge">
<title>a2&#45;&gt;c2</title>
<path fill="none" stroke="#000000" d="M444.2711,-159.8314C445.2336,-152.131 446.3782,-142.9743 447.4479,-134.4166"/>
<polygon fill="#000000" stroke="#000000" points="450.9309,-134.7702 448.6983,-124.4133 443.9849,-133.9019 450.9309,-134.7702"/>
</g>
<!-- b2 -->
<g id="node9" class="node">
<title>b2</title>
<ellipse fill="none" stroke="#000000" cx="380" cy="-250" rx="27" ry="18"/>
<text text-anchor="middle" x="380" y="-246.3" font-family="Times,serif" font-size="14.00" fill="#000000">B</text>
</g>
<!-- b2&#45;&gt;a2 -->
<g id="edge8" class="edge">
<title>b2&#45;&gt;a2</title>
<path fill="none" stroke="#000000" d="M393.4531,-234.3771C401.2861,-225.2807 411.3477,-213.5962 420.2779,-203.2257"/>
<polygon fill="#000000" stroke="#000000" points="422.9575,-205.4776 426.8306,-195.6161 417.6531,-200.9099 422.9575,-205.4776"/>
</g>
<!-- b2&#45;&gt;d2 -->
<g id="edge7" class="edge">
<title>b2&#45;&gt;d2</title>
<path fill="none" stroke="#000000" d="M366.5469,-234.3771C358.6572,-225.2148 348.5064,-213.4268 339.5282,-203.0005"/>
<polygon fill="#000000" stroke="#000000" points="342.1254,-200.6528 332.948,-195.3589 336.821,-205.2205 342.1254,-200.6528"/>
</g>
<!-- e2_l -->
<g id="node13" class="node">
<title>e2_l</title>
<ellipse fill="none" stroke="#000000" cx="312" cy="-34" rx="27" ry="18"/>
<text text-anchor="middle" x="312" y="-30.3" font-family="Times,serif" font-size="14.00" fill="#000000">E_l</text>
</g>
<!-- e2&#45;&gt;e2_l -->
<g id="edge11" class="edge">
<title>e2&#45;&gt;e2_l</title>
<path fill="none" stroke="#000000" d="M323.9625,-87.8314C322.2059,-79.9266 320.1083,-70.4872 318.1637,-61.7365"/>
<polygon fill="#000000" stroke="#000000" points="321.5668,-60.916 315.9808,-51.9134 314.7335,-62.4346 321.5668,-60.916"/>
</g>
<!-- e2_r -->
<g id="node14" class="node">
<title>e2_r</title>
<ellipse fill="none" stroke="#000000" cx="384" cy="-34" rx="27" ry="18"/>
<text text-anchor="middle" x="384" y="-30.3" font-family="Times,serif" font-size="14.00" fill="#000000">E_r</text>
</g>
<!-- e2&#45;&gt;e2_r -->
<g id="edge12" class="edge">
<title>e2&#45;&gt;e2_r</title>
<path fill="none" stroke="#000000" d="M341.8427,-88.2022C348.857,-79.1839 357.4797,-68.0975 365.0954,-58.3059"/>
<polygon fill="#000000" stroke="#000000" points="368.0863,-60.1613 371.463,-50.119 362.5608,-55.8637 368.0863,-60.1613"/>
</g>
</g>
</svg>
<?xml version="1.0" encoding="UTF-8" standalone="no"?>
<!DOCTYPE svg PUBLIC "-//W3C//DTD SVG 1.1//EN"
 "http://www.w3.org/Graphics/SVG/1.1/DTD/svg11.dtd">
<!-- Generated by graphviz version 2.40.1 (20161225.0304)
 -->
<!-- Title: G1 Pages: 1 -->
<svg width="524pt" height="292pt"
 viewBox="0.00 0.00 524.00 292.00" xmlns="http://www.w3.org/2000/svg" xmlns:xlink="http://www.w3.org/1999/xlink">
<g id="page0,1_graph0" class="graph" transform="scale(1 1) rotate(0) translate(4 288)">
<title>G1</title>
<polygon fill="#ffffff" stroke="transparent" points="-4,4 -4,-288 520,-288 520,4 -4,4"/>
<g id="clust2" class="cluster">
<title>cluster_1</title>
<polygon fill="none" stroke="#000000" points="262,-8 262,-276 508,-276 508,-8 262,-8"/>
</g>
<g id="clust1" class="cluster">
<title>cluster_0</title>
<polygon fill="none" stroke="#000000" points="8,-8 8,-276 254,-276 254,-8 8,-8"/>
</g>
<!-- a1 -->
<g id="node1" class="node">
<title>a1</title>
<ellipse fill="none" stroke="#000000" cx="198" cy="-250" rx="27" ry="18"/>
<text text-anchor="middle" x="198" y="-246.3" font-family="Times,serif" font-size="14.00" fill="#000000">A</text>
</g>
<!-- b1 -->
<g id="node2" class="node">
<title>b1</title>
<ellipse fill="none" stroke="#000000" cx="74" cy="-178" rx="57.6901" ry="18"/>
<text text-anchor="middle" x="74" y="-174.3" font-family="Times,serif" font-size="14.00" fill="#000000">B height:h+2</text>
</g>
<!-- a1&#45;&gt;b1 -->
<g id="edge1" class="edge">
<title>a1&#45;&gt;b1</title>
<path fill="none" stroke="#000000" d="M177.5239,-238.1107C159.2655,-227.509 132.1153,-211.7444 110.1997,-199.0192"/>
<polygon fill="#000000" stroke="#000000" points="111.8817,-195.9486 101.4763,-193.954 108.3667,-202.0022 111.8817,-195.9486"/>
</g>
<!-- c1 -->
<g id="node3" class="node">
<title>c1</title>
<ellipse fill="none" stroke="#000000" cx="198" cy="-178" rx="48.1917" ry="18"/>
<text text-anchor="middle" x="198" y="-174.3" font-family="Times,serif" font-size="14.00" fill="#000000">C height:h</text>
</g>
<!-- a1&#45;&gt;c1 -->
<g id="edge2" class="edge">
<title>a1&#45;&gt;c1</title>
<path fill="none" stroke="#000000" d="M198,-231.8314C198,-224.131 198,-214.9743 198,-206.4166"/>
<polygon fill="#000000" stroke="#000000" points="201.5001,-206.4132 198,-196.4133 194.5001,-206.4133 201.5001,-206.4132"/>
</g>
<!-- d2 -->
<g id="node10" class="node">
<title>d2</title>
<ellipse fill="none" stroke="#000000" cx="318" cy="-178" rx="48.1917" ry="18"/>
<text text-anchor="middle" x="318" y="-174.3" font-family="Times,serif" font-size="14.00" fill="#000000">D height:h</text>
</g>
<!-- a1&#45;&gt;d2 -->
<g id="edge13" class="edge">
<title>a1&#45;&gt;d2</title>
<path fill="none" stroke="#000000" d="M254,-216.9085C256.0011,-215.5807 258.0022,-214.2529 260.0033,-212.9251"/>
<polygon fill="#000000" stroke="#000000" points="255.607,-220.0428 262.0045,-211.5973 251.7367,-214.2099 255.607,-220.0428"/>
</g>
<!-- d1 -->
<g id="node4" class="node">
<title>d1</title>
<ellipse fill="none" stroke="#000000" cx="65" cy="-106" rx="48.1917" ry="18"/>
<text text-anchor="middle" x="65" y="-102.3" font-family="Times,serif" font-size="14.00" fill="#000000">D height:h</text>
</g>
<!-- b1&#45;&gt;d1 -->
<g id="edge3" class="edge">
<title>b1&#45;&gt;d1</title>
<path fill="none" stroke="#000000" d="M71.7289,-159.8314C70.7664,-152.131 69.6218,-142.9743 68.5521,-134.4166"/>
<polygon fill="#000000" stroke="#000000" points="72.0151,-133.9019 67.3017,-124.4133 65.0691,-134.7702 72.0151,-133.9019"/>
</g>
<!-- e1 -->
<g id="node5" class="node">
<title>e1</title>
<ellipse fill="#d3d3d3" stroke="#000000" cx="188" cy="-106" rx="57.3905" ry="18"/>
<text text-anchor="middle" x="188" y="-102.3" font-family="Times,serif" font-size="14.00" fill="#000000">E height:h+1</text>
</g>
<!-- b1&#45;&gt;e1 -->
<g id="edge4" class="edge">
<title>b1&#45;&gt;e1</title>
<path fill="none" stroke="#000000" d="M99.5838,-161.8418C115.46,-151.8147 136.065,-138.8011 153.3892,-127.8595"/>
<polygon fill="#000000" stroke="#000000" points="155.5212,-130.6526 162.1071,-122.3534 151.7832,-124.7341 155.5212,-130.6526"/>
</g>
<!-- e1_l -->
<g id="node6" class="node">
<title>e1_l</title>
<ellipse fill="none" stroke="#000000" cx="131" cy="-34" rx="27" ry="18"/>
<text text-anchor="middle" x="131" y="-30.3" font-family="Times,serif" font-size="14.00" fill="#000000">E_l</text>
</g>
<!-- e1&#45;&gt;e1_l -->
<g id="edge5" class="edge">
<title>e1&#45;&gt;e1_l</title>
<path fill="none" stroke="#000000" d="M173.9101,-88.2022C166.6985,-79.0928 157.8164,-67.8733 150.0076,-58.0096"/>
<polygon fill="#000000" stroke="#000000" points="152.7121,-55.787 143.7609,-50.119 147.2238,-60.1319 152.7121,-55.787"/>
</g>
<!-- e1_r -->
<g id="node7" class="node">
<title>e1_r</title>
<ellipse fill="none" stroke="#000000" cx="203" cy="-34" rx="27" ry="18"/>
<text text-anchor="middle" x="203" y="-30.3" font-family="Times,serif" font-size="14.00" fill="#000000">E_r</text>
</g>
<!-- e1&#45;&gt;e1_r -->
<g id="edge6" class="edge">
<title>e1&#45;&gt;e1_r</title>
<path fill="none" stroke="#000000" d="M191.7851,-87.8314C193.432,-79.9266 195.3985,-70.4872 197.2216,-61.7365"/>
<polygon fill="#000000" stroke="#000000" points="200.6548,-62.4171 199.268,-51.9134 193.802,-60.9894 200.6548,-62.4171"/>
</g>
<!-- a2 -->
<g id="node8" class="node">
<title>a2</title>
<ellipse fill="none" stroke="#000000" cx="442" cy="-178" rx="57.6901" ry="18"/>
<text text-anchor="middle" x="442" y="-174.3" font-family="Times,serif" font-size="14.00" fill="#000000">A height:h+2</text>
</g>
<!-- e2 -->
<g id="node11" class="node">
<title>e2</title>
<ellipse fill="#d3d3d3" stroke="#000000" cx="328" cy="-106" rx="57.3905" ry="18"/>
<text text-anchor="middle" x="328" y="-102.3" font-family="Times,serif" font-size="14.00" fill="#000000">E height:h+1</text>
</g>
<!-- a2&#45;&gt;e2 -->
<g id="edge9" class="edge">
<title>a2&#45;&gt;e2</title>
<path fill="none" stroke="#000000" d="M416.4162,-161.8418C400.54,-151.8147 379.935,-138.8011 362.6108,-127.8595"/>
<polygon fill="#000000" stroke="#000000" points="364.2168,-124.7341 353.8929,-122.3534 360.4788,-130.6526 364.2168,-124.7341"/>
</g>
<!-- c2 -->
<g id="node12" class="node">
<title>c2</title>
<ellipse fill="none" stroke="#000000" cx="451" cy="-106" rx="48.1917" ry="18"/>
<text text-anchor="middle" x="451" y="-102.3" font-family="Times,serif" font-size="14.00" fill="#000000">C height:h</text>
</g>
<!-- a2&#45;&gt;c2 -->
<g id="edge10" class="edge">
<title>a2&#45;&gt;c2</title>
<path fill="none" stroke="#000000" d="M444.2711,-159.8314C445.2336,-152.131 446.3782,-142.9743 447.4479,-134.4166"/>
<polygon fill="#000000" stroke="#000000" points="450.9309,-134.7702 448.6983,-124.4133 443.9849,-133.9019 450.9309,-134.7702"/>
</g>
<!-- b2 -->
<g id="node9" class="node">
<title>b2</title>
<ellipse fill="none" stroke="#000000" cx="380" cy="-250" rx="27" ry="18"/>
<text text-anchor="middle" x="380" y="-246.3" font-family="Times,serif" font-size="14.00" fill="#000000">B</text>
</g>
<!-- b2&#45;&gt;a2 -->
<g id="edge8" class="edge">
<title>b2&#45;&gt;a2</title>
<path fill="none" stroke="#000000" d="M393.4531,-234.3771C401.2861,-225.2807 411.3477,-213.5962 420.2779,-203.2257"/>
<polygon fill="#000000" stroke="#000000" points="422.9575,-205.4776 426.8306,-195.6161 417.6531,-200.9099 422.9575,-205.4776"/>
</g>
<!-- b2&#45;&gt;d2 -->
<g id="edge7" class="edge">
<title>b2&#45;&gt;d2</title>
<path fill="none" stroke="#000000" d="M366.5469,-234.3771C358.6572,-225.2148 348.5064,-213.4268 339.5282,-203.0005"/>
<polygon fill="#000000" stroke="#000000" points="342.1254,-200.6528 332.948,-195.3589 336.821,-205.2205 342.1254,-200.6528"/>
</g>
<!-- e2_l -->
<g id="node13" class="node">
<title>e2_l</title>
<ellipse fill="none" stroke="#000000" cx="312" cy="-34" rx="27" ry="18"/>
<text text-anchor="middle" x="312" y="-30.3" font-family="Times,serif" font-size="14.00" fill="#000000">E_l</text>
</g>
<!-- e2&#45;&gt;e2_l -->
<g id="edge11" class="edge">
<title>e2&#45;&gt;e2_l</title>
<path fill="none" stroke="#000000" d="M323.9625,-87.8314C322.2059,-79.9266 320.1083,-70.4872 318.1637,-61.7365"/>
<polygon fill="#000000" stroke="#000000" points="321.5668,-60.916 315.9808,-51.9134 314.7335,-62.4346 321.5668,-60.916"/>
</g>
<!-- e2_r -->
<g id="node14" class="node">
<title>e2_r</title>
<ellipse fill="none" stroke="#000000" cx="384" cy="-34" rx="27" ry="18"/>
<text text-anchor="middle" x="384" y="-30.3" font-family="Times,serif" font-size="14.00" fill="#000000">E_r</text>
</g>
<!-- e2&#45;&gt;e2_r -->
<g id="edge12" class="edge">
<title>e2&#45;&gt;e2_r</title>
<path fill="none" stroke="#000000" d="M341.8427,-88.2022C348.857,-79.1839 357.4797,-68.0975 365.0954,-58.3059"/>
<polygon fill="#000000" stroke="#000000" points="368.0863,-60.1613 371.463,-50.119 362.5608,-55.8637 368.0863,-60.1613"/>
</g>
</g>
</svg>
