<?xml version="1.0" encoding="UTF-8" standalone="no"?>
<!DOCTYPE svg PUBLIC "-//W3C//DTD SVG 1.1//EN"
 "http://www.w3.org/Graphics/SVG/1.1/DTD/svg11.dtd">
<!-- Generated by graphviz version 2.40.1 (20161225.0304)
 -->
<!-- Title: G Pages: 1 -->
<svg width="1282pt" height="292pt"
 viewBox="0.00 0.00 1282.00 292.00" xmlns="http://www.w3.org/2000/svg" xmlns:xlink="http://www.w3.org/1999/xlink">
<g id="graph0" class="graph" transform="scale(1 1) rotate(0) translate(4 288)">
<title>G</title>
<polygon fill="#ffffff" stroke="transparent" points="-4,4 -4,-288 1278,-288 1278,4 -4,4"/>
<g id="clust1" class="cluster">
<title>cluster_0</title>
<polygon fill="none" stroke="#000000" points="8,-8 8,-276 360,-276 360,-8 8,-8"/>
</g>
<g id="clust2" class="cluster">
<title>cluster_1</title>
<polygon fill="none" stroke="#000000" points="368,-8 368,-276 678,-276 678,-8 368,-8"/>
</g>
<g id="clust3" class="cluster">
<title>cluster_2</title>
<polygon fill="none" stroke="#000000" points="686,-80 686,-276 1266,-276 1266,-80 686,-80"/>
</g>
<!-- a1 -->
<g id="node1" class="node">
<title>a1</title>
<ellipse fill="none" stroke="#000000" cx="242" cy="-250" rx="27" ry="18"/>
<text text-anchor="middle" x="242" y="-246.3" font-family="Times,serif" font-size="14.00" fill="#000000">A</text>
</g>
<!-- b1 -->
<g id="node2" class="node">
<title>b1</title>
<ellipse fill="none" stroke="#000000" cx="180" cy="-178" rx="57.6901" ry="18"/>
<text text-anchor="middle" x="180" y="-174.3" font-family="Times,serif" font-size="14.00" fill="#000000">B height:h+2</text>
</g>
<!-- a1&#45;&gt;b1 -->
<g id="edge1" class="edge">
<title>a1&#45;&gt;b1</title>
<path fill="none" stroke="#000000" d="M228.5469,-234.3771C220.7139,-225.2807 210.6523,-213.5962 201.7221,-203.2257"/>
<polygon fill="#000000" stroke="#000000" points="204.3469,-200.9099 195.1694,-195.6161 199.0425,-205.4776 204.3469,-200.9099"/>
</g>
<!-- c1 -->
<g id="node3" class="node">
<title>c1</title>
<ellipse fill="none" stroke="#000000" cx="304" cy="-178" rx="48.1917" ry="18"/>
<text text-anchor="middle" x="304" y="-174.3" font-family="Times,serif" font-size="14.00" fill="#000000">C height:h</text>
</g>
<!-- a1&#45;&gt;c1 -->
<g id="edge2" class="edge">
<title>a1&#45;&gt;c1</title>
<path fill="none" stroke="#000000" d="M255.4531,-234.3771C263.3428,-225.2148 273.4936,-213.4268 282.4718,-203.0005"/>
<polygon fill="#000000" stroke="#000000" points="285.179,-205.2205 289.052,-195.3589 279.8746,-200.6528 285.179,-205.2205"/>
</g>
<!-- d1 -->
<g id="node4" class="node">
<title>d1</title>
<ellipse fill="none" stroke="#000000" cx="106" cy="-106" rx="48.1917" ry="18"/>
<text text-anchor="middle" x="106" y="-102.3" font-family="Times,serif" font-size="14.00" fill="#000000">D height:h</text>
</g>
<!-- b1&#45;&gt;d1 -->
<g id="edge3" class="edge">
<title>b1&#45;&gt;d1</title>
<path fill="none" stroke="#000000" d="M162.0867,-160.5708C152.6556,-151.3946 140.9462,-140.0017 130.6696,-130.0029"/>
<polygon fill="#000000" stroke="#000000" points="133.1011,-127.4853 123.493,-123.0202 128.2196,-132.5024 133.1011,-127.4853"/>
</g>
<!-- e1 -->
<g id="node5" class="node">
<title>e1</title>
<ellipse fill="#d3d3d3" stroke="#000000" cx="229" cy="-106" rx="57.3905" ry="18"/>
<text text-anchor="middle" x="229" y="-102.3" font-family="Times,serif" font-size="14.00" fill="#000000">E height:h+1</text>
</g>
<!-- b1&#45;&gt;e1 -->
<g id="edge4" class="edge">
<title>b1&#45;&gt;e1</title>
<path fill="none" stroke="#000000" d="M192.1124,-160.2022C197.8252,-151.8079 204.7574,-141.6218 211.0634,-132.3558"/>
<polygon fill="#000000" stroke="#000000" points="214.1244,-134.0789 216.8572,-123.8425 208.3374,-130.1405 214.1244,-134.0789"/>
</g>
<!-- b2 -->
<g id="node9" class="node">
<title>b2</title>
<ellipse fill="none" stroke="#000000" cx="434" cy="-106" rx="57.6901" ry="18"/>
<text text-anchor="middle" x="434" y="-102.3" font-family="Times,serif" font-size="14.00" fill="#000000">B height:h+1</text>
</g>
<!-- c1&#45;&gt;b2 -->
<g id="edge19" class="edge">
<title>c1&#45;&gt;b2</title>
<path fill="none" stroke="#000000" d="M360,-147.4747C362.0003,-146.2444 364.0006,-145.014 366.0009,-143.7836"/>
<polygon fill="#000000" stroke="#000000" points="361.3172,-150.7738 368.0011,-142.5532 357.6496,-144.8114 361.3172,-150.7738"/>
</g>
<!-- e1_l -->
<g id="node6" class="node">
<title>e1_l</title>
<ellipse fill="none" stroke="#000000" cx="95" cy="-34" rx="79.0865" ry="18"/>
<text text-anchor="middle" x="95" y="-30.3" font-family="Times,serif" font-size="14.00" fill="#000000">E_l height:{h&#45;1, h}</text>
</g>
<!-- e1&#45;&gt;e1_l -->
<g id="edge5" class="edge">
<title>e1&#45;&gt;e1_l</title>
<path fill="none" stroke="#000000" d="M199.924,-90.3771C180.8815,-80.1453 155.7447,-66.6389 134.8488,-55.4113"/>
<polygon fill="#000000" stroke="#000000" points="136.3498,-52.2446 125.8843,-50.5945 133.0366,-58.4109 136.3498,-52.2446"/>
</g>
<!-- e1_r -->
<g id="node7" class="node">
<title>e1_r</title>
<ellipse fill="none" stroke="#000000" cx="272" cy="-34" rx="79.8859" ry="18"/>
<text text-anchor="middle" x="272" y="-30.3" font-family="Times,serif" font-size="14.00" fill="#000000">E_r height:{h&#45;1, h}</text>
</g>
<!-- e1&#45;&gt;e1_r -->
<g id="edge6" class="edge">
<title>e1&#45;&gt;e1_r</title>
<path fill="none" stroke="#000000" d="M239.6292,-88.2022C244.5908,-79.8944 250.6006,-69.8316 256.0884,-60.6427"/>
<polygon fill="#000000" stroke="#000000" points="259.2215,-62.2226 261.344,-51.8425 253.2117,-58.6334 259.2215,-62.2226"/>
</g>
<!-- a2 -->
<g id="node8" class="node">
<title>a2</title>
<ellipse fill="none" stroke="#000000" cx="622" cy="-250" rx="27" ry="18"/>
<text text-anchor="middle" x="622" y="-246.3" font-family="Times,serif" font-size="14.00" fill="#000000">A</text>
</g>
<!-- e2 -->
<g id="node11" class="node">
<title>e2</title>
<ellipse fill="none" stroke="#000000" cx="499" cy="-178" rx="57.3905" ry="18"/>
<text text-anchor="middle" x="499" y="-174.3" font-family="Times,serif" font-size="14.00" fill="#000000">E height:h+2</text>
</g>
<!-- a2&#45;&gt;e2 -->
<g id="edge8" class="edge">
<title>a2&#45;&gt;e2</title>
<path fill="none" stroke="#000000" d="M601.6891,-238.1107C583.5779,-227.509 556.6467,-211.7444 534.9078,-199.0192"/>
<polygon fill="#000000" stroke="#000000" points="536.6531,-195.9853 526.2548,-193.954 533.1168,-202.0264 536.6531,-195.9853"/>
</g>
<!-- c2 -->
<g id="node12" class="node">
<title>c2</title>
<ellipse fill="#d3d3d3" stroke="#000000" cx="622" cy="-178" rx="48.1917" ry="18"/>
<text text-anchor="middle" x="622" y="-174.3" font-family="Times,serif" font-size="14.00" fill="#000000">C height:h</text>
</g>
<!-- a2&#45;&gt;c2 -->
<g id="edge9" class="edge">
<title>a2&#45;&gt;c2</title>
<path fill="none" stroke="#000000" d="M622,-231.8314C622,-224.131 622,-214.9743 622,-206.4166"/>
<polygon fill="#000000" stroke="#000000" points="625.5001,-206.4132 622,-196.4133 618.5001,-206.4133 625.5001,-206.4132"/>
</g>
<!-- b3 -->
<g id="node16" class="node">
<title>b3</title>
<ellipse fill="none" stroke="#000000" cx="820" cy="-178" rx="57.6901" ry="18"/>
<text text-anchor="middle" x="820" y="-174.3" font-family="Times,serif" font-size="14.00" fill="#000000">B height:h+1</text>
</g>
<!-- a2&#45;&gt;b3 -->
<g id="edge20" class="edge">
<title>a2&#45;&gt;b3</title>
<path fill="none" stroke="#000000" d="M678,-230.159C680.0008,-229.3008 682.0016,-228.4426 684.0024,-227.5843"/>
<polygon fill="#000000" stroke="#000000" points="678.1927,-233.8851 686.0032,-226.7261 675.4331,-227.4519 678.1927,-233.8851"/>
</g>
<!-- d2 -->
<g id="node10" class="node">
<title>d2</title>
<ellipse fill="none" stroke="#000000" cx="429" cy="-34" rx="48.1917" ry="18"/>
<text text-anchor="middle" x="429" y="-30.3" font-family="Times,serif" font-size="14.00" fill="#000000">D height:h</text>
</g>
<!-- b2&#45;&gt;d2 -->
<g id="edge7" class="edge">
<title>b2&#45;&gt;d2</title>
<path fill="none" stroke="#000000" d="M432.7383,-87.8314C432.2035,-80.131 431.5677,-70.9743 430.9734,-62.4166"/>
<polygon fill="#000000" stroke="#000000" points="434.4632,-62.1467 430.2787,-52.4133 427.48,-62.6317 434.4632,-62.1467"/>
</g>
<!-- e2_l -->
<g id="node13" class="node">
<title>e2_l</title>
<ellipse fill="none" stroke="#000000" cx="574" cy="-34" rx="79.0865" ry="18"/>
<text text-anchor="middle" x="574" y="-30.3" font-family="Times,serif" font-size="14.00" fill="#000000">E_l height:{h&#45;1, h}</text>
</g>
<!-- b2&#45;&gt;e2_l -->
<g id="edge12" class="edge">
<title>b2&#45;&gt;e2_l</title>
<path fill="none" stroke="#000000" d="M464.0335,-90.5542C483.9992,-80.2861 510.4885,-66.663 532.4657,-55.3605"/>
<polygon fill="#000000" stroke="#000000" points="534.2839,-58.3612 541.5761,-50.6751 531.0825,-52.1362 534.2839,-58.3612"/>
</g>
<!-- e2&#45;&gt;b2 -->
<g id="edge10" class="edge">
<title>e2&#45;&gt;b2</title>
<path fill="none" stroke="#000000" d="M483.2653,-160.5708C475.2607,-151.7041 465.3876,-140.7678 456.5869,-131.0194"/>
<polygon fill="#000000" stroke="#000000" points="459.1141,-128.5956 449.8151,-123.5182 453.9182,-133.2863 459.1141,-128.5956"/>
</g>
<!-- e2_r -->
<g id="node14" class="node">
<title>e2_r</title>
<ellipse fill="none" stroke="#000000" cx="590" cy="-106" rx="79.8859" ry="18"/>
<text text-anchor="middle" x="590" y="-102.3" font-family="Times,serif" font-size="14.00" fill="#000000">E_r height:{h&#45;1, h}</text>
</g>
<!-- e2&#45;&gt;e2_r -->
<g id="edge11" class="edge">
<title>e2&#45;&gt;e2_r</title>
<path fill="none" stroke="#000000" d="M520.5657,-160.937C532.2928,-151.6584 546.9853,-140.0336 559.8315,-129.8696"/>
<polygon fill="#000000" stroke="#000000" points="562.2864,-132.3903 567.9569,-123.4407 557.943,-126.9008 562.2864,-132.3903"/>
</g>
<!-- e3 -->
<g id="node15" class="node">
<title>e3</title>
<ellipse fill="#d3d3d3" stroke="#000000" cx="942" cy="-250" rx="27" ry="18"/>
<text text-anchor="middle" x="942" y="-246.3" font-family="Times,serif" font-size="14.00" fill="#000000">E</text>
</g>
<!-- e3&#45;&gt;b3 -->
<g id="edge13" class="edge">
<title>e3&#45;&gt;b3</title>
<path fill="none" stroke="#000000" d="M921.5799,-237.9488C903.7738,-227.4403 877.525,-211.9492 856.171,-199.3468"/>
<polygon fill="#000000" stroke="#000000" points="857.7488,-196.2139 847.3578,-194.1456 854.191,-202.2424 857.7488,-196.2139"/>
</g>
<!-- a3 -->
<g id="node20" class="node">
<title>a3</title>
<ellipse fill="none" stroke="#000000" cx="1064" cy="-178" rx="57.6901" ry="18"/>
<text text-anchor="middle" x="1064" y="-174.3" font-family="Times,serif" font-size="14.00" fill="#000000">A height:h+1</text>
</g>
<!-- e3&#45;&gt;a3 -->
<g id="edge14" class="edge">
<title>e3&#45;&gt;a3</title>
<path fill="none" stroke="#000000" d="M962.4201,-237.9488C980.2262,-227.4403 1006.475,-211.9492 1027.829,-199.3468"/>
<polygon fill="#000000" stroke="#000000" points="1029.809,-202.2424 1036.6422,-194.1456 1026.2512,-196.2139 1029.809,-202.2424"/>
</g>
<!-- d3 -->
<g id="node17" class="node">
<title>d3</title>
<ellipse fill="none" stroke="#000000" cx="742" cy="-106" rx="48.1917" ry="18"/>
<text text-anchor="middle" x="742" y="-102.3" font-family="Times,serif" font-size="14.00" fill="#000000">D height:h</text>
</g>
<!-- b3&#45;&gt;d3 -->
<g id="edge15" class="edge">
<title>b3&#45;&gt;d3</title>
<path fill="none" stroke="#000000" d="M801.5151,-160.937C791.3394,-151.5441 778.5589,-139.7467 767.4523,-129.4944"/>
<polygon fill="#000000" stroke="#000000" points="769.8052,-126.9031 760.0831,-122.6921 765.0572,-132.0468 769.8052,-126.9031"/>
</g>
<!-- e3_l -->
<g id="node18" class="node">
<title>e3_l</title>
<ellipse fill="none" stroke="#000000" cx="887" cy="-106" rx="79.0865" ry="18"/>
<text text-anchor="middle" x="887" y="-102.3" font-family="Times,serif" font-size="14.00" fill="#000000">E_l height:{h&#45;1, h}</text>
</g>
<!-- b3&#45;&gt;e3_l -->
<g id="edge16" class="edge">
<title>b3&#45;&gt;e3_l</title>
<path fill="none" stroke="#000000" d="M836.2188,-160.5708C844.4086,-151.7698 854.496,-140.9297 863.5163,-131.2362"/>
<polygon fill="#000000" stroke="#000000" points="866.215,-133.4739 870.4651,-123.7689 861.0905,-128.7053 866.215,-133.4739"/>
</g>
<!-- e3_r -->
<g id="node19" class="node">
<title>e3_r</title>
<ellipse fill="none" stroke="#000000" cx="1064" cy="-106" rx="79.8859" ry="18"/>
<text text-anchor="middle" x="1064" y="-102.3" font-family="Times,serif" font-size="14.00" fill="#000000">E_r height:{h&#45;1, h}</text>
</g>
<!-- a3&#45;&gt;e3_r -->
<g id="edge17" class="edge">
<title>a3&#45;&gt;e3_r</title>
<path fill="none" stroke="#000000" d="M1064,-159.8314C1064,-152.131 1064,-142.9743 1064,-134.4166"/>
<polygon fill="#000000" stroke="#000000" points="1067.5001,-134.4132 1064,-124.4133 1060.5001,-134.4133 1067.5001,-134.4132"/>
</g>
<!-- c3 -->
<g id="node21" class="node">
<title>c3</title>
<ellipse fill="none" stroke="#000000" cx="1210" cy="-106" rx="48.1917" ry="18"/>
<text text-anchor="middle" x="1210" y="-102.3" font-family="Times,serif" font-size="14.00" fill="#000000">C height:h</text>
</g>
<!-- a3&#45;&gt;c3 -->
<g id="edge18" class="edge">
<title>a3&#45;&gt;c3</title>
<path fill="none" stroke="#000000" d="M1094.9628,-162.7307C1117.2794,-151.7252 1147.5469,-136.7988 1171.4338,-125.0189"/>
<polygon fill="#000000" stroke="#000000" points="1173.1548,-128.0727 1180.5755,-120.5107 1170.0587,-121.7946 1173.1548,-128.0727"/>
</g>
</g>
</svg>
