<?xml version="1.0" encoding="UTF-8" standalone="no"?>
<!DOCTYPE svg PUBLIC "-//W3C//DTD SVG 1.1//EN"
 "http://www.w3.org/Graphics/SVG/1.1/DTD/svg11.dtd">
<!-- Generated by graphviz version 2.40.1 (20161225.0304)
 -->
<!-- Title: G Pages: 1 -->
<svg width="900pt" height="292pt"
 viewBox="0.00 0.00 900.00 292.00" xmlns="http://www.w3.org/2000/svg" xmlns:xlink="http://www.w3.org/1999/xlink">
<g id="graph0" class="graph" transform="scale(1 1) rotate(0) translate(4 288)">
<title>G</title>
<polygon fill="#ffffff" stroke="transparent" points="-4,4 -4,-288 896,-288 896,4 -4,4"/>
<g id="clust1" class="cluster">
<title>cluster_0</title>
<polygon fill="none" stroke="#000000" points="8,-8 8,-276 254,-276 254,-8 8,-8"/>
</g>
<g id="clust2" class="cluster">
<title>cluster_1</title>
<polygon fill="none" stroke="#000000" points="262,-8 262,-276 506,-276 506,-8 262,-8"/>
</g>
<g id="clust3" class="cluster">
<title>cluster_2</title>
<polygon fill="none" stroke="#000000" points="514,-80 514,-276 884,-276 884,-80 514,-80"/>
</g>
<!-- a1 -->
<g id="node1" class="node">
<title>a1</title>
<ellipse fill="none" stroke="#000000" cx="136" cy="-250" rx="27" ry="18"/>
<text text-anchor="middle" x="136" y="-246.3" font-family="Times,serif" font-size="14.00" fill="#000000">A</text>
</g>
<!-- b1 -->
<g id="node2" class="node">
<title>b1</title>
<ellipse fill="none" stroke="#000000" cx="74" cy="-178" rx="57.6901" ry="18"/>
<text text-anchor="middle" x="74" y="-174.3" font-family="Times,serif" font-size="14.00" fill="#000000">B height:h+2</text>
</g>
<!-- a1&#45;&gt;b1 -->
<g id="edge1" class="edge">
<title>a1&#45;&gt;b1</title>
<path fill="none" stroke="#000000" d="M122.5469,-234.3771C114.7139,-225.2807 104.6523,-213.5962 95.7221,-203.2257"/>
<polygon fill="#000000" stroke="#000000" points="98.3469,-200.9099 89.1694,-195.6161 93.0425,-205.4776 98.3469,-200.9099"/>
</g>
<!-- c1 -->
<g id="node3" class="node">
<title>c1</title>
<ellipse fill="none" stroke="#000000" cx="198" cy="-178" rx="48.1917" ry="18"/>
<text text-anchor="middle" x="198" y="-174.3" font-family="Times,serif" font-size="14.00" fill="#000000">C height:h</text>
</g>
<!-- a1&#45;&gt;c1 -->
<g id="edge2" class="edge">
<title>a1&#45;&gt;c1</title>
<path fill="none" stroke="#000000" d="M149.4531,-234.3771C157.3428,-225.2148 167.4936,-213.4268 176.4718,-203.0005"/>
<polygon fill="#000000" stroke="#000000" points="179.179,-205.2205 183.052,-195.3589 173.8746,-200.6528 179.179,-205.2205"/>
</g>
<!-- d1 -->
<g id="node4" class="node">
<title>d1</title>
<ellipse fill="none" stroke="#000000" cx="65" cy="-106" rx="48.1917" ry="18"/>
<text text-anchor="middle" x="65" y="-102.3" font-family="Times,serif" font-size="14.00" fill="#000000">D height:h</text>
</g>
<!-- b1&#45;&gt;d1 -->
<g id="edge3" class="edge">
<title>b1&#45;&gt;d1</title>
<path fill="none" stroke="#000000" d="M71.7289,-159.8314C70.7664,-152.131 69.6218,-142.9743 68.5521,-134.4166"/>
<polygon fill="#000000" stroke="#000000" points="72.0151,-133.9019 67.3017,-124.4133 65.0691,-134.7702 72.0151,-133.9019"/>
</g>
<!-- e1 -->
<g id="node5" class="node">
<title>e1</title>
<ellipse fill="#d3d3d3" stroke="#000000" cx="188" cy="-106" rx="57.3905" ry="18"/>
<text text-anchor="middle" x="188" y="-102.3" font-family="Times,serif" font-size="14.00" fill="#000000">E height:h+1</text>
</g>
<!-- b1&#45;&gt;e1 -->
<g id="edge4" class="edge">
<title>b1&#45;&gt;e1</title>
<path fill="none" stroke="#000000" d="M99.5838,-161.8418C115.46,-151.8147 136.065,-138.8011 153.3892,-127.8595"/>
<polygon fill="#000000" stroke="#000000" points="155.5212,-130.6526 162.1071,-122.3534 151.7832,-124.7341 155.5212,-130.6526"/>
</g>
<!-- b2 -->
<g id="node9" class="node">
<title>b2</title>
<ellipse fill="none" stroke="#000000" cx="328" cy="-106" rx="57.6901" ry="18"/>
<text text-anchor="middle" x="328" y="-102.3" font-family="Times,serif" font-size="14.00" fill="#000000">B height:h+1</text>
</g>
<!-- c1&#45;&gt;b2 -->
<g id="edge19" class="edge">
<title>c1&#45;&gt;b2</title>
<path fill="none" stroke="#000000" d="M254,-147.4747C256.0003,-146.2444 258.0006,-145.014 260.0009,-143.7836"/>
<polygon fill="#000000" stroke="#000000" points="255.3172,-150.7738 262.0011,-142.5532 251.6496,-144.8114 255.3172,-150.7738"/>
</g>
<!-- e1_l -->
<g id="node6" class="node">
<title>e1_l</title>
<ellipse fill="none" stroke="#000000" cx="131" cy="-34" rx="27" ry="18"/>
<text text-anchor="middle" x="131" y="-30.3" font-family="Times,serif" font-size="14.00" fill="#000000">E_l</text>
</g>
<!-- e1&#45;&gt;e1_l -->
<g id="edge5" class="edge">
<title>e1&#45;&gt;e1_l</title>
<path fill="none" stroke="#000000" d="M173.9101,-88.2022C166.6985,-79.0928 157.8164,-67.8733 150.0076,-58.0096"/>
<polygon fill="#000000" stroke="#000000" points="152.7121,-55.787 143.7609,-50.119 147.2238,-60.1319 152.7121,-55.787"/>
</g>
<!-- e1_r -->
<g id="node7" class="node">
<title>e1_r</title>
<ellipse fill="none" stroke="#000000" cx="203" cy="-34" rx="27" ry="18"/>
<text text-anchor="middle" x="203" y="-30.3" font-family="Times,serif" font-size="14.00" fill="#000000">E_r</text>
</g>
<!-- e1&#45;&gt;e1_r -->
<g id="edge6" class="edge">
<title>e1&#45;&gt;e1_r</title>
<path fill="none" stroke="#000000" d="M191.7851,-87.8314C193.432,-79.9266 195.3985,-70.4872 197.2216,-61.7365"/>
<polygon fill="#000000" stroke="#000000" points="200.6548,-62.4171 199.268,-51.9134 193.802,-60.9894 200.6548,-62.4171"/>
</g>
<!-- a2 -->
<g id="node8" class="node">
<title>a2</title>
<ellipse fill="none" stroke="#000000" cx="450" cy="-250" rx="27" ry="18"/>
<text text-anchor="middle" x="450" y="-246.3" font-family="Times,serif" font-size="14.00" fill="#000000">A</text>
</g>
<!-- e2 -->
<g id="node11" class="node">
<title>e2</title>
<ellipse fill="none" stroke="#000000" cx="327" cy="-178" rx="57.3905" ry="18"/>
<text text-anchor="middle" x="327" y="-174.3" font-family="Times,serif" font-size="14.00" fill="#000000">E height:h+2</text>
</g>
<!-- a2&#45;&gt;e2 -->
<g id="edge8" class="edge">
<title>a2&#45;&gt;e2</title>
<path fill="none" stroke="#000000" d="M429.6891,-238.1107C411.5779,-227.509 384.6467,-211.7444 362.9078,-199.0192"/>
<polygon fill="#000000" stroke="#000000" points="364.6531,-195.9853 354.2548,-193.954 361.1168,-202.0264 364.6531,-195.9853"/>
</g>
<!-- c2 -->
<g id="node12" class="node">
<title>c2</title>
<ellipse fill="#d3d3d3" stroke="#000000" cx="450" cy="-178" rx="48.1917" ry="18"/>
<text text-anchor="middle" x="450" y="-174.3" font-family="Times,serif" font-size="14.00" fill="#000000">C height:h</text>
</g>
<!-- a2&#45;&gt;c2 -->
<g id="edge9" class="edge">
<title>a2&#45;&gt;c2</title>
<path fill="none" stroke="#000000" d="M450,-231.8314C450,-224.131 450,-214.9743 450,-206.4166"/>
<polygon fill="#000000" stroke="#000000" points="453.5001,-206.4132 450,-196.4133 446.5001,-206.4133 453.5001,-206.4132"/>
</g>
<!-- b3 -->
<g id="node16" class="node">
<title>b3</title>
<ellipse fill="none" stroke="#000000" cx="591" cy="-178" rx="57.6901" ry="18"/>
<text text-anchor="middle" x="591" y="-174.3" font-family="Times,serif" font-size="14.00" fill="#000000">B height:h+1</text>
</g>
<!-- a2&#45;&gt;b3 -->
<g id="edge20" class="edge">
<title>a2&#45;&gt;b3</title>
<path fill="none" stroke="#000000" d="M506,-221.9304C508.0001,-220.7775 510.0002,-219.6247 512.0003,-218.4718"/>
<polygon fill="#000000" stroke="#000000" points="507.0845,-225.3453 514.0005,-217.3189 503.5887,-219.2806 507.0845,-225.3453"/>
</g>
<!-- d2 -->
<g id="node10" class="node">
<title>d2</title>
<ellipse fill="none" stroke="#000000" cx="323" cy="-34" rx="48.1917" ry="18"/>
<text text-anchor="middle" x="323" y="-30.3" font-family="Times,serif" font-size="14.00" fill="#000000">D height:h</text>
</g>
<!-- b2&#45;&gt;d2 -->
<g id="edge7" class="edge">
<title>b2&#45;&gt;d2</title>
<path fill="none" stroke="#000000" d="M326.7383,-87.8314C326.2035,-80.131 325.5677,-70.9743 324.9734,-62.4166"/>
<polygon fill="#000000" stroke="#000000" points="328.4632,-62.1467 324.2787,-52.4133 321.48,-62.6317 328.4632,-62.1467"/>
</g>
<!-- e2_l -->
<g id="node13" class="node">
<title>e2_l</title>
<ellipse fill="none" stroke="#000000" cx="416" cy="-34" rx="27" ry="18"/>
<text text-anchor="middle" x="416" y="-30.3" font-family="Times,serif" font-size="14.00" fill="#000000">E_l</text>
</g>
<!-- b2&#45;&gt;e2_l -->
<g id="edge12" class="edge">
<title>b2&#45;&gt;e2_l</title>
<path fill="none" stroke="#000000" d="M348.8548,-88.937C361.4818,-78.6058 377.664,-65.3658 390.9782,-54.4724"/>
<polygon fill="#000000" stroke="#000000" points="393.3169,-57.0811 398.8402,-48.0399 388.8842,-51.6634 393.3169,-57.0811"/>
</g>
<!-- e2&#45;&gt;b2 -->
<g id="edge10" class="edge">
<title>e2&#45;&gt;b2</title>
<path fill="none" stroke="#000000" d="M327.2523,-159.8314C327.3593,-152.131 327.4865,-142.9743 327.6053,-134.4166"/>
<polygon fill="#000000" stroke="#000000" points="331.1049,-134.4609 327.7443,-124.4133 324.1056,-134.3637 331.1049,-134.4609"/>
</g>
<!-- e2_r -->
<g id="node14" class="node">
<title>e2_r</title>
<ellipse fill="none" stroke="#000000" cx="431" cy="-106" rx="27" ry="18"/>
<text text-anchor="middle" x="431" y="-102.3" font-family="Times,serif" font-size="14.00" fill="#000000">E_r</text>
</g>
<!-- e2&#45;&gt;e2_r -->
<g id="edge11" class="edge">
<title>e2&#45;&gt;e2_r</title>
<path fill="none" stroke="#000000" d="M350.8597,-161.4817C366.5455,-150.6224 387.1198,-136.3786 403.4943,-125.0424"/>
<polygon fill="#000000" stroke="#000000" points="405.8717,-127.6535 412.1014,-119.0837 401.8872,-121.8981 405.8717,-127.6535"/>
</g>
<!-- e3 -->
<g id="node15" class="node">
<title>e3</title>
<ellipse fill="#d3d3d3" stroke="#000000" cx="663" cy="-250" rx="27" ry="18"/>
<text text-anchor="middle" x="663" y="-246.3" font-family="Times,serif" font-size="14.00" fill="#000000">E</text>
</g>
<!-- e3&#45;&gt;b3 -->
<g id="edge13" class="edge">
<title>e3&#45;&gt;b3</title>
<path fill="none" stroke="#000000" d="M647.7307,-234.7307C638.3396,-225.3396 626.0936,-213.0936 615.3838,-202.3838"/>
<polygon fill="#000000" stroke="#000000" points="617.8147,-199.8649 608.2687,-195.2687 612.8649,-204.8147 617.8147,-199.8649"/>
</g>
<!-- a3 -->
<g id="node20" class="node">
<title>a3</title>
<ellipse fill="none" stroke="#000000" cx="735" cy="-178" rx="57.6901" ry="18"/>
<text text-anchor="middle" x="735" y="-174.3" font-family="Times,serif" font-size="14.00" fill="#000000">A height:h+1</text>
</g>
<!-- e3&#45;&gt;a3 -->
<g id="edge14" class="edge">
<title>e3&#45;&gt;a3</title>
<path fill="none" stroke="#000000" d="M678.2693,-234.7307C687.6604,-225.3396 699.9064,-213.0936 710.6162,-202.3838"/>
<polygon fill="#000000" stroke="#000000" points="713.1351,-204.8147 717.7313,-195.2687 708.1853,-199.8649 713.1351,-204.8147"/>
</g>
<!-- d3 -->
<g id="node17" class="node">
<title>d3</title>
<ellipse fill="none" stroke="#000000" cx="570" cy="-106" rx="48.1917" ry="18"/>
<text text-anchor="middle" x="570" y="-102.3" font-family="Times,serif" font-size="14.00" fill="#000000">D height:h</text>
</g>
<!-- b3&#45;&gt;d3 -->
<g id="edge15" class="edge">
<title>b3&#45;&gt;d3</title>
<path fill="none" stroke="#000000" d="M585.7008,-159.8314C583.3952,-151.9266 580.6421,-142.4872 578.0898,-133.7365"/>
<polygon fill="#000000" stroke="#000000" points="581.3848,-132.5334 575.2247,-123.9134 574.6648,-134.4934 581.3848,-132.5334"/>
</g>
<!-- e3_l -->
<g id="node18" class="node">
<title>e3_l</title>
<ellipse fill="none" stroke="#000000" cx="663" cy="-106" rx="27" ry="18"/>
<text text-anchor="middle" x="663" y="-102.3" font-family="Times,serif" font-size="14.00" fill="#000000">E_l</text>
</g>
<!-- b3&#45;&gt;e3_l -->
<g id="edge16" class="edge">
<title>b3&#45;&gt;e3_l</title>
<path fill="none" stroke="#000000" d="M608.4292,-160.5708C618.0742,-150.9258 630.1684,-138.8316 640.5184,-128.4816"/>
<polygon fill="#000000" stroke="#000000" points="643.0904,-130.8594 647.6866,-121.3134 638.1406,-125.9096 643.0904,-130.8594"/>
</g>
<!-- e3_r -->
<g id="node19" class="node">
<title>e3_r</title>
<ellipse fill="none" stroke="#000000" cx="735" cy="-106" rx="27" ry="18"/>
<text text-anchor="middle" x="735" y="-102.3" font-family="Times,serif" font-size="14.00" fill="#000000">E_r</text>
</g>
<!-- a3&#45;&gt;e3_r -->
<g id="edge17" class="edge">
<title>a3&#45;&gt;e3_r</title>
<path fill="none" stroke="#000000" d="M735,-159.8314C735,-152.131 735,-142.9743 735,-134.4166"/>
<polygon fill="#000000" stroke="#000000" points="738.5001,-134.4132 735,-124.4133 731.5001,-134.4133 738.5001,-134.4132"/>
</g>
<!-- c3 -->
<g id="node21" class="node">
<title>c3</title>
<ellipse fill="none" stroke="#000000" cx="828" cy="-106" rx="48.1917" ry="18"/>
<text text-anchor="middle" x="828" y="-102.3" font-family="Times,serif" font-size="14.00" fill="#000000">C height:h</text>
</g>
<!-- a3&#45;&gt;c3 -->
<g id="edge18" class="edge">
<title>a3&#45;&gt;c3</title>
<path fill="none" stroke="#000000" d="M757.0397,-160.937C769.4945,-151.2945 785.2223,-139.1182 798.704,-128.6808"/>
<polygon fill="#000000" stroke="#000000" points="800.994,-131.3342 806.7587,-122.4449 796.7088,-125.7991 800.994,-131.3342"/>
</g>
</g>
</svg>
