<?xml version="1.0" encoding="UTF-8" standalone="no"?>
<!DOCTYPE svg PUBLIC "-//W3C//DTD SVG 1.1//EN"
 "http://www.w3.org/Graphics/SVG/1.1/DTD/svg11.dtd">
<!-- Generated by graphviz version 2.40.1 (20161225.0304)
 -->
<!-- Title: %3 Pages: 1 -->
<svg width="1045pt" height="356pt"
 viewBox="0.00 0.00 1045.00 356.13" xmlns="http://www.w3.org/2000/svg" xmlns:xlink="http://www.w3.org/1999/xlink">
<g id="graph0" class="graph" transform="scale(1 1) rotate(0) translate(4 352.1308)">
<title>%3</title>
<polygon fill="#ffffff" stroke="transparent" points="-4,4 -4,-352.1308 1041,-352.1308 1041,4 -4,4"/>
<!-- a -->
<g id="node1" class="node">
<title>a</title>
<text text-anchor="middle" x="28.5" y="-280.4308" font-family="Times,serif" font-size="14.00" fill="#000000">History</text>
</g>
<!-- b -->
<g id="node2" class="node">
<title>b</title>
<text text-anchor="middle" x="136.5" y="-115.9308" font-family="Times,serif" font-size="14.00" fill="#000000">Genetic</text>
<text text-anchor="middle" x="136.5" y="-100.9308" font-family="Times,serif" font-size="14.00" fill="#000000">Ancestry</text>
</g>
<!-- a&#45;&gt;b -->
<g id="edge1" class="edge">
<title>a&#45;&gt;b</title>
<path fill="none" stroke="#000000" d="M38.4926,-265.7464C50.7566,-243.4715 72.46,-204.9701 93,-173.1308 100.2165,-161.9444 108.6153,-149.953 116.0977,-139.588"/>
<polygon fill="#000000" stroke="#000000" points="119.0633,-141.4612 122.1214,-131.3173 113.4049,-137.3401 119.0633,-141.4612"/>
</g>
<!-- d -->
<g id="node4" class="node">
<title>d</title>
<text text-anchor="middle" x="474" y="-326.4308" font-family="Times,serif" font-size="14.00" fill="#000000">Social Factors</text>
</g>
<!-- a&#45;&gt;d -->
<g id="edge7" class="edge">
<title>a&#45;&gt;d</title>
<path fill="none" stroke="#000000" d="M57.2496,-291.2084C68.3598,-293.7227 81.2146,-296.3645 93,-298.1308 207.1079,-315.2325 341.9141,-323.8634 416.7018,-327.6422"/>
<polygon fill="#000000" stroke="#000000" points="416.6873,-331.1457 426.8479,-328.1436 417.0329,-324.1542 416.6873,-331.1457"/>
</g>
<!-- e -->
<g id="node5" class="node">
<title>e</title>
<text text-anchor="middle" x="592.5" y="-196.4308" font-family="Times,serif" font-size="14.00" fill="#000000">Behaviors</text>
</g>
<!-- a&#45;&gt;e -->
<g id="edge8" class="edge">
<title>a&#45;&gt;e</title>
<path fill="none" stroke="#000000" d="M57.1982,-284.7859C134.0243,-285.7964 350.1302,-283.7463 521,-235.1308 531.6864,-232.0903 542.7119,-227.508 552.8098,-222.652"/>
<polygon fill="#000000" stroke="#000000" points="554.4153,-225.7624 561.7863,-218.1518 551.2782,-219.5047 554.4153,-225.7624"/>
</g>
<!-- c -->
<g id="node3" class="node">
<title>c</title>
<text text-anchor="middle" x="303.5" y="-196.4308" font-family="Times,serif" font-size="14.00" fill="#000000">Self or Other Identified Race</text>
</g>
<!-- b&#45;&gt;c -->
<g id="edge2" class="edge">
<title>b&#45;&gt;c</title>
<path fill="none" stroke="#000000" d="M169.0957,-129.307C195.134,-143.0277 231.8516,-162.3759 260.3311,-177.3831"/>
<polygon fill="#000000" stroke="#000000" points="258.7857,-180.5249 269.2642,-182.0904 262.049,-174.3321 258.7857,-180.5249"/>
</g>
<!-- f -->
<g id="node6" class="node">
<title>f</title>
<text text-anchor="middle" x="717.5" y="-150.4308" font-family="Times,serif" font-size="14.00" fill="#000000">Bilogical factors</text>
</g>
<!-- b&#45;&gt;f -->
<g id="edge9" class="edge">
<title>b&#45;&gt;f</title>
<path fill="none" stroke="#000000" d="M169.084,-112.8806C248.0207,-114.9378 455.6865,-121.7904 628,-140.1308 636.3179,-141.0161 645.0428,-142.1379 653.6466,-143.3596"/>
<polygon fill="#000000" stroke="#000000" points="653.2566,-146.8398 663.6593,-144.8316 654.2748,-139.9143 653.2566,-146.8398"/>
</g>
<!-- g -->
<g id="node7" class="node">
<title>g</title>
<text text-anchor="middle" x="922" y="-150.4308" font-family="Times,serif" font-size="14.00" fill="#000000">Cognitive Decline Alzheimer&#39;s Disease</text>
</g>
<!-- b&#45;&gt;g -->
<g id="edge10" class="edge">
<title>b&#45;&gt;g</title>
<path fill="none" stroke="#000000" d="M169.3488,-93.7192C228.3951,-62.4049 357.2162,-2.1308 474,-2.1308 474,-2.1308 474,-2.1308 592.5,-2.1308 672.5472,-2.1308 697.8576,6.3923 771,-26.1308 824.3286,-49.8435 873.3536,-98.424 900.3166,-128.4437"/>
<polygon fill="#000000" stroke="#000000" points="897.7608,-130.8371 907.0038,-136.0159 903.0077,-126.2035 897.7608,-130.8371"/>
</g>
<!-- c&#45;&gt;d -->
<g id="edge3" class="edge">
<title>c&#45;&gt;d</title>
<path fill="none" stroke="#000000" d="M327.2073,-218.2067C357.1526,-241.0389 408.7907,-280.4111 442.1553,-305.8504"/>
<polygon fill="#000000" stroke="#000000" points="440.1455,-308.7193 450.2198,-311.9993 444.3898,-303.1527 440.1455,-308.7193"/>
</g>
<!-- c&#45;&gt;e -->
<g id="edge11" class="edge">
<title>c&#45;&gt;e</title>
<path fill="none" stroke="#000000" d="M391.3866,-200.1308C442.6722,-200.1308 505.2592,-200.1308 546.855,-200.1308"/>
<polygon fill="#000000" stroke="#000000" points="546.9583,-203.6309 556.9583,-200.1308 546.9583,-196.6309 546.9583,-203.6309"/>
</g>
<!-- d&#45;&gt;e -->
<g id="edge4" class="edge">
<title>d&#45;&gt;e</title>
<path fill="none" stroke="#000000" d="M504.0233,-311.9618C509.9411,-307.7679 515.8932,-303.074 521,-298.1308 543.1457,-276.6945 563.3375,-247.7411 576.5723,-226.8702"/>
<polygon fill="#000000" stroke="#000000" points="579.6641,-228.526 581.9745,-218.1862 573.7204,-224.8285 579.6641,-228.526"/>
</g>
<!-- d&#45;&gt;g -->
<g id="edge12" class="edge">
<title>d&#45;&gt;g</title>
<path fill="none" stroke="#000000" d="M519.8385,-312.1228C602.6781,-279.5786 777.0025,-211.0941 866.4593,-175.9503"/>
<polygon fill="#000000" stroke="#000000" points="867.8637,-179.1591 875.8915,-172.2448 865.3041,-172.6438 867.8637,-179.1591"/>
</g>
<!-- e&#45;&gt;f -->
<g id="edge5" class="edge">
<title>e&#45;&gt;f</title>
<path fill="none" stroke="#000000" d="M628.32,-186.949C637.8203,-183.4529 648.3332,-179.5842 658.7092,-175.7658"/>
<polygon fill="#000000" stroke="#000000" points="659.9908,-179.0237 668.1668,-172.2854 657.5733,-172.4544 659.9908,-179.0237"/>
</g>
<!-- e&#45;&gt;g -->
<g id="edge13" class="edge">
<title>e&#45;&gt;g</title>
<path fill="none" stroke="#000000" d="M628.1526,-197.0855C664.2496,-193.8264 721.6349,-188.1625 771,-181.1308 785.923,-179.0051 801.6287,-176.4995 817.0414,-173.8859"/>
<polygon fill="#000000" stroke="#000000" points="817.8531,-177.2978 827.1164,-172.1557 816.6682,-170.3988 817.8531,-177.2978"/>
</g>
<!-- f&#45;&gt;g -->
<g id="edge6" class="edge">
<title>f&#45;&gt;g</title>
<path fill="none" stroke="#000000" d="M771.23,-154.1308C779.3122,-154.1308 787.9209,-154.1308 796.7719,-154.1308"/>
<polygon fill="#000000" stroke="#000000" points="796.8527,-157.6309 806.8527,-154.1308 796.8527,-150.6309 796.8527,-157.6309"/>
</g>
<!-- h -->
<g id="node8" class="node">
<title>h</title>
<text text-anchor="middle" x="136.5" y="-196.4308" font-family="Times,serif" font-size="14.00" fill="#000000">Birth Region</text>
</g>
<!-- h&#45;&gt;c -->
<g id="edge14" class="edge">
<title>h&#45;&gt;c</title>
<path fill="none" stroke="#000000" d="M180.3773,-200.1308C188.3817,-200.1308 197.0186,-200.1308 205.8737,-200.1308"/>
<polygon fill="#000000" stroke="#000000" points="205.9421,-203.6309 215.9421,-200.1308 205.9421,-196.6309 205.9421,-203.6309"/>
</g>
<!-- h&#45;&gt;d -->
<g id="edge15" class="edge">
<title>h&#45;&gt;d</title>
<path fill="none" stroke="#000000" d="M155.9968,-218.2423C171.2817,-231.5573 193.6412,-249.1719 216,-260.1308 281.1866,-292.0812 363.0342,-311.1209 416.8461,-321.0989"/>
<polygon fill="#000000" stroke="#000000" points="416.4257,-324.5796 426.8892,-322.9162 417.6722,-317.6915 416.4257,-324.5796"/>
</g>
<!-- h&#45;&gt;e -->
<g id="edge16" class="edge">
<title>h&#45;&gt;e</title>
<path fill="none" stroke="#000000" d="M180.4113,-217.8952C191.8124,-221.7126 204.2072,-225.1829 216,-227.1308 334.3211,-246.6748 475.8721,-224.48 546.9792,-210.2327"/>
<polygon fill="#000000" stroke="#000000" points="547.8521,-213.6267 556.9482,-208.1943 546.4497,-206.7687 547.8521,-213.6267"/>
</g>
<!-- h&#45;&gt;f -->
<g id="edge17" class="edge">
<title>h&#45;&gt;f</title>
<path fill="none" stroke="#000000" d="M180.0487,-182.8153C191.5634,-178.9388 204.1028,-175.3281 216,-173.1308 371.2077,-144.4651 557.8713,-146.8543 653.7581,-150.702"/>
<polygon fill="#000000" stroke="#000000" points="653.734,-154.204 663.8722,-151.127 654.028,-147.2102 653.734,-154.204"/>
</g>
<!-- h&#45;&gt;g -->
<g id="edge18" class="edge">
<title>h&#45;&gt;g</title>
<path fill="none" stroke="#000000" d="M157.864,-182.0093C173.0296,-170.3092 194.4475,-156.0281 216,-149.1308 451.1141,-73.8884 525.105,-105.3197 771,-127.1308 788.9057,-128.719 807.8668,-131.3468 826.0821,-134.3556"/>
<polygon fill="#000000" stroke="#000000" points="825.6681,-137.8353 836.1134,-136.0621 826.8421,-130.9345 825.6681,-137.8353"/>
</g>
</g>
</svg>
