<?xml version="1.0" encoding="UTF-8" standalone="no"?>
<!DOCTYPE svg PUBLIC "-//W3C//DTD SVG 1.1//EN"
 "http://www.w3.org/Graphics/SVG/1.1/DTD/svg11.dtd">
<!-- Generated by graphviz version 2.40.1 (20161225.0304)
 -->
<!-- Title: %3 Pages: 1 -->
<svg width="619pt" height="190pt"
 viewBox="0.00 0.00 619.49 190.00" xmlns="http://www.w3.org/2000/svg" xmlns:xlink="http://www.w3.org/1999/xlink">
<g id="graph0" class="graph" transform="scale(1 1) rotate(0) translate(4 186)">
<title>%3</title>
<polygon fill="#ffffff" stroke="transparent" points="-4,4 -4,-186 615.4937,-186 615.4937,4 -4,4"/>
<!-- [0] -->
<g id="node1" class="node">
<title>[0]</title>
<ellipse fill="none" stroke="#000000" cx="27" cy="-164" rx="27" ry="18"/>
<text text-anchor="middle" x="27" y="-160.3" font-family="Times,serif" font-size="14.00" fill="#000000">[0]</text>
</g>
<!-- [10B1] -->
<g id="node2" class="node">
<title>[10B1]</title>
<ellipse fill="none" stroke="#000000" cx="125.7468" cy="-164" rx="35.9954" ry="18"/>
<text text-anchor="middle" x="125.7468" y="-160.3" font-family="Times,serif" font-size="14.00" fill="#000000">[10B1]</text>
</g>
<!-- [0]&#45;&gt;[10B1] -->
<g id="edge7" class="edge">
<title>[0]&#45;&gt;[10B1]</title>
<path fill="none" stroke="#000000" d="M54.2444,-164C62.1224,-164 70.9481,-164 79.6383,-164"/>
<polygon fill="#000000" stroke="#000000" points="79.7128,-167.5001 89.7128,-164 79.7127,-160.5001 79.7128,-167.5001"/>
</g>
<!-- [37] -->
<g id="node6" class="node">
<title>[37]</title>
<ellipse fill="none" stroke="#000000" cx="125.7468" cy="-110" rx="27" ry="18"/>
<text text-anchor="middle" x="125.7468" y="-106.3" font-family="Times,serif" font-size="14.00" fill="#000000">[37]</text>
</g>
<!-- [0]&#45;&gt;[37] -->
<g id="edge1" class="edge">
<title>[0]&#45;&gt;[37]</title>
<path fill="none" stroke="#000000" d="M47.9417,-152.548C61.8191,-144.9591 80.2424,-134.8842 95.678,-126.4432"/>
<polygon fill="#000000" stroke="#000000" points="97.7409,-129.3044 104.8354,-121.4355 94.3822,-123.1627 97.7409,-129.3044"/>
</g>
<!-- [2] -->
<g id="node9" class="node">
<title>[2]</title>
<ellipse fill="none" stroke="#000000" cx="125.7468" cy="-37" rx="27" ry="18"/>
<text text-anchor="middle" x="125.7468" y="-33.3" font-family="Times,serif" font-size="14.00" fill="#000000">[2]</text>
</g>
<!-- [0]&#45;&gt;[2] -->
<g id="edge9" class="edge">
<title>[0]&#45;&gt;[2]</title>
<path fill="none" stroke="#000000" d="M39.5064,-147.9154C56.4784,-126.0874 86.9536,-86.8927 106.7579,-61.422"/>
<polygon fill="#000000" stroke="#000000" points="109.6549,-63.398 113.0301,-53.3552 104.1288,-59.1013 109.6549,-63.398"/>
</g>
<!-- [62] -->
<g id="node3" class="node">
<title>[62]</title>
<ellipse fill="none" stroke="#000000" cx="314.4937" cy="-164" rx="27" ry="18"/>
<text text-anchor="middle" x="314.4937" y="-160.3" font-family="Times,serif" font-size="14.00" fill="#000000">[62]</text>
</g>
<!-- [10B1]&#45;&gt;[62] -->
<g id="edge8" class="edge">
<title>[10B1]&#45;&gt;[62]</title>
<path fill="none" stroke="#000000" d="M161.6929,-164C194.7007,-164 243.4298,-164 276.9371,-164"/>
<polygon fill="#000000" stroke="#000000" points="277.242,-167.5001 287.242,-164 277.2419,-160.5001 277.242,-167.5001"/>
</g>
<!-- [8] -->
<g id="node4" class="node">
<title>[8]</title>
<ellipse fill="none" stroke="#000000" cx="404.4937" cy="-164" rx="27" ry="18"/>
<text text-anchor="middle" x="404.4937" y="-160.3" font-family="Times,serif" font-size="14.00" fill="#000000">[8]</text>
</g>
<!-- [62]&#45;&gt;[8] -->
<g id="edge6" class="edge">
<title>[62]&#45;&gt;[8]</title>
<path fill="none" stroke="#000000" d="M341.4966,-164C349.5213,-164 358.4602,-164 367.0245,-164"/>
<polygon fill="#000000" stroke="#000000" points="367.1987,-167.5001 377.1987,-164 367.1986,-160.5001 367.1987,-167.5001"/>
</g>
<!-- [9] -->
<g id="node5" class="node">
<title>[9]</title>
<ellipse fill="none" stroke="#000000" cx="494.4937" cy="-164" rx="27" ry="18"/>
<text text-anchor="middle" x="494.4937" y="-160.3" font-family="Times,serif" font-size="14.00" fill="#000000">[9]</text>
</g>
<!-- [8]&#45;&gt;[9] -->
<g id="edge4" class="edge">
<title>[8]&#45;&gt;[9]</title>
<path fill="none" stroke="#000000" d="M431.4966,-164C439.5213,-164 448.4602,-164 457.0245,-164"/>
<polygon fill="#000000" stroke="#000000" points="457.1987,-167.5001 467.1987,-164 457.1986,-160.5001 457.1987,-167.5001"/>
</g>
<!-- [10] -->
<g id="node8" class="node">
<title>[10]</title>
<ellipse fill="none" stroke="#000000" cx="584.4937" cy="-164" rx="27" ry="18"/>
<text text-anchor="middle" x="584.4937" y="-160.3" font-family="Times,serif" font-size="14.00" fill="#000000">[10]</text>
</g>
<!-- [9]&#45;&gt;[10] -->
<g id="edge5" class="edge">
<title>[9]&#45;&gt;[10]</title>
<path fill="none" stroke="#000000" d="M521.4966,-164C529.5213,-164 538.4602,-164 547.0245,-164"/>
<polygon fill="#000000" stroke="#000000" points="547.1987,-167.5001 557.1987,-164 547.1986,-160.5001 547.1987,-167.5001"/>
</g>
<!-- [37]&#45;&gt;[8] -->
<g id="edge3" class="edge">
<title>[37]&#45;&gt;[8]</title>
<path fill="none" stroke="#000000" d="M152.7846,-110.9584C194.1134,-112.9624 275.1846,-119.0266 341.4937,-137 352.2862,-139.9254 363.644,-144.341 373.698,-148.7588"/>
<polygon fill="#000000" stroke="#000000" points="372.3262,-151.9799 382.8768,-152.9464 375.2317,-145.6114 372.3262,-151.9799"/>
</g>
<!-- [4] -->
<g id="node7" class="node">
<title>[4]</title>
<ellipse fill="none" stroke="#000000" cx="224.4937" cy="-72" rx="27" ry="18"/>
<text text-anchor="middle" x="224.4937" y="-68.3" font-family="Times,serif" font-size="14.00" fill="#000000">[4]</text>
</g>
<!-- [37]&#45;&gt;[4] -->
<g id="edge2" class="edge">
<title>[37]&#45;&gt;[4]</title>
<path fill="none" stroke="#000000" d="M149.1484,-100.9945C161.7233,-96.1555 177.4402,-90.1072 191.2612,-84.7886"/>
<polygon fill="#000000" stroke="#000000" points="192.842,-87.9305 200.9178,-81.0725 190.328,-81.3976 192.842,-87.9305"/>
</g>
<!-- [7] -->
<g id="node11" class="node">
<title>[7]</title>
<ellipse fill="none" stroke="#000000" cx="314.4937" cy="-72" rx="27" ry="18"/>
<text text-anchor="middle" x="314.4937" y="-68.3" font-family="Times,serif" font-size="14.00" fill="#000000">[7]</text>
</g>
<!-- [4]&#45;&gt;[7] -->
<g id="edge12" class="edge">
<title>[4]&#45;&gt;[7]</title>
<path fill="none" stroke="#000000" d="M251.4966,-72C259.5213,-72 268.4602,-72 277.0245,-72"/>
<polygon fill="#000000" stroke="#000000" points="277.1987,-75.5001 287.1987,-72 277.1986,-68.5001 277.1987,-75.5001"/>
</g>
<!-- [3] -->
<g id="node10" class="node">
<title>[3]</title>
<ellipse fill="none" stroke="#000000" cx="224.4937" cy="-18" rx="27" ry="18"/>
<text text-anchor="middle" x="224.4937" y="-14.3" font-family="Times,serif" font-size="14.00" fill="#000000">[3]</text>
</g>
<!-- [2]&#45;&gt;[3] -->
<g id="edge10" class="edge">
<title>[2]&#45;&gt;[3]</title>
<path fill="none" stroke="#000000" d="M151.6914,-32.008C162.9413,-29.8434 176.3039,-27.2723 188.491,-24.9273"/>
<polygon fill="#000000" stroke="#000000" points="189.221,-28.3511 198.3795,-23.0247 187.8983,-21.4772 189.221,-28.3511"/>
</g>
<!-- [7]&#45;&gt;[8] -->
<g id="edge11" class="edge">
<title>[7]&#45;&gt;[8]</title>
<path fill="none" stroke="#000000" d="M329.3553,-87.1919C343.8162,-101.9741 365.9618,-124.6118 382.4697,-141.4867"/>
<polygon fill="#000000" stroke="#000000" points="380.115,-144.0847 389.6099,-148.7855 385.1189,-139.1896 380.115,-144.0847"/>
</g>
</g>
</svg>
