<?xml version="1.0" encoding="UTF-8" standalone="no"?>
<!DOCTYPE svg PUBLIC "-//W3C//DTD SVG 1.1//EN"
 "http://www.w3.org/Graphics/SVG/1.1/DTD/svg11.dtd">
<!-- Generated by graphviz version 2.40.1 (20161225.0304)
 -->
<!-- Title: %3 Pages: 1 -->
<svg width="1852pt" height="548pt"
 viewBox="0.00 0.00 1851.60 548.00" xmlns="http://www.w3.org/2000/svg" xmlns:xlink="http://www.w3.org/1999/xlink">
<g id="graph0" class="graph" transform="scale(1 1) rotate(0) translate(4 544)">
<title>%3</title>
<polygon fill="#ffffff" stroke="transparent" points="-4,4 -4,-544 1847.5975,-544 1847.5975,4 -4,4"/>
<!-- 3 -->
<g id="node1" class="node">
<title>3</title>
<ellipse fill="none" stroke="#ff0000" cx="27" cy="-90" rx="27" ry="18"/>
<text text-anchor="middle" x="27" y="-86.3" font-family="Times,serif" font-size="14.00" fill="#000000">3</text>
</g>
<!-- leaf -->
<g id="node2" class="node">
<title>leaf</title>
<ellipse fill="none" stroke="#000000" cx="903" cy="-18" rx="27.8951" ry="18"/>
<text text-anchor="middle" x="903" y="-14.3" font-family="Times,serif" font-size="14.00" fill="#000000">leaf</text>
</g>
<!-- 3&#45;&gt;leaf -->
<g id="edge1" class="edge">
<title>3&#45;&gt;leaf</title>
<path fill="none" stroke="#000000" d="M45.446,-76.4457C49.8088,-74.6805 54.4684,-73.1048 59,-72 214.5881,-34.0676 721.5489,-21.419 864.9757,-18.6394"/>
<polygon fill="#000000" stroke="#000000" points="865.1173,-22.1375 875.0493,-18.449 864.9849,-15.1387 865.1173,-22.1375"/>
</g>
<!-- 3&#45;&gt;leaf -->
<g id="edge2" class="edge">
<title>3&#45;&gt;leaf</title>
<path fill="none" stroke="#000000" d="M51.1078,-81.4669C59.3179,-77.8982 68.39,-74.0991 77,-72 230.0252,-34.6924 722.9427,-21.8426 864.6549,-18.7849"/>
<polygon fill="#000000" stroke="#000000" points="865.0797,-22.2768 875.0033,-18.5656 864.9313,-15.2783 865.0797,-22.2768"/>
</g>
<!-- 5 -->
<g id="node3" class="node">
<title>5</title>
<ellipse fill="none" stroke="#000000" cx="82" cy="-162" rx="27" ry="18"/>
<text text-anchor="middle" x="82" y="-158.3" font-family="Times,serif" font-size="14.00" fill="#000000">5</text>
</g>
<!-- 5&#45;&gt;3 -->
<g id="edge3" class="edge">
<title>5&#45;&gt;3</title>
<path fill="none" stroke="#000000" d="M69.5196,-145.6621C62.4876,-136.4564 53.5653,-124.7764 45.7117,-114.4953"/>
<polygon fill="#000000" stroke="#000000" points="48.2828,-112.0953 39.431,-106.2733 42.72,-116.3446 48.2828,-112.0953"/>
</g>
<!-- 5&#45;&gt;leaf -->
<g id="edge4" class="edge">
<title>5&#45;&gt;leaf</title>
<path fill="none" stroke="#000000" d="M85.4591,-143.9334C90.5573,-122.7613 102.2951,-88.481 127,-72 188.7189,-30.8264 716.2764,-20.5497 864.4418,-18.4649"/>
<polygon fill="#000000" stroke="#000000" points="864.8879,-21.9592 874.8393,-18.3234 864.7926,-14.9599 864.8879,-21.9592"/>
</g>
<!-- 7 -->
<g id="node4" class="node">
<title>7</title>
<ellipse fill="none" stroke="#000000" cx="165" cy="-234" rx="27" ry="18"/>
<text text-anchor="middle" x="165" y="-230.3" font-family="Times,serif" font-size="14.00" fill="#000000">7</text>
</g>
<!-- 7&#45;&gt;5 -->
<g id="edge5" class="edge">
<title>7&#45;&gt;5</title>
<path fill="none" stroke="#000000" d="M148.2037,-219.4297C136.2002,-209.017 119.8613,-194.8435 106.4189,-183.1827"/>
<polygon fill="#000000" stroke="#000000" points="108.3354,-180.2118 98.4881,-176.3029 103.7485,-185.4996 108.3354,-180.2118"/>
</g>
<!-- 11 -->
<g id="node5" class="node">
<title>11</title>
<ellipse fill="none" stroke="#000000" cx="165" cy="-162" rx="27" ry="18"/>
<text text-anchor="middle" x="165" y="-158.3" font-family="Times,serif" font-size="14.00" fill="#000000">11</text>
</g>
<!-- 7&#45;&gt;11 -->
<g id="edge6" class="edge">
<title>7&#45;&gt;11</title>
<path fill="none" stroke="#000000" d="M165,-215.8314C165,-208.131 165,-198.9743 165,-190.4166"/>
<polygon fill="#000000" stroke="#000000" points="168.5001,-190.4132 165,-180.4133 161.5001,-190.4133 168.5001,-190.4132"/>
</g>
<!-- 11&#45;&gt;leaf -->
<g id="edge10" class="edge">
<title>11&#45;&gt;leaf</title>
<path fill="none" stroke="#000000" d="M152.2794,-145.8997C138.2218,-126.0583 119.9295,-92.466 139,-72 164.0081,-45.162 713.7419,-24.4635 864.8594,-19.266"/>
<polygon fill="#000000" stroke="#000000" points="865.1634,-22.7578 875.0382,-18.9187 864.9247,-15.7618 865.1634,-22.7578"/>
</g>
<!-- 9 -->
<g id="node6" class="node">
<title>9</title>
<ellipse fill="none" stroke="#ff0000" cx="175" cy="-90" rx="27" ry="18"/>
<text text-anchor="middle" x="175" y="-86.3" font-family="Times,serif" font-size="14.00" fill="#000000">9</text>
</g>
<!-- 11&#45;&gt;9 -->
<g id="edge9" class="edge">
<title>11&#45;&gt;9</title>
<path fill="none" stroke="#000000" d="M167.5234,-143.8314C168.5929,-136.131 169.8647,-126.9743 171.0532,-118.4166"/>
<polygon fill="#000000" stroke="#000000" points="174.5336,-118.7997 172.4426,-108.4133 167.6001,-117.8367 174.5336,-118.7997"/>
</g>
<!-- 9&#45;&gt;leaf -->
<g id="edge7" class="edge">
<title>9&#45;&gt;leaf</title>
<path fill="none" stroke="#000000" d="M193.4597,-76.5008C197.8207,-74.7285 202.4762,-73.1362 207,-72 332.7002,-40.4298 737.7086,-23.6185 864.6752,-19.1972"/>
<polygon fill="#000000" stroke="#000000" points="864.8373,-22.6938 874.7117,-18.8536 864.5977,-15.6979 864.8373,-22.6938"/>
</g>
<!-- 9&#45;&gt;leaf -->
<g id="edge8" class="edge">
<title>9&#45;&gt;leaf</title>
<path fill="none" stroke="#000000" d="M199.1214,-81.5219C207.3342,-77.9643 216.4048,-74.1587 225,-72 348.3191,-41.0278 740.4645,-24.2607 864.8611,-19.4618"/>
<polygon fill="#000000" stroke="#000000" points="865.1834,-22.9521 875.0424,-19.0726 864.916,-15.9572 865.1834,-22.9521"/>
</g>
<!-- 14 -->
<g id="node7" class="node">
<title>14</title>
<ellipse fill="none" stroke="#000000" cx="313" cy="-306" rx="27" ry="18"/>
<text text-anchor="middle" x="313" y="-302.3" font-family="Times,serif" font-size="14.00" fill="#000000">14</text>
</g>
<!-- 14&#45;&gt;7 -->
<g id="edge11" class="edge">
<title>14&#45;&gt;7</title>
<path fill="none" stroke="#000000" d="M291.1621,-295.3762C266.0222,-283.1459 224.5399,-262.9654 196.0492,-249.105"/>
<polygon fill="#000000" stroke="#000000" points="197.451,-245.8948 186.9275,-244.6674 194.3887,-252.1895 197.451,-245.8948"/>
</g>
<!-- 18 -->
<g id="node8" class="node">
<title>18</title>
<ellipse fill="none" stroke="#000000" cx="313" cy="-234" rx="27" ry="18"/>
<text text-anchor="middle" x="313" y="-230.3" font-family="Times,serif" font-size="14.00" fill="#000000">18</text>
</g>
<!-- 14&#45;&gt;18 -->
<g id="edge12" class="edge">
<title>14&#45;&gt;18</title>
<path fill="none" stroke="#000000" d="M313,-287.8314C313,-280.131 313,-270.9743 313,-262.4166"/>
<polygon fill="#000000" stroke="#000000" points="316.5001,-262.4132 313,-252.4133 309.5001,-262.4133 316.5001,-262.4132"/>
</g>
<!-- 16 -->
<g id="node9" class="node">
<title>16</title>
<ellipse fill="none" stroke="#000000" cx="277" cy="-162" rx="27" ry="18"/>
<text text-anchor="middle" x="277" y="-158.3" font-family="Times,serif" font-size="14.00" fill="#000000">16</text>
</g>
<!-- 18&#45;&gt;16 -->
<g id="edge17" class="edge">
<title>18&#45;&gt;16</title>
<path fill="none" stroke="#000000" d="M304.2854,-216.5708C300.0403,-208.0807 294.8464,-197.6929 290.1337,-188.2674"/>
<polygon fill="#000000" stroke="#000000" points="293.237,-186.6477 285.6343,-179.2687 286.976,-189.7782 293.237,-186.6477"/>
</g>
<!-- 21 -->
<g id="node11" class="node">
<title>21</title>
<ellipse fill="none" stroke="#000000" cx="349" cy="-162" rx="27" ry="18"/>
<text text-anchor="middle" x="349" y="-158.3" font-family="Times,serif" font-size="14.00" fill="#000000">21</text>
</g>
<!-- 18&#45;&gt;21 -->
<g id="edge18" class="edge">
<title>18&#45;&gt;21</title>
<path fill="none" stroke="#000000" d="M321.7146,-216.5708C325.9597,-208.0807 331.1536,-197.6929 335.8663,-188.2674"/>
<polygon fill="#000000" stroke="#000000" points="339.024,-189.7782 340.3657,-179.2687 332.763,-186.6477 339.024,-189.7782"/>
</g>
<!-- 16&#45;&gt;leaf -->
<g id="edge13" class="edge">
<title>16&#45;&gt;leaf</title>
<path fill="none" stroke="#000000" d="M263.7763,-145.9767C249.1279,-126.2148 229.9345,-92.7046 249,-72 290.8429,-26.5598 731.1683,-19.3551 864.7768,-18.2143"/>
<polygon fill="#000000" stroke="#000000" points="864.9707,-21.713 874.9428,-18.1343 864.9156,-14.7132 864.9707,-21.713"/>
</g>
<!-- 17 -->
<g id="node10" class="node">
<title>17</title>
<ellipse fill="none" stroke="#ff0000" cx="285" cy="-90" rx="27" ry="18"/>
<text text-anchor="middle" x="285" y="-86.3" font-family="Times,serif" font-size="14.00" fill="#000000">17</text>
</g>
<!-- 16&#45;&gt;17 -->
<g id="edge14" class="edge">
<title>16&#45;&gt;17</title>
<path fill="none" stroke="#000000" d="M279.0187,-143.8314C279.8743,-136.131 280.8917,-126.9743 281.8426,-118.4166"/>
<polygon fill="#000000" stroke="#000000" points="285.3283,-118.7386 282.9541,-108.4133 278.3711,-117.9656 285.3283,-118.7386"/>
</g>
<!-- 17&#45;&gt;leaf -->
<g id="edge15" class="edge">
<title>17&#45;&gt;leaf</title>
<path fill="none" stroke="#000000" d="M303.4748,-76.5599C307.8339,-74.78 312.4848,-73.1698 317,-72 420.7874,-45.1112 751.6769,-25.5665 864.7939,-19.774"/>
<polygon fill="#000000" stroke="#000000" points="865.2351,-23.2563 875.0459,-19.2566 864.8822,-16.2652 865.2351,-23.2563"/>
</g>
<!-- 17&#45;&gt;leaf -->
<g id="edge16" class="edge">
<title>17&#45;&gt;leaf</title>
<path fill="none" stroke="#000000" d="M309.1365,-81.5809C317.3523,-78.0351 326.4211,-74.2226 335,-72 436.4286,-45.7223 754.7538,-26.4587 865.0551,-20.1902"/>
<polygon fill="#000000" stroke="#000000" points="865.2793,-23.6832 875.0658,-19.6243 864.8842,-16.6944 865.2793,-23.6832"/>
</g>
<!-- 21&#45;&gt;leaf -->
<g id="edge22" class="edge">
<title>21&#45;&gt;leaf</title>
<path fill="none" stroke="#000000" d="M345.0735,-143.9886C341.7788,-123.5239 340.2151,-90.5661 359,-72 394.9158,-36.5025 747.0996,-22.7049 864.8667,-19.0607"/>
<polygon fill="#000000" stroke="#000000" points="864.9844,-22.5588 874.874,-18.7582 864.7728,-15.562 864.9844,-22.5588"/>
</g>
<!-- 19 -->
<g id="node12" class="node">
<title>19</title>
<ellipse fill="none" stroke="#ff0000" cx="395" cy="-90" rx="27" ry="18"/>
<text text-anchor="middle" x="395" y="-86.3" font-family="Times,serif" font-size="14.00" fill="#000000">19</text>
</g>
<!-- 21&#45;&gt;19 -->
<g id="edge21" class="edge">
<title>21&#45;&gt;19</title>
<path fill="none" stroke="#000000" d="M359.6689,-145.3008C365.3586,-136.3952 372.4777,-125.2524 378.8316,-115.307"/>
<polygon fill="#000000" stroke="#000000" points="381.9544,-116.92 384.3889,-106.6087 376.0555,-113.1513 381.9544,-116.92"/>
</g>
<!-- 19&#45;&gt;leaf -->
<g id="edge19" class="edge">
<title>19&#45;&gt;leaf</title>
<path fill="none" stroke="#000000" d="M413.4977,-76.6464C417.8538,-74.8553 422.4978,-73.2189 427,-72 509.0915,-49.7742 767.0222,-27.9481 864.9459,-20.6007"/>
<polygon fill="#000000" stroke="#000000" points="865.2826,-24.0855 874.9966,-19.8559 864.7652,-17.1046 865.2826,-24.0855"/>
</g>
<!-- 19&#45;&gt;leaf -->
<g id="edge20" class="edge">
<title>19&#45;&gt;leaf</title>
<path fill="none" stroke="#000000" d="M419.1593,-81.6671C427.3798,-78.1388 436.4458,-74.316 445,-72 524.7304,-50.4135 770.3305,-29.2039 865.21,-21.2703"/>
<polygon fill="#000000" stroke="#000000" points="865.5538,-24.7539 875.2283,-20.4347 864.9719,-17.7781 865.5538,-24.7539"/>
</g>
<!-- 24 -->
<g id="node13" class="node">
<title>24</title>
<ellipse fill="none" stroke="#ff0000" cx="658" cy="-450" rx="27" ry="18"/>
<text text-anchor="middle" x="658" y="-446.3" font-family="Times,serif" font-size="14.00" fill="#000000">24</text>
</g>
<!-- 24&#45;&gt;14 -->
<g id="edge23" class="edge">
<title>24&#45;&gt;14</title>
<path fill="none" stroke="#000000" d="M635.0964,-440.4402C575.4245,-415.5337 415.0074,-348.577 345.6683,-319.6355"/>
<polygon fill="#000000" stroke="#000000" points="346.6982,-316.2728 336.1217,-315.6508 344.0019,-322.7326 346.6982,-316.2728"/>
</g>
<!-- 32 -->
<g id="node14" class="node">
<title>32</title>
<ellipse fill="none" stroke="#000000" cx="658" cy="-378" rx="27" ry="18"/>
<text text-anchor="middle" x="658" y="-374.3" font-family="Times,serif" font-size="14.00" fill="#000000">32</text>
</g>
<!-- 24&#45;&gt;32 -->
<g id="edge24" class="edge">
<title>24&#45;&gt;32</title>
<path fill="none" stroke="#000000" d="M658,-431.8314C658,-424.131 658,-414.9743 658,-406.4166"/>
<polygon fill="#000000" stroke="#000000" points="661.5001,-406.4132 658,-396.4133 654.5001,-406.4133 661.5001,-406.4132"/>
</g>
<!-- 30 -->
<g id="node17" class="node">
<title>30</title>
<ellipse fill="none" stroke="#000000" cx="577" cy="-234" rx="27" ry="18"/>
<text text-anchor="middle" x="577" y="-230.3" font-family="Times,serif" font-size="14.00" fill="#000000">30</text>
</g>
<!-- 32&#45;&gt;30 -->
<g id="edge33" class="edge">
<title>32&#45;&gt;30</title>
<path fill="none" stroke="#000000" d="M648.3902,-360.9158C634.3234,-335.9082 608.0161,-289.1397 591.5644,-259.8924"/>
<polygon fill="#000000" stroke="#000000" points="594.5505,-258.0618 586.5973,-251.0619 588.4495,-261.4936 594.5505,-258.0618"/>
</g>
<!-- 37 -->
<g id="node19" class="node">
<title>37</title>
<ellipse fill="none" stroke="#ff0000" cx="685" cy="-306" rx="27" ry="18"/>
<text text-anchor="middle" x="685" y="-302.3" font-family="Times,serif" font-size="14.00" fill="#000000">37</text>
</g>
<!-- 32&#45;&gt;37 -->
<g id="edge34" class="edge">
<title>32&#45;&gt;37</title>
<path fill="none" stroke="#000000" d="M664.6742,-360.2022C667.7476,-352.0064 671.4616,-342.1024 674.8695,-333.0145"/>
<polygon fill="#000000" stroke="#000000" points="678.1685,-334.1853 678.4026,-323.593 671.6142,-331.7274 678.1685,-334.1853"/>
</g>
<!-- 28 -->
<g id="node15" class="node">
<title>28</title>
<ellipse fill="none" stroke="#000000" cx="505" cy="-162" rx="27" ry="18"/>
<text text-anchor="middle" x="505" y="-158.3" font-family="Times,serif" font-size="14.00" fill="#000000">28</text>
</g>
<!-- 28&#45;&gt;leaf -->
<g id="edge25" class="edge">
<title>28&#45;&gt;leaf</title>
<path fill="none" stroke="#000000" d="M490.0231,-146.6339C472.9428,-127.2503 449.7264,-93.8203 469,-72 495.064,-42.4921 763.7786,-25.352 864.8465,-19.9086"/>
<polygon fill="#000000" stroke="#000000" points="865.1277,-23.3987 874.9285,-19.3746 864.7574,-16.4085 865.1277,-23.3987"/>
</g>
<!-- 29 -->
<g id="node16" class="node">
<title>29</title>
<ellipse fill="none" stroke="#ff0000" cx="505" cy="-90" rx="27" ry="18"/>
<text text-anchor="middle" x="505" y="-86.3" font-family="Times,serif" font-size="14.00" fill="#000000">29</text>
</g>
<!-- 28&#45;&gt;29 -->
<g id="edge26" class="edge">
<title>28&#45;&gt;29</title>
<path fill="none" stroke="#000000" d="M505,-143.8314C505,-136.131 505,-126.9743 505,-118.4166"/>
<polygon fill="#000000" stroke="#000000" points="508.5001,-118.4132 505,-108.4133 501.5001,-118.4133 508.5001,-118.4132"/>
</g>
<!-- 29&#45;&gt;leaf -->
<g id="edge27" class="edge">
<title>29&#45;&gt;leaf</title>
<path fill="none" stroke="#000000" d="M522.0116,-75.8354C525.2648,-74.3798 528.6683,-73.0521 532,-72 649.0459,-35.0401 795.5625,-23.1117 864.3013,-19.4827"/>
<polygon fill="#000000" stroke="#000000" points="864.8351,-22.9606 874.6492,-18.969 864.4879,-15.9692 864.8351,-22.9606"/>
</g>
<!-- 29&#45;&gt;leaf -->
<g id="edge28" class="edge">
<title>29&#45;&gt;leaf</title>
<path fill="none" stroke="#000000" d="M528.6811,-80.9997C535.5507,-77.6998 542.9368,-74.2304 550,-72 661.0653,-36.9286 798.6664,-24.396 864.5623,-20.1062"/>
<polygon fill="#000000" stroke="#000000" points="865.1207,-23.5784 874.884,-19.464 864.6859,-16.5919 865.1207,-23.5784"/>
</g>
<!-- 30&#45;&gt;28 -->
<g id="edge29" class="edge">
<title>30&#45;&gt;28</title>
<path fill="none" stroke="#000000" d="M561.7307,-218.7307C551.803,-208.803 538.6847,-195.6847 527.5637,-184.5637"/>
<polygon fill="#000000" stroke="#000000" points="529.7933,-181.8436 520.2473,-177.2473 524.8436,-186.7933 529.7933,-181.8436"/>
</g>
<!-- 31 -->
<g id="node18" class="node">
<title>31</title>
<ellipse fill="none" stroke="#000000" cx="577" cy="-90" rx="27" ry="18"/>
<text text-anchor="middle" x="577" y="-86.3" font-family="Times,serif" font-size="14.00" fill="#000000">31</text>
</g>
<!-- 30&#45;&gt;31 -->
<g id="edge30" class="edge">
<title>30&#45;&gt;31</title>
<path fill="none" stroke="#000000" d="M577,-215.7623C577,-191.201 577,-147.2474 577,-118.3541"/>
<polygon fill="#000000" stroke="#000000" points="580.5001,-118.0896 577,-108.0896 573.5001,-118.0897 580.5001,-118.0896"/>
</g>
<!-- 31&#45;&gt;leaf -->
<g id="edge31" class="edge">
<title>31&#45;&gt;leaf</title>
<path fill="none" stroke="#000000" d="M594.0494,-75.9516C597.2961,-74.4761 600.6878,-73.1119 604,-72 694.4966,-41.6209 806.9542,-26.8525 864.8891,-21.0676"/>
<polygon fill="#000000" stroke="#000000" points="865.4356,-24.5313 875.0547,-20.0903 864.7656,-17.5634 865.4356,-24.5313"/>
</g>
<!-- 31&#45;&gt;leaf -->
<g id="edge32" class="edge">
<title>31&#45;&gt;leaf</title>
<path fill="none" stroke="#000000" d="M600.7237,-81.1304C607.5991,-77.8484 614.9781,-74.3572 622,-72 706.6075,-43.5978 810.4108,-28.8407 865.229,-22.3129"/>
<polygon fill="#000000" stroke="#000000" points="865.6712,-25.7852 875.1992,-21.1519 864.8615,-18.8322 865.6712,-25.7852"/>
</g>
<!-- 35 -->
<g id="node21" class="node">
<title>35</title>
<ellipse fill="none" stroke="#000000" cx="685" cy="-162" rx="27" ry="18"/>
<text text-anchor="middle" x="685" y="-158.3" font-family="Times,serif" font-size="14.00" fill="#000000">35</text>
</g>
<!-- 37&#45;&gt;35 -->
<g id="edge41" class="edge">
<title>37&#45;&gt;35</title>
<path fill="none" stroke="#000000" d="M685,-287.7623C685,-263.201 685,-219.2474 685,-190.3541"/>
<polygon fill="#000000" stroke="#000000" points="688.5001,-190.0896 685,-180.0896 681.5001,-190.0897 688.5001,-190.0896"/>
</g>
<!-- 41 -->
<g id="node23" class="node">
<title>41</title>
<ellipse fill="none" stroke="#000000" cx="804" cy="-234" rx="27" ry="18"/>
<text text-anchor="middle" x="804" y="-230.3" font-family="Times,serif" font-size="14.00" fill="#000000">41</text>
</g>
<!-- 37&#45;&gt;41 -->
<g id="edge42" class="edge">
<title>37&#45;&gt;41</title>
<path fill="none" stroke="#000000" d="M705.1867,-293.7862C724.334,-282.2013 753.3127,-264.6679 774.9437,-251.5803"/>
<polygon fill="#000000" stroke="#000000" points="776.9702,-254.445 783.7142,-246.2737 773.3466,-248.4559 776.9702,-254.445"/>
</g>
<!-- 34 -->
<g id="node20" class="node">
<title>34</title>
<ellipse fill="none" stroke="#000000" cx="649" cy="-90" rx="27" ry="18"/>
<text text-anchor="middle" x="649" y="-86.3" font-family="Times,serif" font-size="14.00" fill="#000000">34</text>
</g>
<!-- 34&#45;&gt;leaf -->
<g id="edge35" class="edge">
<title>34&#45;&gt;leaf</title>
<path fill="none" stroke="#000000" d="M666.5045,-75.9591C669.6205,-74.5183 672.853,-73.1603 676,-72 740.486,-48.2242 819.5228,-31.5885 865.4374,-23.5325"/>
<polygon fill="#000000" stroke="#000000" points="866.2734,-26.9405 875.5414,-21.8068 865.0949,-20.0404 866.2734,-26.9405"/>
</g>
<!-- 34&#45;&gt;leaf -->
<g id="edge36" class="edge">
<title>34&#45;&gt;leaf</title>
<path fill="none" stroke="#000000" d="M672.7981,-81.3416C679.6837,-78.0888 687.0503,-74.5623 694,-72 752.9759,-50.2558 824.1223,-34.4836 866.4772,-25.7846"/>
<polygon fill="#000000" stroke="#000000" points="867.2421,-29.2008 876.3438,-23.7777 865.8468,-22.3412 867.2421,-29.2008"/>
</g>
<!-- 35&#45;&gt;34 -->
<g id="edge37" class="edge">
<title>35&#45;&gt;34</title>
<path fill="none" stroke="#000000" d="M676.2854,-144.5708C672.0403,-136.0807 666.8464,-125.6929 662.1337,-116.2674"/>
<polygon fill="#000000" stroke="#000000" points="665.237,-114.6477 657.6343,-107.2687 658.976,-117.7782 665.237,-114.6477"/>
</g>
<!-- 36 -->
<g id="node22" class="node">
<title>36</title>
<ellipse fill="none" stroke="#000000" cx="721" cy="-90" rx="27" ry="18"/>
<text text-anchor="middle" x="721" y="-86.3" font-family="Times,serif" font-size="14.00" fill="#000000">36</text>
</g>
<!-- 35&#45;&gt;36 -->
<g id="edge38" class="edge">
<title>35&#45;&gt;36</title>
<path fill="none" stroke="#000000" d="M693.7146,-144.5708C697.9597,-136.0807 703.1536,-125.6929 707.8663,-116.2674"/>
<polygon fill="#000000" stroke="#000000" points="711.024,-117.7782 712.3657,-107.2687 704.763,-114.6477 711.024,-117.7782"/>
</g>
<!-- 36&#45;&gt;leaf -->
<g id="edge39" class="edge">
<title>36&#45;&gt;leaf</title>
<path fill="none" stroke="#000000" d="M740.6933,-77.2356C744.746,-75.4456 748.9731,-73.654 753,-72 791.5591,-56.1628 836.6213,-39.1642 867.3858,-28.5583"/>
<polygon fill="#000000" stroke="#000000" points="868.8939,-31.7427 877.2409,-25.2174 866.6465,-25.1133 868.8939,-31.7427"/>
</g>
<!-- 36&#45;&gt;leaf -->
<g id="edge40" class="edge">
<title>36&#45;&gt;leaf</title>
<path fill="none" stroke="#000000" d="M745.9252,-82.4612C754.0918,-79.1667 762.9462,-75.3079 771,-72 805.1207,-57.9858 844.3336,-43.0621 871.2361,-32.4633"/>
<polygon fill="#000000" stroke="#000000" points="872.5545,-35.7057 880.5583,-28.7638 869.9724,-29.1993 872.5545,-35.7057"/>
</g>
<!-- 40 -->
<g id="node25" class="node">
<title>40</title>
<ellipse fill="none" stroke="#000000" cx="804" cy="-162" rx="27" ry="18"/>
<text text-anchor="middle" x="804" y="-158.3" font-family="Times,serif" font-size="14.00" fill="#000000">40</text>
</g>
<!-- 41&#45;&gt;40 -->
<g id="edge47" class="edge">
<title>41&#45;&gt;40</title>
<path fill="none" stroke="#000000" d="M804,-215.8314C804,-208.131 804,-198.9743 804,-190.4166"/>
<polygon fill="#000000" stroke="#000000" points="807.5001,-190.4132 804,-180.4133 800.5001,-190.4133 807.5001,-190.4132"/>
</g>
<!-- 46 -->
<g id="node26" class="node">
<title>46</title>
<ellipse fill="none" stroke="#000000" cx="903" cy="-90" rx="27" ry="18"/>
<text text-anchor="middle" x="903" y="-86.3" font-family="Times,serif" font-size="14.00" fill="#000000">46</text>
</g>
<!-- 41&#45;&gt;46 -->
<g id="edge48" class="edge">
<title>41&#45;&gt;46</title>
<path fill="none" stroke="#000000" d="M815.3566,-217.4814C832.5709,-192.4423 865.4017,-144.6885 885.6293,-115.2665"/>
<polygon fill="#000000" stroke="#000000" points="888.6898,-116.9928 891.4709,-106.7695 882.9215,-113.0271 888.6898,-116.9928"/>
</g>
<!-- 38 -->
<g id="node24" class="node">
<title>38</title>
<ellipse fill="none" stroke="#ff0000" cx="831" cy="-90" rx="27" ry="18"/>
<text text-anchor="middle" x="831" y="-86.3" font-family="Times,serif" font-size="14.00" fill="#000000">38</text>
</g>
<!-- 38&#45;&gt;leaf -->
<g id="edge43" class="edge">
<title>38&#45;&gt;leaf</title>
<path fill="none" stroke="#000000" d="M841.8984,-73.3008C851.1886,-62.8731 864.5686,-49.378 876.5244,-38.3295"/>
<polygon fill="#000000" stroke="#000000" points="879.0373,-40.7764 884.1181,-31.4793 874.3485,-35.5787 879.0373,-40.7764"/>
</g>
<!-- 38&#45;&gt;leaf -->
<g id="edge44" class="edge">
<title>38&#45;&gt;leaf</title>
<path fill="none" stroke="#000000" d="M849.57,-76.7941C860.5747,-67.1624 874.2572,-53.8327 885.1224,-42.3002"/>
<polygon fill="#000000" stroke="#000000" points="887.9421,-44.4043 892.1268,-34.6709 882.7856,-39.6702 887.9421,-44.4043"/>
</g>
<!-- 40&#45;&gt;leaf -->
<g id="edge46" class="edge">
<title>40&#45;&gt;leaf</title>
<path fill="none" stroke="#000000" d="M796.3637,-144.6721C789.1485,-125.4334 781.2958,-94.1738 795,-72 810.4014,-47.08 841.1708,-33.2755 865.9405,-25.8768"/>
<polygon fill="#000000" stroke="#000000" points="867.0668,-29.197 875.7811,-23.1711 865.211,-22.4475 867.0668,-29.197"/>
</g>
<!-- 40&#45;&gt;38 -->
<g id="edge45" class="edge">
<title>40&#45;&gt;38</title>
<path fill="none" stroke="#000000" d="M810.6742,-144.2022C813.7476,-136.0064 817.4616,-126.1024 820.8695,-117.0145"/>
<polygon fill="#000000" stroke="#000000" points="824.1685,-118.1853 824.4026,-107.593 817.6142,-115.7274 824.1685,-118.1853"/>
</g>
<!-- 46&#45;&gt;leaf -->
<g id="edge49" class="edge">
<title>46&#45;&gt;leaf</title>
<path fill="none" stroke="#000000" d="M897.0843,-72.2022C896.2945,-64.3271 896.0655,-54.875 896.3971,-46.0852"/>
<polygon fill="#000000" stroke="#000000" points="899.9069,-46.0532 897.0798,-35.8425 892.9224,-45.5876 899.9069,-46.0532"/>
</g>
<!-- 46&#45;&gt;leaf -->
<g id="edge50" class="edge">
<title>46&#45;&gt;leaf</title>
<path fill="none" stroke="#000000" d="M908.9157,-72.2022C909.7055,-64.3271 909.9345,-54.875 909.6029,-46.0852"/>
<polygon fill="#000000" stroke="#000000" points="913.0776,-45.5876 908.9202,-35.8425 906.0931,-46.0532 913.0776,-45.5876"/>
</g>
<!-- 51 -->
<g id="node27" class="node">
<title>51</title>
<ellipse fill="none" stroke="#000000" cx="944" cy="-522" rx="27" ry="18"/>
<text text-anchor="middle" x="944" y="-518.3" font-family="Times,serif" font-size="14.00" fill="#000000">51</text>
</g>
<!-- 51&#45;&gt;24 -->
<g id="edge51" class="edge">
<title>51&#45;&gt;24</title>
<path fill="none" stroke="#000000" d="M918.6194,-515.6105C867.4201,-502.7211 751.6777,-473.5832 693.2095,-458.8639"/>
<polygon fill="#000000" stroke="#000000" points="693.8756,-455.4225 683.3237,-456.3752 692.1667,-462.2107 693.8756,-455.4225"/>
</g>
<!-- 74 -->
<g id="node28" class="node">
<title>74</title>
<ellipse fill="none" stroke="#ff0000" cx="1141" cy="-450" rx="27" ry="18"/>
<text text-anchor="middle" x="1141" y="-446.3" font-family="Times,serif" font-size="14.00" fill="#000000">74</text>
</g>
<!-- 51&#45;&gt;74 -->
<g id="edge52" class="edge">
<title>51&#45;&gt;74</title>
<path fill="none" stroke="#000000" d="M967.7628,-513.3151C1002.6689,-500.5575 1067.9525,-476.6976 1107.6466,-462.1901"/>
<polygon fill="#000000" stroke="#000000" points="1108.962,-465.4358 1117.1529,-458.7157 1106.5591,-458.8612 1108.962,-465.4358"/>
</g>
<!-- 64 -->
<g id="node34" class="node">
<title>64</title>
<ellipse fill="none" stroke="#000000" cx="1141" cy="-306" rx="27" ry="18"/>
<text text-anchor="middle" x="1141" y="-302.3" font-family="Times,serif" font-size="14.00" fill="#000000">64</text>
</g>
<!-- 74&#45;&gt;64 -->
<g id="edge71" class="edge">
<title>74&#45;&gt;64</title>
<path fill="none" stroke="#000000" d="M1141,-431.7623C1141,-407.201 1141,-363.2474 1141,-334.3541"/>
<polygon fill="#000000" stroke="#000000" points="1144.5001,-334.0896 1141,-324.0896 1137.5001,-334.0897 1144.5001,-334.0896"/>
</g>
<!-- 84 -->
<g id="node38" class="node">
<title>84</title>
<ellipse fill="none" stroke="#000000" cx="1405" cy="-378" rx="27" ry="18"/>
<text text-anchor="middle" x="1405" y="-374.3" font-family="Times,serif" font-size="14.00" fill="#000000">84</text>
</g>
<!-- 74&#45;&gt;84 -->
<g id="edge72" class="edge">
<title>74&#45;&gt;84</title>
<path fill="none" stroke="#000000" d="M1166.3134,-443.0963C1213.7194,-430.1674 1315.9588,-402.284 1369.9525,-387.5584"/>
<polygon fill="#000000" stroke="#000000" points="1371.0365,-390.8907 1379.7632,-384.8828 1369.1946,-384.1373 1371.0365,-390.8907"/>
</g>
<!-- 52 -->
<g id="node29" class="node">
<title>52</title>
<ellipse fill="none" stroke="#ff0000" cx="1013" cy="-90" rx="27" ry="18"/>
<text text-anchor="middle" x="1013" y="-86.3" font-family="Times,serif" font-size="14.00" fill="#000000">52</text>
</g>
<!-- 52&#45;&gt;leaf -->
<g id="edge53" class="edge">
<title>52&#45;&gt;leaf</title>
<path fill="none" stroke="#000000" d="M991.284,-79.0647C972.9701,-68.2845 947.0267,-51.5514 927.9072,-38.3256"/>
<polygon fill="#000000" stroke="#000000" points="929.8497,-35.4129 919.6547,-32.5297 925.8265,-41.1412 929.8497,-35.4129"/>
</g>
<!-- 52&#45;&gt;leaf -->
<g id="edge54" class="edge">
<title>52&#45;&gt;leaf</title>
<path fill="none" stroke="#000000" d="M996.2885,-75.4297C979.6576,-63.5461 954.0919,-46.7641 933.8381,-34.409"/>
<polygon fill="#000000" stroke="#000000" points="935.6162,-31.3942 925.2416,-29.2451 932.0116,-37.3948 935.6162,-31.3942"/>
</g>
<!-- 55 -->
<g id="node30" class="node">
<title>55</title>
<ellipse fill="none" stroke="#000000" cx="1013" cy="-162" rx="27" ry="18"/>
<text text-anchor="middle" x="1013" y="-158.3" font-family="Times,serif" font-size="14.00" fill="#000000">55</text>
</g>
<!-- 55&#45;&gt;leaf -->
<g id="edge56" class="edge">
<title>55&#45;&gt;leaf</title>
<path fill="none" stroke="#000000" d="M1000.5954,-145.7613C981.3671,-120.5897 944.242,-71.9895 921.7347,-42.5254"/>
<polygon fill="#000000" stroke="#000000" points="924.3798,-40.2224 915.528,-34.4003 918.8171,-44.4717 924.3798,-40.2224"/>
</g>
<!-- 55&#45;&gt;52 -->
<g id="edge55" class="edge">
<title>55&#45;&gt;52</title>
<path fill="none" stroke="#000000" d="M1013,-143.8314C1013,-136.131 1013,-126.9743 1013,-118.4166"/>
<polygon fill="#000000" stroke="#000000" points="1016.5001,-118.4132 1013,-108.4133 1009.5001,-118.4133 1016.5001,-118.4132"/>
</g>
<!-- 57 -->
<g id="node31" class="node">
<title>57</title>
<ellipse fill="none" stroke="#000000" cx="1104" cy="-234" rx="27" ry="18"/>
<text text-anchor="middle" x="1104" y="-230.3" font-family="Times,serif" font-size="14.00" fill="#000000">57</text>
</g>
<!-- 57&#45;&gt;55 -->
<g id="edge57" class="edge">
<title>57&#45;&gt;55</title>
<path fill="none" stroke="#000000" d="M1086.4543,-220.1177C1072.8581,-209.3602 1053.8247,-194.3009 1038.5396,-182.2072"/>
<polygon fill="#000000" stroke="#000000" points="1040.5058,-179.2998 1030.4919,-175.8397 1036.1624,-184.7893 1040.5058,-179.2998"/>
</g>
<!-- 60 -->
<g id="node32" class="node">
<title>60</title>
<ellipse fill="none" stroke="#000000" cx="1104" cy="-162" rx="27" ry="18"/>
<text text-anchor="middle" x="1104" y="-158.3" font-family="Times,serif" font-size="14.00" fill="#000000">60</text>
</g>
<!-- 57&#45;&gt;60 -->
<g id="edge58" class="edge">
<title>57&#45;&gt;60</title>
<path fill="none" stroke="#000000" d="M1104,-215.8314C1104,-208.131 1104,-198.9743 1104,-190.4166"/>
<polygon fill="#000000" stroke="#000000" points="1107.5001,-190.4132 1104,-180.4133 1100.5001,-190.4133 1107.5001,-190.4132"/>
</g>
<!-- 60&#45;&gt;leaf -->
<g id="edge59" class="edge">
<title>60&#45;&gt;leaf</title>
<path fill="none" stroke="#000000" d="M1097.3939,-144.3341C1089.0218,-124.194 1072.7605,-91.5407 1049,-72 1017.2633,-45.8996 971.7239,-31.7542 939.9725,-24.5699"/>
<polygon fill="#000000" stroke="#000000" points="940.6939,-21.1452 930.183,-22.4756 939.2295,-27.9903 940.6939,-21.1452"/>
</g>
<!-- 62 -->
<g id="node33" class="node">
<title>62</title>
<ellipse fill="none" stroke="#ff0000" cx="1123" cy="-90" rx="27" ry="18"/>
<text text-anchor="middle" x="1123" y="-86.3" font-family="Times,serif" font-size="14.00" fill="#000000">62</text>
</g>
<!-- 60&#45;&gt;62 -->
<g id="edge60" class="edge">
<title>60&#45;&gt;62</title>
<path fill="none" stroke="#000000" d="M1108.6966,-144.2022C1110.7976,-136.2406 1113.324,-126.6671 1115.665,-117.7957"/>
<polygon fill="#000000" stroke="#000000" points="1119.1241,-118.4046 1118.2916,-107.8425 1112.3558,-116.6185 1119.1241,-118.4046"/>
</g>
<!-- 62&#45;&gt;leaf -->
<g id="edge61" class="edge">
<title>62&#45;&gt;leaf</title>
<path fill="none" stroke="#000000" d="M1098.1839,-82.1811C1090.0376,-78.8347 1081.1688,-75.0128 1073,-72 1026.7105,-54.9275 972.2871,-39.092 937.5903,-29.0429"/>
<polygon fill="#000000" stroke="#000000" points="938.4978,-25.662 927.9188,-26.2406 936.5496,-32.3854 938.4978,-25.662"/>
</g>
<!-- 62&#45;&gt;leaf -->
<g id="edge62" class="edge">
<title>62&#45;&gt;leaf</title>
<path fill="none" stroke="#000000" d="M1103.8471,-77.1532C1099.6483,-75.3374 1095.2303,-73.5602 1091,-72 1039.5606,-53.0281 978.0768,-35.5837 939.6108,-25.9101"/>
<polygon fill="#000000" stroke="#000000" points="940.4209,-22.5051 929.8736,-23.5073 938.7438,-29.3012 940.4209,-22.5051"/>
</g>
<!-- 64&#45;&gt;57 -->
<g id="edge63" class="edge">
<title>64&#45;&gt;57</title>
<path fill="none" stroke="#000000" d="M1132.2315,-288.937C1127.8721,-280.4537 1122.5047,-270.0092 1117.6247,-260.513"/>
<polygon fill="#000000" stroke="#000000" points="1120.6463,-258.7352 1112.9626,-251.4407 1114.4203,-261.9348 1120.6463,-258.7352"/>
</g>
<!-- 69 -->
<g id="node35" class="node">
<title>69</title>
<ellipse fill="none" stroke="#000000" cx="1195" cy="-162" rx="27" ry="18"/>
<text text-anchor="middle" x="1195" y="-158.3" font-family="Times,serif" font-size="14.00" fill="#000000">69</text>
</g>
<!-- 64&#45;&gt;69 -->
<g id="edge64" class="edge">
<title>64&#45;&gt;69</title>
<path fill="none" stroke="#000000" d="M1147.6215,-288.3428C1156.8924,-263.6202 1173.8272,-218.4608 1184.7385,-189.3639"/>
<polygon fill="#000000" stroke="#000000" points="1188.0902,-190.3939 1188.3244,-179.8017 1181.5359,-187.936 1188.0902,-190.3939"/>
</g>
<!-- 68 -->
<g id="node36" class="node">
<title>68</title>
<ellipse fill="none" stroke="#000000" cx="1195" cy="-90" rx="27" ry="18"/>
<text text-anchor="middle" x="1195" y="-86.3" font-family="Times,serif" font-size="14.00" fill="#000000">68</text>
</g>
<!-- 69&#45;&gt;68 -->
<g id="edge67" class="edge">
<title>69&#45;&gt;68</title>
<path fill="none" stroke="#000000" d="M1195,-143.8314C1195,-136.131 1195,-126.9743 1195,-118.4166"/>
<polygon fill="#000000" stroke="#000000" points="1198.5001,-118.4132 1195,-108.4133 1191.5001,-118.4133 1198.5001,-118.4132"/>
</g>
<!-- 70 -->
<g id="node37" class="node">
<title>70</title>
<ellipse fill="none" stroke="#000000" cx="1267" cy="-90" rx="27" ry="18"/>
<text text-anchor="middle" x="1267" y="-86.3" font-family="Times,serif" font-size="14.00" fill="#000000">70</text>
</g>
<!-- 69&#45;&gt;70 -->
<g id="edge68" class="edge">
<title>69&#45;&gt;70</title>
<path fill="none" stroke="#000000" d="M1210.2693,-146.7307C1220.197,-136.803 1233.3153,-123.6847 1244.4363,-112.5637"/>
<polygon fill="#000000" stroke="#000000" points="1247.1564,-114.7933 1251.7527,-105.2473 1242.2067,-109.8436 1247.1564,-114.7933"/>
</g>
<!-- 68&#45;&gt;leaf -->
<g id="edge65" class="edge">
<title>68&#45;&gt;leaf</title>
<path fill="none" stroke="#000000" d="M1171.2469,-81.2162C1164.3675,-77.9461 1156.9933,-74.4406 1150,-72 1077.6827,-46.7625 989.5617,-31.3431 940.4063,-23.7576"/>
<polygon fill="#000000" stroke="#000000" points="940.649,-20.2544 930.2369,-22.2135 939.5982,-27.1751 940.649,-20.2544"/>
</g>
<!-- 68&#45;&gt;leaf -->
<g id="edge66" class="edge">
<title>68&#45;&gt;leaf</title>
<path fill="none" stroke="#000000" d="M1177.9244,-76.028C1174.6822,-74.5394 1171.2987,-73.1512 1168,-72 1089.9631,-44.7664 993.5236,-28.9654 941.0372,-22.1038"/>
<polygon fill="#000000" stroke="#000000" points="941.196,-18.596 930.8355,-20.8121 940.3166,-25.5406 941.196,-18.596"/>
</g>
<!-- 70&#45;&gt;leaf -->
<g id="edge69" class="edge">
<title>70&#45;&gt;leaf</title>
<path fill="none" stroke="#000000" d="M1243.3013,-81.0546C1236.4293,-77.7621 1229.0462,-74.2836 1222,-72 1123.5986,-40.109 1002.1999,-26.4036 941.3333,-21.0518"/>
<polygon fill="#000000" stroke="#000000" points="941.3033,-17.5367 931.0425,-20.1761 940.7096,-24.5115 941.3033,-17.5367"/>
</g>
<!-- 70&#45;&gt;leaf -->
<g id="edge70" class="edge">
<title>70&#45;&gt;leaf</title>
<path fill="none" stroke="#000000" d="M1249.9728,-75.8842C1246.7223,-74.4202 1243.3237,-73.0772 1240,-72 1135.4706,-38.123 1004.9904,-24.7672 941.2807,-20.1468"/>
<polygon fill="#000000" stroke="#000000" points="941.4952,-16.6534 931.2774,-19.4543 941.0117,-23.6367 941.4952,-16.6534"/>
</g>
<!-- 79 -->
<g id="node41" class="node">
<title>79</title>
<ellipse fill="none" stroke="#000000" cx="1405" cy="-234" rx="27" ry="18"/>
<text text-anchor="middle" x="1405" y="-230.3" font-family="Times,serif" font-size="14.00" fill="#000000">79</text>
</g>
<!-- 84&#45;&gt;79 -->
<g id="edge81" class="edge">
<title>84&#45;&gt;79</title>
<path fill="none" stroke="#000000" d="M1405,-359.7623C1405,-335.201 1405,-291.2474 1405,-262.3541"/>
<polygon fill="#000000" stroke="#000000" points="1408.5001,-262.0896 1405,-252.0896 1401.5001,-262.0897 1408.5001,-262.0896"/>
</g>
<!-- 97 -->
<g id="node43" class="node">
<title>97</title>
<ellipse fill="none" stroke="#ff0000" cx="1586" cy="-306" rx="27" ry="18"/>
<text text-anchor="middle" x="1586" y="-302.3" font-family="Times,serif" font-size="14.00" fill="#000000">97</text>
</g>
<!-- 84&#45;&gt;97 -->
<g id="edge82" class="edge">
<title>84&#45;&gt;97</title>
<path fill="none" stroke="#000000" d="M1428.292,-368.7347C1460.0597,-356.0978 1517.1385,-333.3924 1553.2168,-319.0408"/>
<polygon fill="#000000" stroke="#000000" points="1554.7992,-322.1782 1562.7974,-315.2298 1552.2118,-315.6739 1554.7992,-322.1782"/>
</g>
<!-- 75 -->
<g id="node39" class="node">
<title>75</title>
<ellipse fill="none" stroke="#ff0000" cx="1377" cy="-90" rx="27" ry="18"/>
<text text-anchor="middle" x="1377" y="-86.3" font-family="Times,serif" font-size="14.00" fill="#000000">75</text>
</g>
<!-- 75&#45;&gt;leaf -->
<g id="edge73" class="edge">
<title>75&#45;&gt;leaf</title>
<path fill="none" stroke="#000000" d="M1352.8311,-81.7024C1344.6086,-78.1812 1335.5437,-74.3542 1327,-72 1188.1271,-33.7332 1016.6672,-22.5211 941.3341,-19.2849"/>
<polygon fill="#000000" stroke="#000000" points="941.0658,-15.7712 930.9322,-18.863 940.7821,-22.7655 941.0658,-15.7712"/>
</g>
<!-- 75&#45;&gt;leaf -->
<g id="edge74" class="edge">
<title>75&#45;&gt;leaf</title>
<path fill="none" stroke="#000000" d="M1358.4927,-76.6818C1354.1378,-74.8861 1349.4967,-73.2391 1345,-72 1199.9135,-32.021 1019.2587,-21.5719 941.3998,-18.8967"/>
<polygon fill="#000000" stroke="#000000" points="941.2168,-15.3892 931.1103,-18.5685 940.9936,-22.3856 941.2168,-15.3892"/>
</g>
<!-- 77 -->
<g id="node40" class="node">
<title>77</title>
<ellipse fill="none" stroke="#000000" cx="1377" cy="-162" rx="27" ry="18"/>
<text text-anchor="middle" x="1377" y="-158.3" font-family="Times,serif" font-size="14.00" fill="#000000">77</text>
</g>
<!-- 77&#45;&gt;leaf -->
<g id="edge76" class="edge">
<title>77&#45;&gt;leaf</title>
<path fill="none" stroke="#000000" d="M1365.5113,-145.2566C1349.0268,-121.7567 1318.9029,-80.8625 1303,-72 1241.3126,-37.6224 1028.8061,-23.9039 941.2089,-19.6237"/>
<polygon fill="#000000" stroke="#000000" points="941.3186,-16.125 931.1641,-19.1477 940.9872,-23.1172 941.3186,-16.125"/>
</g>
<!-- 77&#45;&gt;75 -->
<g id="edge75" class="edge">
<title>77&#45;&gt;75</title>
<path fill="none" stroke="#000000" d="M1377,-143.8314C1377,-136.131 1377,-126.9743 1377,-118.4166"/>
<polygon fill="#000000" stroke="#000000" points="1380.5001,-118.4132 1377,-108.4133 1373.5001,-118.4133 1380.5001,-118.4132"/>
</g>
<!-- 79&#45;&gt;77 -->
<g id="edge77" class="edge">
<title>79&#45;&gt;77</title>
<path fill="none" stroke="#000000" d="M1398.222,-216.5708C1395.0128,-208.3187 1391.1065,-198.2738 1387.5242,-189.0623"/>
<polygon fill="#000000" stroke="#000000" points="1390.6992,-187.5697 1383.8126,-179.5182 1384.1752,-190.1069 1390.6992,-187.5697"/>
</g>
<!-- 82 -->
<g id="node42" class="node">
<title>82</title>
<ellipse fill="none" stroke="#000000" cx="1449" cy="-90" rx="27" ry="18"/>
<text text-anchor="middle" x="1449" y="-86.3" font-family="Times,serif" font-size="14.00" fill="#000000">82</text>
</g>
<!-- 79&#45;&gt;82 -->
<g id="edge78" class="edge">
<title>79&#45;&gt;82</title>
<path fill="none" stroke="#000000" d="M1410.3953,-216.3428C1417.9164,-191.7281 1431.6277,-146.8549 1440.5221,-117.746"/>
<polygon fill="#000000" stroke="#000000" points="1443.9856,-118.388 1443.5606,-107.8017 1437.2911,-116.3424 1443.9856,-118.388"/>
</g>
<!-- 82&#45;&gt;leaf -->
<g id="edge79" class="edge">
<title>82&#45;&gt;leaf</title>
<path fill="none" stroke="#000000" d="M1425.3661,-80.8443C1418.5031,-77.5229 1411.1091,-74.0795 1404,-72 1316.5129,-46.4094 1042.7206,-27.2101 941.2157,-20.5489"/>
<polygon fill="#000000" stroke="#000000" points="941.3091,-17.0477 931.1024,-19.8891 940.8533,-24.0328 941.3091,-17.0477"/>
</g>
<!-- 82&#45;&gt;leaf -->
<g id="edge80" class="edge">
<title>82&#45;&gt;leaf</title>
<path fill="none" stroke="#000000" d="M1432.0305,-75.6971C1428.7701,-74.2652 1425.3533,-72.9809 1422,-72 1332.0492,-45.6888 1045.1522,-26.1338 941.0482,-20.0161"/>
<polygon fill="#000000" stroke="#000000" points="941.17,-16.5174 930.9845,-19.4337 940.7655,-23.5057 941.17,-16.5174"/>
</g>
<!-- 87 -->
<g id="node46" class="node">
<title>87</title>
<ellipse fill="none" stroke="#000000" cx="1586" cy="-234" rx="27" ry="18"/>
<text text-anchor="middle" x="1586" y="-230.3" font-family="Times,serif" font-size="14.00" fill="#000000">87</text>
</g>
<!-- 97&#45;&gt;87 -->
<g id="edge93" class="edge">
<title>97&#45;&gt;87</title>
<path fill="none" stroke="#000000" d="M1586,-287.8314C1586,-280.131 1586,-270.9743 1586,-262.4166"/>
<polygon fill="#000000" stroke="#000000" points="1589.5001,-262.4132 1586,-252.4133 1582.5001,-262.4133 1589.5001,-262.4132"/>
</g>
<!-- 99 -->
<g id="node49" class="node">
<title>99</title>
<ellipse fill="none" stroke="#000000" cx="1741" cy="-162" rx="27" ry="18"/>
<text text-anchor="middle" x="1741" y="-158.3" font-family="Times,serif" font-size="14.00" fill="#000000">99</text>
</g>
<!-- 97&#45;&gt;99 -->
<g id="edge94" class="edge">
<title>97&#45;&gt;99</title>
<path fill="none" stroke="#000000" d="M1602.0039,-291.1318C1629.3852,-265.6938 1685.3493,-213.7013 1717.2822,-184.0346"/>
<polygon fill="#000000" stroke="#000000" points="1719.9069,-186.3736 1724.8509,-177.003 1715.1424,-181.2452 1719.9069,-186.3736"/>
</g>
<!-- 85 -->
<g id="node44" class="node">
<title>85</title>
<ellipse fill="none" stroke="#000000" cx="1550" cy="-162" rx="27" ry="18"/>
<text text-anchor="middle" x="1550" y="-158.3" font-family="Times,serif" font-size="14.00" fill="#000000">85</text>
</g>
<!-- 85&#45;&gt;leaf -->
<g id="edge83" class="edge">
<title>85&#45;&gt;leaf</title>
<path fill="none" stroke="#000000" d="M1542.8959,-144.5996C1533.2336,-123.4168 1513.7871,-88.441 1485,-72 1437.9019,-45.1013 1063.5446,-25.468 941.3959,-19.7257"/>
<polygon fill="#000000" stroke="#000000" points="941.1932,-16.2126 931.0413,-19.2439 940.8678,-23.205 941.1932,-16.2126"/>
</g>
<!-- 86 -->
<g id="node45" class="node">
<title>86</title>
<ellipse fill="none" stroke="#ff0000" cx="1559" cy="-90" rx="27" ry="18"/>
<text text-anchor="middle" x="1559" y="-86.3" font-family="Times,serif" font-size="14.00" fill="#000000">86</text>
</g>
<!-- 85&#45;&gt;86 -->
<g id="edge84" class="edge">
<title>85&#45;&gt;86</title>
<path fill="none" stroke="#000000" d="M1552.2711,-143.8314C1553.2336,-136.131 1554.3782,-126.9743 1555.4479,-118.4166"/>
<polygon fill="#000000" stroke="#000000" points="1558.9309,-118.7702 1556.6983,-108.4133 1551.9849,-117.9019 1558.9309,-118.7702"/>
</g>
<!-- 86&#45;&gt;leaf -->
<g id="edge85" class="edge">
<title>86&#45;&gt;leaf</title>
<path fill="none" stroke="#000000" d="M1534.8694,-81.5581C1526.6547,-78.0078 1517.5853,-74.198 1509,-72 1400.1296,-44.1272 1056.9495,-25.6839 941.3314,-19.9247"/>
<polygon fill="#000000" stroke="#000000" points="941.3433,-16.4211 931.1825,-19.4225 940.9973,-23.4126 941.3433,-16.4211"/>
</g>
<!-- 86&#45;&gt;leaf -->
<g id="edge86" class="edge">
<title>86&#45;&gt;leaf</title>
<path fill="none" stroke="#000000" d="M1540.5311,-76.5372C1536.1712,-74.7602 1531.5186,-73.1568 1527,-72 1415.6262,-43.4863 1059.0431,-24.8407 941.13,-19.5476"/>
<polygon fill="#000000" stroke="#000000" points="941.2642,-16.0502 931.1193,-19.1049 940.9549,-23.0434 941.2642,-16.0502"/>
</g>
<!-- 87&#45;&gt;85 -->
<g id="edge87" class="edge">
<title>87&#45;&gt;85</title>
<path fill="none" stroke="#000000" d="M1577.2854,-216.5708C1573.0403,-208.0807 1567.8464,-197.6929 1563.1337,-188.2674"/>
<polygon fill="#000000" stroke="#000000" points="1566.237,-186.6477 1558.6343,-179.2687 1559.976,-189.7782 1566.237,-186.6477"/>
</g>
<!-- 90 -->
<g id="node47" class="node">
<title>90</title>
<ellipse fill="none" stroke="#000000" cx="1622" cy="-162" rx="27" ry="18"/>
<text text-anchor="middle" x="1622" y="-158.3" font-family="Times,serif" font-size="14.00" fill="#000000">90</text>
</g>
<!-- 87&#45;&gt;90 -->
<g id="edge88" class="edge">
<title>87&#45;&gt;90</title>
<path fill="none" stroke="#000000" d="M1594.7146,-216.5708C1598.9597,-208.0807 1604.1536,-197.6929 1608.8663,-188.2674"/>
<polygon fill="#000000" stroke="#000000" points="1612.024,-189.7782 1613.3657,-179.2687 1605.763,-186.6477 1612.024,-189.7782"/>
</g>
<!-- 90&#45;&gt;leaf -->
<g id="edge89" class="edge">
<title>90&#45;&gt;leaf</title>
<path fill="none" stroke="#000000" d="M1622.2003,-143.8776C1621.3535,-122.9848 1616.461,-89.3053 1595,-72 1543.9167,-30.8083 1078.7595,-20.6192 941.1666,-18.4963"/>
<polygon fill="#000000" stroke="#000000" points="941.144,-14.9957 931.093,-18.3464 941.0398,-21.9949 941.144,-14.9957"/>
</g>
<!-- 91 -->
<g id="node48" class="node">
<title>91</title>
<ellipse fill="none" stroke="#ff0000" cx="1669" cy="-90" rx="27" ry="18"/>
<text text-anchor="middle" x="1669" y="-86.3" font-family="Times,serif" font-size="14.00" fill="#000000">91</text>
</g>
<!-- 90&#45;&gt;91 -->
<g id="edge90" class="edge">
<title>90&#45;&gt;91</title>
<path fill="none" stroke="#000000" d="M1632.9009,-145.3008C1638.7736,-136.3043 1646.1366,-125.0247 1652.6787,-115.0029"/>
<polygon fill="#000000" stroke="#000000" points="1655.6228,-116.8957 1658.1582,-106.6087 1649.7611,-113.0693 1655.6228,-116.8957"/>
</g>
<!-- 91&#45;&gt;leaf -->
<g id="edge91" class="edge">
<title>91&#45;&gt;leaf</title>
<path fill="none" stroke="#000000" d="M1644.8826,-81.5057C1636.6706,-77.9448 1627.5996,-74.1411 1619,-72 1488.1075,-39.4105 1070.387,-23.5972 941.2829,-19.2645"/>
<polygon fill="#000000" stroke="#000000" points="941.2023,-15.76 931.0917,-18.9262 940.97,-22.7561 941.2023,-15.76"/>
</g>
<!-- 91&#45;&gt;leaf -->
<g id="edge92" class="edge">
<title>91&#45;&gt;leaf</title>
<path fill="none" stroke="#000000" d="M1650.5444,-76.4845C1646.1828,-74.7143 1641.5261,-73.1269 1637,-72 1503.7249,-38.8173 1073.0848,-23.027 941.4641,-19.0392"/>
<polygon fill="#000000" stroke="#000000" points="941.1853,-15.5295 931.0858,-18.7308 940.9773,-22.5264 941.1853,-15.5295"/>
</g>
<!-- 98 -->
<g id="node50" class="node">
<title>98</title>
<ellipse fill="none" stroke="#000000" cx="1741" cy="-90" rx="27" ry="18"/>
<text text-anchor="middle" x="1741" y="-86.3" font-family="Times,serif" font-size="14.00" fill="#000000">98</text>
</g>
<!-- 99&#45;&gt;98 -->
<g id="edge97" class="edge">
<title>99&#45;&gt;98</title>
<path fill="none" stroke="#000000" d="M1741,-143.8314C1741,-136.131 1741,-126.9743 1741,-118.4166"/>
<polygon fill="#000000" stroke="#000000" points="1744.5001,-118.4132 1741,-108.4133 1737.5001,-118.4133 1744.5001,-118.4132"/>
</g>
<!-- 100 -->
<g id="node51" class="node">
<title>100</title>
<ellipse fill="none" stroke="#000000" cx="1815" cy="-90" rx="28.6953" ry="18"/>
<text text-anchor="middle" x="1815" y="-86.3" font-family="Times,serif" font-size="14.00" fill="#000000">100</text>
</g>
<!-- 99&#45;&gt;100 -->
<g id="edge98" class="edge">
<title>99&#45;&gt;100</title>
<path fill="none" stroke="#000000" d="M1756.3328,-147.0816C1766.6815,-137.0125 1780.5219,-123.5463 1792.1606,-112.2221"/>
<polygon fill="#000000" stroke="#000000" points="1794.7057,-114.6292 1799.4322,-105.147 1789.8242,-109.6121 1794.7057,-114.6292"/>
</g>
<!-- 98&#45;&gt;leaf -->
<g id="edge95" class="edge">
<title>98&#45;&gt;leaf</title>
<path fill="none" stroke="#000000" d="M1717.4057,-80.7039C1710.5482,-77.3631 1703.1476,-73.9431 1696,-72 1550.4824,-32.4405 1079.0741,-21.1887 941.1461,-18.643"/>
<polygon fill="#000000" stroke="#000000" points="941.1182,-15.1421 931.0568,-18.4615 940.9922,-22.1409 941.1182,-15.1421"/>
</g>
<!-- 98&#45;&gt;leaf -->
<g id="edge96" class="edge">
<title>98&#45;&gt;leaf</title>
<path fill="none" stroke="#000000" d="M1724.4569,-75.7422C1721.0736,-74.2619 1717.5064,-72.9532 1714,-72 1566.1856,-31.8161 1082.1119,-20.8405 941.5158,-18.5289"/>
<polygon fill="#000000" stroke="#000000" points="941.2931,-15.025 931.2387,-18.3655 941.1818,-22.0242 941.2931,-15.025"/>
</g>
<!-- 100&#45;&gt;leaf -->
<g id="edge99" class="edge">
<title>100&#45;&gt;leaf</title>
<path fill="none" stroke="#000000" d="M1790.5067,-80.6901C1783.2964,-77.3474 1775.4934,-73.9297 1768,-72 1607.6752,-30.7137 1087.5288,-20.5919 941.408,-18.4904"/>
<polygon fill="#000000" stroke="#000000" points="941.2001,-14.9873 931.1522,-18.3474 941.1024,-21.9866 941.2001,-14.9873"/>
</g>
<!-- 100&#45;&gt;leaf -->
<g id="edge100" class="edge">
<title>100&#45;&gt;leaf</title>
<path fill="none" stroke="#000000" d="M1796.9942,-75.7297C1793.4265,-74.2514 1789.676,-72.9466 1786,-72 1623.3413,-30.1127 1090.3083,-20.3038 941.6907,-18.4037"/>
<polygon fill="#000000" stroke="#000000" points="941.3096,-14.8988 931.2673,-18.2755 941.2234,-21.8983 941.3096,-14.8988"/>
</g>
</g>
</svg>
